<svg width="100" height="100" viewBox="0 0 100 100" fill="none" xmlns="http://www.w3.org/2000/svg">
<path d="M66.4637 97.4491C66.0165 97.4491 65.5789 97.4491 65.1318 97.4491C65.0842 97.3913 65.0461 97.2951 64.9891 97.2854C63.7427 97.0448 63.229 96.1399 62.9341 95.0136C62.6106 93.8007 62.2966 92.5781 61.9637 91.317C61.6973 91.317 61.4594 91.317 61.2216 91.317C54.9234 91.317 48.6348 91.317 42.3366 91.317C41.4138 91.317 41.6611 91.2304 41.3852 92.1064C41.0332 93.2231 40.7954 94.3879 40.4624 95.5142C40.2055 96.3902 39.5966 96.9678 38.7404 97.2662C38.6738 97.2855 38.6357 97.3817 38.5881 97.4395C38.1125 97.4395 37.6368 97.4395 37.1611 97.4395C37.104 97.3817 37.0659 97.2951 36.9993 97.2758C36.0384 97.0159 35.068 96.756 34.0976 96.4961C32.7847 96.1495 31.4718 95.803 30.1684 95.4468C28.7223 95.0521 27.2762 94.6574 25.8396 94.2531C24.6789 93.9354 23.5182 93.6466 22.3766 93.2808C21.2729 92.9343 20.4548 91.5481 20.6736 90.3929C20.8639 89.411 21.1398 88.4387 21.3966 87.4664C21.6725 86.4075 21.9294 85.3486 22.2529 84.3089C22.4051 83.818 22.2529 83.5484 21.8818 83.2885C21.7106 83.173 21.5774 83.0094 21.4252 82.865C18.4949 80.0733 16.0879 76.8965 14.3754 73.2C13.5001 71.3132 12.7961 69.359 12.368 67.3182C12.1492 66.2785 11.9779 65.2196 11.7876 64.1414C11.6735 64.1318 11.5498 64.1126 11.4261 64.1126C9.29502 64.0452 7.39225 63.3617 5.7749 61.9273C4.45247 60.7625 3.52012 59.3474 3.08248 57.6147C2.97783 57.2104 2.85415 56.8157 2.73047 56.4114C2.73047 55.8049 2.73047 55.1888 2.73047 54.5823C2.78755 54.4957 2.88269 54.4283 2.91123 54.332C3.34887 52.7533 5.42289 51.9447 6.84045 52.7822C7.82989 53.3694 8.29607 54.2262 8.31509 55.3525C8.35315 57.1045 9.77071 58.3944 11.4356 58.5003C11.702 58.5196 11.8257 58.4618 11.8638 58.1538C12.0731 56.19 12.4822 54.2743 13.091 52.3971C13.8902 49.9135 15.0319 47.6031 16.4685 45.4468C18.4569 42.4722 20.9019 39.9404 23.699 37.736C27.0193 35.1176 30.6631 33.1153 34.5733 31.5846C37.0374 30.622 39.5586 29.823 42.1653 29.3417C43.4307 29.1106 44.677 28.8026 45.9519 28.6389C47.398 28.4464 48.8536 28.3309 50.2997 28.2731C53.3251 28.1384 56.341 28.4464 59.3378 28.8315C59.8516 28.8989 60.3463 29.0529 60.8505 29.1491C61.3453 29.2454 61.7924 29.2262 62.192 28.7737C63.562 27.2238 65.1888 26.0013 66.9774 24.9616C70.1741 23.1037 73.6086 22.2181 77.2714 22.2566C77.7852 22.2662 78.3465 22.5069 78.7936 22.7957C79.707 23.3732 79.9829 24.3263 79.9829 25.3659C79.9829 29.332 79.9829 33.2885 79.9734 37.2546C79.9734 37.6205 80.078 37.8707 80.3634 38.1114C81.1055 38.7468 81.8381 39.3917 82.5421 40.0752C84.0643 41.5577 85.4724 43.1364 86.614 44.9366C87.4512 46.2554 88.2219 47.6224 89.002 48.9797C89.1923 49.307 89.3921 49.4899 89.8107 49.4803C91.5898 49.4514 93.3593 49.4707 95.1384 49.4707C96.2515 49.4707 97.0412 49.9809 97.5454 50.9628C97.6501 51.1553 97.7738 51.3286 97.8784 51.5211C97.8784 58.0382 97.8784 64.5458 97.8784 71.0629C97.8308 71.0918 97.7452 71.111 97.7262 71.1592C97.1649 72.6224 96.3657 73.1807 94.8245 73.1903C93.1786 73.1903 91.5327 73.2096 89.8773 73.1807C89.3826 73.1711 89.1447 73.3347 88.9259 73.7776C87.2324 77.2431 84.9491 80.2562 82.152 82.8746C81.5336 83.4522 81.0009 83.9528 81.5051 84.8576C81.5146 84.8865 81.5051 84.925 81.5146 84.9539C81.7239 85.7625 81.9332 86.5712 82.133 87.3798C82.3994 88.4002 82.6943 89.4206 82.9131 90.4603C83.132 91.4903 82.2567 92.9824 81.2768 93.3001C80.1731 93.6466 79.06 93.9451 77.9564 94.2531C76.6625 94.6093 75.3687 94.9462 74.0748 95.2928C72.5526 95.6971 71.0303 96.111 69.5081 96.5153C68.5282 96.7752 67.5483 97.0352 66.5684 97.3047C66.5018 97.3047 66.4922 97.3913 66.4637 97.4491ZM50.2902 34.8288C50.2902 34.8384 50.2902 34.8384 50.2902 34.8288C48.2447 34.8288 46.1992 34.8191 44.1537 34.8384C42.7457 34.8577 41.5945 36.0898 41.5374 37.5049C41.4804 39.1703 42.8313 40.4603 44.3916 40.4603C48.1971 40.4603 52.0027 40.4699 55.8082 40.4506C56.2553 40.4506 56.7215 40.3929 57.1497 40.2677C58.2247 39.9597 58.9097 38.9682 59.0239 37.9478C59.2142 36.1476 57.749 34.771 56.1412 34.8191C54.1908 34.8769 52.2405 34.8288 50.2902 34.8288ZM73.913 50.8376C73.9035 50.2312 73.9321 49.6151 73.894 49.0086C73.875 48.7198 73.8084 48.4118 73.6942 48.1422C73.2185 47.0063 71.9627 46.3324 70.7259 46.525C69.5747 46.7079 68.5472 47.709 68.4711 48.8931C68.395 50.1734 68.376 51.4633 68.4711 52.734C68.5758 54.1876 69.8792 55.1984 71.3728 55.1407C72.6382 55.0925 73.9606 53.9085 73.9226 52.5223C73.9035 51.9639 73.913 51.396 73.913 50.8376Z" fill="url(#paint0_linear_561_238)"/>
<path d="M51.7173 1.18408C51.8315 1.24184 51.9457 1.33811 52.0694 1.35736C53.858 1.61727 55.4087 2.40665 56.7977 3.5522C58.5863 5.03468 59.7756 6.9311 60.2608 9.20295C60.8887 12.139 60.413 14.9018 58.7005 17.4143C57.5969 19.0412 56.1603 20.2253 54.4003 21.0339C52.6402 21.8425 50.766 22.1121 48.8822 21.8233C46.1232 21.4093 43.8018 20.0809 42.1274 17.7898C40.0439 14.95 39.5111 11.7732 40.5386 8.40395C41.509 5.21758 43.6591 3.05162 46.7036 1.81943C47.2744 1.58839 47.9118 1.51138 48.5207 1.35736C48.6444 1.32848 48.7585 1.24184 48.8727 1.18408C49.8146 1.18408 50.766 1.18408 51.7173 1.18408Z" fill="url(#paint1_linear_561_238)"/>
<defs>
<linearGradient id="paint0_linear_561_238" x1="2.73047" y1="97.4491" x2="108.25" y2="-3.42704" gradientUnits="userSpaceOnUse">
<stop stop-color="#E5A440"/>
<stop offset="0.446563" stop-color="#EFC57B"/>
<stop offset="0.975811" stop-color="#E7AC4E"/>
</linearGradient>
<linearGradient id="paint1_linear_561_238" x1="40.0308" y1="21.9356" x2="67.9745" y2="1.08506" gradientUnits="userSpaceOnUse">
<stop stop-color="#E5A440"/>
<stop offset="0.446563" stop-color="#EFC57B"/>
<stop offset="0.975811" stop-color="#E7AC4E"/>
</linearGradient>
</defs>
</svg>
