<svg width="100" height="100" viewBox="0 0 100 100" fill="none" xmlns="http://www.w3.org/2000/svg">
<path d="M68.0917 98.4248C48.4236 98.4248 28.7652 98.4248 9.09711 98.4248C9.02879 98.3668 8.96046 98.2895 8.87261 98.2701C8.29672 98.1252 7.71107 98.0382 7.1547 97.8642C5.3099 97.294 3.92386 96.1053 2.87945 94.5396C1.86432 93.0319 1.48364 91.3116 1.48364 89.5043C1.48364 63.4195 1.48364 37.3346 1.48364 11.2497C1.48364 9.96434 1.60077 8.71761 2.03025 7.4902C2.66471 5.68291 3.81649 4.28154 5.38799 3.24742C6.9302 2.2423 8.6774 1.85571 10.5222 1.85571C24.4314 1.86538 38.3406 1.85571 52.2499 1.85571C52.4548 1.85571 52.6598 1.85571 52.9038 1.85571C52.9038 2.12632 52.9038 2.32928 52.9038 2.53224C52.9038 8.80459 52.8941 15.0866 52.9136 21.359C52.9136 21.8615 52.9819 22.4027 53.1869 22.857C53.6945 24.0071 54.651 24.4806 55.9004 24.4806C62.284 24.471 68.6774 24.4806 75.061 24.4806C75.2855 24.4806 75.5002 24.5 75.7345 24.5096C75.7443 24.6546 75.7638 24.7416 75.7638 24.8382C75.7638 28.6847 75.7735 32.5313 75.754 36.3778C75.754 36.5711 75.6369 36.8127 75.4905 36.948C72.3768 40.0407 69.2435 43.1141 66.1201 46.2067C63.1528 49.1351 60.244 52.1215 57.2181 54.9919C55.1781 56.9152 53.8897 59.2057 53.0893 61.8345C52.6501 63.2841 52.123 64.7242 51.6545 66.1642C51.3128 67.208 50.8638 68.2421 50.6784 69.3149C50.4343 70.7452 50.5417 72.1949 51.2152 73.5383C52.5037 76.1091 54.6218 77.4332 57.4817 77.6651C58.858 77.7811 60.0781 77.2302 61.3275 76.8243C63.4846 76.1188 65.632 75.3843 67.7892 74.6884C69.4192 74.1665 70.9029 73.3934 72.162 72.2336C73.2064 71.2768 74.2118 70.2717 75.2367 69.2956C75.3636 69.1699 75.5198 69.0733 75.7247 68.909C75.7443 69.1602 75.754 69.2956 75.754 69.4405C75.754 76.2154 75.7638 82.9903 75.7443 89.7653C75.7443 90.9153 75.5295 92.0558 75.0708 93.1285C74.4656 94.5589 73.5383 95.7477 72.2792 96.6755C71.1274 97.5163 69.878 98.1155 68.4334 98.2701C68.3358 98.2701 68.2186 98.3668 68.0917 98.4248ZM35.7638 30.1538C31.7813 30.1538 27.8087 30.1538 23.8262 30.1538C21.0932 30.1538 18.3699 30.1344 15.6369 30.1634C14.1532 30.1828 12.9917 31.4295 12.9136 32.8405C12.8355 34.3869 14.1532 35.8076 15.9883 35.8076C29.1459 35.7786 42.3036 35.7979 55.4612 35.7883C55.8419 35.7883 56.2518 35.7496 56.6032 35.624C58.1845 35.0731 58.8873 33.5074 58.2723 31.9224C57.794 30.695 56.8082 30.1538 55.4905 30.1538C48.9214 30.1538 42.3426 30.1538 35.7638 30.1538ZM30.0244 41.4614C25.388 41.4614 20.7613 41.4614 16.1249 41.4711C15.715 41.4711 15.2953 41.5387 14.8951 41.645C13.2748 42.0799 12.4353 44.0225 13.2064 45.5012C13.8018 46.6416 14.7487 47.1345 16.0176 47.1345C25.2806 47.1345 34.5437 47.1345 43.8067 47.1249C44.2557 47.1249 44.7145 47.0669 45.1342 46.9412C46.7155 46.458 47.4475 44.8633 46.9009 43.3267C46.4519 42.0703 45.4563 41.4614 44.1093 41.4614C39.4143 41.4517 34.7194 41.4614 30.0244 41.4614ZM29.9854 58.4422C34.6022 58.4422 39.2094 58.4422 43.8262 58.4325C44.2557 58.4325 44.695 58.3745 45.1049 58.2585C46.6862 57.8333 47.467 56.1806 46.9107 54.6343C46.4422 53.3489 45.4563 52.769 43.9922 52.769C34.6803 52.769 25.3782 52.769 16.0664 52.7787C15.6857 52.7787 15.2855 52.8367 14.9243 52.9333C13.3919 53.3489 12.3865 55.2818 13.2357 56.8282C13.8311 57.9106 14.7291 58.4228 15.959 58.4228C20.6247 58.4422 25.3001 58.4422 29.9854 58.4422ZM30.0146 69.7498C34.6315 69.7498 39.2484 69.7498 43.8555 69.7401C44.285 69.7401 44.7242 69.6725 45.1342 69.5565C46.7447 69.0926 47.4475 67.4496 46.8912 65.9419C46.4031 64.6179 45.3294 64.0863 43.9434 64.0863C34.6608 64.096 25.388 64.0863 16.1054 64.0863C15.8907 64.0863 15.6857 64.0863 15.471 64.1056C13.9775 64.2893 13.0112 65.449 12.9136 66.7344C12.7867 68.3194 14.1435 69.7498 15.8223 69.7401C20.5564 69.7401 25.2904 69.7498 30.0146 69.7498ZM47.0473 86.7306C49.878 86.7306 52.6989 86.7499 55.5295 86.7112C56.0468 86.7016 56.6325 86.5759 57.0815 86.3246C58.409 85.5805 58.8189 84.3241 58.2918 82.855C57.8331 81.589 56.7984 81.0574 55.4807 81.0477C49.9073 81.0381 44.3338 81.0381 38.7604 81.0574C38.3992 81.0574 38.0283 81.1347 37.6671 81.2314C36.1542 81.6373 35.2855 83.4253 35.8614 84.8749C36.2713 85.9187 37.306 86.7306 38.6139 86.7306C41.4251 86.7209 44.2362 86.7306 47.0473 86.7306Z" fill="url(#paint0_linear_561_247)"/>
<path d="M99.0043 36.3389C98.8969 36.6095 98.7505 36.8608 98.6822 37.1411C98.3894 38.1945 97.7159 38.9967 96.974 39.7409C95.8613 40.862 94.7193 41.9541 93.6163 43.0848C93.2942 43.4134 93.0892 43.4134 92.7574 43.0848C90.3171 40.6397 87.8476 38.2042 85.3879 35.7687C85.1829 35.5657 85.0853 35.4304 85.3293 35.1888C86.7837 33.7875 88.16 32.2894 89.7022 30.9847C91.0687 29.8346 92.7378 29.5254 94.5338 29.9216C96.0565 30.2599 97.2669 31.004 98.0673 32.3184C98.3991 32.879 98.5748 33.5265 98.8286 34.1354C98.8579 34.203 98.9457 34.2514 99.0043 34.3093C99.0043 34.9859 99.0043 35.6624 99.0043 36.3389Z" fill="url(#paint1_linear_561_247)"/>
<path d="M62.1377 58.0652C62.9283 57.3113 63.6799 56.6155 64.4022 55.9003C68.043 52.3051 71.6741 48.6905 75.3149 45.0856C77.062 43.3556 78.8092 41.6256 80.5662 39.9053C81.0152 39.4608 81.025 39.4608 81.513 39.9343C83.9435 42.3312 86.3641 44.7376 88.8044 47.1248C89.0972 47.4148 89.0777 47.5694 88.7946 47.8497C82.7526 53.8127 76.7204 59.7855 70.7077 65.7679C70.3563 66.1158 70.1514 65.9805 69.8878 65.7099C67.4086 63.2358 64.9293 60.7713 62.4403 58.2971C62.3817 58.2488 62.3232 58.2102 62.1377 58.0652Z" fill="url(#paint2_linear_561_247)"/>
<path d="M58.4871 1.82666C58.9849 1.87498 59.4631 1.88465 59.9317 1.97163C60.5564 2.08761 61.1811 2.24224 61.796 2.39687C63.1235 2.7448 64.2069 3.51797 65.1635 4.44578C67.8184 7.02624 70.4441 9.63569 73.0698 12.2451C74.3485 13.5209 75.1684 15.0575 75.5393 16.8068C75.6759 17.4447 75.6271 18.1116 75.6564 18.7978C69.8975 18.7978 64.2069 18.7978 58.4871 18.7978C58.4871 13.1633 58.4871 7.54813 58.4871 1.82666Z" fill="url(#paint3_linear_561_247)"/>
<path d="M65.5929 69.4501C63.1527 70.2619 60.8589 71.0447 58.5553 71.7889C58.1942 71.9049 57.7842 71.9919 57.4231 71.9339C56.5348 71.7793 56.0956 70.8901 56.3982 69.9913C56.9936 68.2323 57.6085 66.4734 58.204 64.7144C58.4187 64.0765 58.6139 63.4387 58.8384 62.7332C61.1224 65.014 63.3674 67.1789 65.5929 69.4501Z" fill="url(#paint4_linear_561_247)"/>
<defs>
<linearGradient id="paint0_linear_561_247" x1="1.48365" y1="98.4248" x2="119.346" y2="29.9292" gradientUnits="userSpaceOnUse">
<stop stop-color="#E5A440"/>
<stop offset="0.446563" stop-color="#EFC57B"/>
<stop offset="0.975811" stop-color="#E7AC4E"/>
</linearGradient>
<linearGradient id="paint1_linear_561_247" x1="85.1853" y1="43.3313" x2="103.614" y2="29.1565" gradientUnits="userSpaceOnUse">
<stop stop-color="#E5A440"/>
<stop offset="0.446563" stop-color="#EFC57B"/>
<stop offset="0.975811" stop-color="#E7AC4E"/>
</linearGradient>
<linearGradient id="paint2_linear_561_247" x1="62.1377" y1="65.9764" x2="97.9821" y2="38.4066" gradientUnits="userSpaceOnUse">
<stop stop-color="#E5A440"/>
<stop offset="0.446563" stop-color="#EFC57B"/>
<stop offset="0.975811" stop-color="#E7AC4E"/>
</linearGradient>
<linearGradient id="paint3_linear_561_247" x1="58.4871" y1="18.7978" x2="81.491" y2="1.21516" gradientUnits="userSpaceOnUse">
<stop stop-color="#E5A440"/>
<stop offset="0.446563" stop-color="#EFC57B"/>
<stop offset="0.975811" stop-color="#E7AC4E"/>
</linearGradient>
<linearGradient id="paint4_linear_561_247" x1="56.303" y1="71.9523" x2="68.7863" y2="62.4488" gradientUnits="userSpaceOnUse">
<stop stop-color="#E5A440"/>
<stop offset="0.446563" stop-color="#EFC57B"/>
<stop offset="0.975811" stop-color="#E7AC4E"/>
</linearGradient>
</defs>
</svg>
