<svg width="100" height="100" viewBox="0 0 100 100" fill="none" xmlns="http://www.w3.org/2000/svg">
<path d="M96.3298 53.1C96.2731 53.29 96.1879 53.48 96.1596 53.67C96.0082 55.09 95.9515 56.52 95.7245 57.92C95.2704 60.73 94.5894 63.49 93.5584 66.13C93.1611 67.14 92.7449 68.15 92.2246 69.08C91.5247 70.33 90.0869 70.89 88.7248 70.24C87.429 69.62 86.7952 68.04 87.2114 66.83C87.5141 65.97 87.9303 65.16 88.2235 64.31C88.7343 62.86 89.2735 61.41 89.6518 59.91C90.6166 56.05 90.9004 52.1 90.7491 48.12C90.6355 45.25 90.2572 42.43 89.5572 39.65C89.0275 37.55 88.2803 35.56 87.3533 33.62C86.6249 32.11 87.4668 30.2 88.9897 29.64C90.3423 29.14 91.8368 29.96 92.4517 31.26C93.407 33.31 94.2205 35.41 94.7786 37.61C95.1096 38.89 95.3839 40.18 95.5826 41.49C95.838 43.19 95.9799 44.9 96.1879 46.61C96.1974 46.71 96.292 46.79 96.3393 46.89C96.3298 48.97 96.3298 51.04 96.3298 53.1Z" fill="url(#paint0_linear_561_259)"/>
<path d="M1.74042 46.9002C1.79717 46.7102 1.89176 46.5102 1.90122 46.3202C1.96743 44.3802 2.27958 42.4702 2.62956 40.5702C3.05521 38.2702 3.67004 36.0302 4.50243 33.8602C4.8997 32.8302 5.32536 31.8102 5.86452 30.8602C6.56448 29.6302 8.0117 29.1102 9.34541 29.7502C10.6413 30.3702 11.275 31.9702 10.8399 33.1702C10.5372 34.0102 10.121 34.8002 9.82782 35.6402C9.36433 36.9402 8.90084 38.2402 8.5414 39.5702C7.47254 43.5502 7.17931 47.6202 7.31174 51.7302C7.39687 54.3802 7.73739 57.0002 8.32384 59.5802C8.863 61.9302 9.6481 64.1802 10.6886 66.3302C11.4358 67.8702 10.6035 69.7902 9.08056 70.3502C7.69955 70.8502 6.24288 70.0302 5.61859 68.7302C4.42676 66.2302 3.53762 63.6102 2.91333 60.9002C2.63902 59.7102 2.44984 58.5002 2.28904 57.2902C2.11877 56.0102 2.02418 54.7202 1.8823 53.4402C1.87284 53.3302 1.77825 53.2202 1.73096 53.1102C1.74042 51.0402 1.74042 48.9702 1.74042 46.9002Z" fill="url(#paint1_linear_561_259)"/>
<path d="M73.9783 50.0601C73.9783 60.9401 73.9688 71.8201 73.9877 82.7101C73.9877 85.0301 73.5148 87.1901 72.2946 89.1201C71.1217 90.9801 69.5515 92.3601 67.5651 93.1901C66.2598 93.7301 64.9072 93.9701 63.5072 93.9701C53.8591 93.9601 44.211 93.9701 34.5629 93.9701C30.9022 93.9701 27.9889 92.4001 25.8606 89.2601C25.1796 88.2501 24.631 87.1301 24.4512 85.8901C24.2904 84.8001 24.1107 83.6901 24.1107 82.5901C24.0918 60.8101 24.1013 39.0301 24.0918 17.2501C24.0918 15.3501 24.4134 13.5301 25.2458 11.8601C26.1255 10.1001 27.393 8.68013 29.0199 7.64013C30.732 6.55013 32.5859 6.08013 34.5818 6.08013C43.5961 6.09013 52.6105 6.08013 61.6344 6.08013C62.3438 6.08013 63.0532 6.07013 63.7626 6.08013C67.6975 6.18013 70.6771 8.02013 72.6824 11.6001C73.5148 13.0801 73.9499 14.7201 73.9688 16.4401C74.0067 20.7601 73.9877 25.0701 73.9877 29.3901C73.9783 36.2601 73.9783 43.1601 73.9783 50.0601ZM49.0445 86.1401C50.189 86.1401 51.343 86.1401 52.4876 86.1401C52.5159 86.1401 52.5538 86.1401 52.5821 86.1401C52.97 86.0701 53.3672 86.0501 53.7267 85.9201C54.8901 85.5001 55.6468 84.1101 55.4671 82.7801C55.2874 81.4801 54.1429 80.3201 52.9321 80.3101C50.3215 80.2901 47.7013 80.2801 45.0907 80.3101C43.8515 80.3201 42.6597 81.5901 42.5746 82.9001C42.4422 84.7001 43.6907 86.1301 45.4028 86.1401C46.6136 86.1401 47.8338 86.1301 49.0445 86.1401ZM49.035 19.7201C50.1417 19.7201 51.239 19.7401 52.3457 19.7101C52.7808 19.7001 53.2254 19.6501 53.6321 19.5201C54.8712 19.1401 55.6847 17.7601 55.4671 16.3701C55.2496 14.9701 54.2753 13.9301 52.951 13.9001C50.3404 13.8201 47.7202 13.8501 45.1096 13.8901C43.8137 13.9101 42.6313 15.2101 42.5746 16.5801C42.4989 18.3501 43.7191 19.7101 45.3933 19.7201C46.6136 19.7201 47.8243 19.7201 49.035 19.7201Z" fill="url(#paint2_linear_561_259)"/>
<path d="M11.7764 49.8402C11.9939 47.9602 12.1358 45.9502 12.4858 43.9802C12.9209 41.5302 13.7438 39.1902 14.9262 37.0202C15.4937 35.9702 16.3167 35.3602 17.4801 35.3702C18.5774 35.3902 19.4003 35.9402 19.9016 36.9702C20.3273 37.8402 20.2894 38.7202 19.9111 39.6102C19.3435 40.9502 18.7098 42.2702 18.2841 43.6502C17.9247 44.8102 17.7828 46.0602 17.6409 47.2802C17.5085 48.4002 17.4139 49.5302 17.4801 50.6502C17.5652 52.1102 17.7828 53.5702 17.9909 55.0202C18.2652 56.9202 19.0125 58.6402 19.8638 60.3302C20.5826 61.7602 20.1381 63.4502 18.8706 64.2502C17.6031 65.0502 15.9478 64.6802 15.1438 63.3002C14.5289 62.2502 13.9803 61.1302 13.5925 59.9702C13.0722 58.4102 12.6277 56.8002 12.3439 55.1802C12.0412 53.4702 11.9655 51.7202 11.7764 49.8402Z" fill="url(#paint3_linear_561_259)"/>
<path d="M86.2939 50.16C86.0764 52 85.9345 54.02 85.594 55.99C85.1589 58.44 84.3454 60.78 83.163 62.96C82.5766 64.04 81.7347 64.67 80.5334 64.65C78.547 64.61 77.2795 62.33 78.1403 60.44C78.7362 59.12 79.3416 57.79 79.7767 56.4C80.1267 55.3 80.3064 54.13 80.4294 52.97C80.5713 51.59 80.6564 50.19 80.5996 48.8C80.5523 47.54 80.297 46.28 80.1078 45.03C79.8051 43.06 79.0389 41.29 78.1498 39.55C77.4782 38.23 78.0173 36.5 79.2659 35.75C80.4861 35.01 82.0941 35.37 82.8698 36.6C83.6738 37.86 84.2886 39.24 84.7048 40.69C85.1021 42.08 85.5088 43.47 85.7453 44.89C86.0102 46.56 86.1047 48.28 86.2939 50.16Z" fill="url(#paint4_linear_561_259)"/>
<defs>
<linearGradient id="paint0_linear_561_259" x1="87.0845" y1="70.513" x2="106.174" y2="67.2592" gradientUnits="userSpaceOnUse">
<stop stop-color="#E5A440"/>
<stop offset="0.446563" stop-color="#EFC57B"/>
<stop offset="0.975811" stop-color="#E7AC4E"/>
</linearGradient>
<linearGradient id="paint1_linear_561_259" x1="1.73096" y1="70.4986" x2="20.802" y2="67.2514" gradientUnits="userSpaceOnUse">
<stop stop-color="#E5A440"/>
<stop offset="0.446563" stop-color="#EFC57B"/>
<stop offset="0.975811" stop-color="#E7AC4E"/>
</linearGradient>
<linearGradient id="paint2_linear_561_259" x1="24.0918" y1="93.9701" x2="113.55" y2="55.5991" gradientUnits="userSpaceOnUse">
<stop stop-color="#E5A440"/>
<stop offset="0.446563" stop-color="#EFC57B"/>
<stop offset="0.975811" stop-color="#E7AC4E"/>
</linearGradient>
<linearGradient id="paint3_linear_561_259" x1="11.7764" y1="64.6671" x2="28.8649" y2="60.9515" gradientUnits="userSpaceOnUse">
<stop stop-color="#E5A440"/>
<stop offset="0.446563" stop-color="#EFC57B"/>
<stop offset="0.975811" stop-color="#E7AC4E"/>
</linearGradient>
<linearGradient id="paint4_linear_561_259" x1="77.8586" y1="64.6505" x2="94.9533" y2="60.9302" gradientUnits="userSpaceOnUse">
<stop stop-color="#E5A440"/>
<stop offset="0.446563" stop-color="#EFC57B"/>
<stop offset="0.975811" stop-color="#E7AC4E"/>
</linearGradient>
</defs>
</svg>
