<svg width="100" height="100" viewBox="0 0 100 100" fill="none" xmlns="http://www.w3.org/2000/svg">
<path d="M65.6 2.15332C72.47 2.15332 79.33 2.15332 86.2 2.15332C86.33 2.21074 86.44 2.2873 86.58 2.32559C87.19 2.49785 87.84 2.58398 88.41 2.83281C91.93 4.39277 93.71 7.05331 93.76 10.7666C93.79 12.7763 93.76 14.7861 93.76 16.7959C93.76 40.913 93.76 65.0206 93.77 89.1377C93.77 91.76 92.84 93.9899 90.79 95.7412C89.58 96.7748 88.18 97.4926 86.53 97.684C86.42 97.6936 86.31 97.7988 86.21 97.8563C62.08 97.8563 37.94 97.8563 13.81 97.8563C13.7 97.7988 13.6 97.7031 13.49 97.684C12.5 97.5883 11.61 97.2438 10.77 96.7748C7.75 95.0809 6.26 92.5352 6.26 89.1856C6.26 63.0587 6.26 36.9413 6.25 10.8144C6.25 8.74725 6.84 6.89062 8.21 5.28281C9.36 3.93339 10.8 2.97637 12.57 2.51699C12.99 2.41172 13.4 2.27773 13.81 2.15332C20.68 2.15332 27.54 2.15332 34.41 2.15332C34.4 2.34473 34.37 2.53613 34.37 2.71797C34.37 6.06757 34.37 9.41717 34.37 12.7668C34.37 12.9486 34.37 13.1304 34.37 13.3506C34.06 13.3506 33.85 13.3506 33.64 13.3506C29.44 13.3506 25.24 13.3697 21.04 13.341C19.28 13.3314 17.96 14.7383 17.96 16.2599C17.98 38.7501 17.98 61.2307 17.96 83.7209C17.96 85.2713 19.29 86.6399 21.04 86.6399C40.35 86.6303 59.67 86.6303 78.98 86.6399C80.74 86.6399 82.05 85.3 82.05 83.7209C82.03 61.2307 82.03 38.7501 82.05 16.2599C82.05 14.6904 80.72 13.3314 78.98 13.341C74.76 13.3601 70.55 13.3506 66.33 13.3506C66.12 13.3506 65.91 13.3314 65.64 13.3219C65.64 13.0922 65.64 12.9008 65.64 12.7189C65.64 9.38846 65.64 6.04843 65.64 2.71797C65.64 2.52656 65.61 2.34473 65.6 2.15332Z" fill="url(#paint0_linear_561_95)"/>
<path d="M59.8 2.15332C59.8 7.56054 59.8 12.9582 59.8 18.3654C59.8 18.9779 59.8 18.9779 59.15 18.9779C53.05 18.9779 46.96 18.9779 40.86 18.9779C40.68 18.9779 40.5 18.9779 40.21 18.9779C40.21 13.3506 40.21 7.75194 40.21 2.15332C46.73 2.15332 53.27 2.15332 59.8 2.15332Z" fill="url(#paint1_linear_561_95)"/>
<path d="M76.1501 81.0029C58.7001 81.0029 41.2901 81.0029 23.8401 81.0029C23.8401 60.3406 23.8401 39.6879 23.8401 19.0065C24.0001 18.997 24.1601 18.9778 24.3201 18.9778C27.4701 18.9778 30.6201 18.9874 33.7701 18.9683C34.2201 18.9683 34.3801 19.0735 34.3601 19.5233C34.3201 20.2985 34.3601 21.0833 34.3501 21.8681C34.3401 23.3419 35.6801 24.5669 37.1901 24.5669C45.7201 24.5765 54.2601 24.5765 62.7901 24.5669C64.3001 24.5669 65.6301 23.3515 65.6301 21.8681C65.6201 21.0354 65.6401 20.2124 65.6301 19.3798C65.6301 19.1022 65.7001 18.9778 66.0201 18.9778C69.3501 18.9874 72.6901 18.9874 76.0201 18.9874C76.0501 18.9874 76.0801 19.0065 76.1501 19.0257C76.1501 39.6592 76.1501 60.3024 76.1501 81.0029ZM61.1401 69.6238C59.0401 69.6238 56.9401 69.6143 54.8401 69.6334C54.4701 69.6334 54.0901 69.7004 53.7301 69.7961C52.1801 70.198 51.3401 71.7963 51.8701 73.3467C52.2601 74.5047 53.3701 75.232 54.6701 75.232C58.8701 75.2416 63.0601 75.2416 67.2601 75.232C67.7201 75.232 68.1901 75.165 68.6301 75.0598C70.0201 74.7152 70.9801 72.8012 70.4401 71.5379C69.9401 70.3607 68.8901 69.6047 67.4301 69.6238C65.3301 69.6525 63.2301 69.6238 61.1401 69.6238ZM61.1101 63.6807C63.3101 63.6807 65.5101 63.6615 67.7001 63.6902C69.1201 63.6998 70.5801 62.4365 70.5501 60.8766C70.5301 59.2592 69.1801 58.0916 67.6901 58.0725C63.3101 58.0342 58.9301 58.0342 54.5501 58.0821C53.3601 58.0916 52.4101 58.7041 51.9301 59.7951C51.1201 61.6326 52.4801 63.652 54.5601 63.6807C56.7501 63.7094 58.9301 63.6807 61.1101 63.6807ZM61.1201 41.5542C63.0401 41.5542 64.9501 41.5637 66.8701 41.5446C67.3501 41.5446 67.8301 41.4872 68.3001 41.4106C70.2901 41.0661 71.1201 38.8936 70.1901 37.3337C69.5701 36.2905 68.5801 35.9077 67.3501 35.9077C63.2201 35.9173 59.0901 35.9077 54.9501 35.9173C54.7301 35.9173 54.5201 35.9268 54.3001 35.946C52.4601 36.1182 51.2401 37.9557 51.8601 39.621C52.3201 40.8555 53.4001 41.5159 54.7701 41.535C56.8901 41.5733 59.0001 41.5542 61.1201 41.5542ZM61.1001 52.1676C63.2501 52.1676 65.4001 52.1868 67.5501 52.158C69.0901 52.1389 70.1001 51.3924 70.4501 50.1291C70.7701 48.9616 70.5501 47.8418 69.1601 46.9614C68.5401 46.569 67.8401 46.5594 67.1501 46.5594C63.2801 46.5498 59.4201 46.5498 55.5501 46.5594C55.1201 46.5594 54.6801 46.5881 54.2501 46.6264C52.4401 46.7891 51.2601 48.5692 51.8501 50.2344C52.2801 51.4307 53.3701 52.158 54.8001 52.1676C56.9001 52.1772 59.0001 52.1676 61.1001 52.1676ZM35.7801 34.7592C35.2901 34.2807 34.8601 33.8214 34.4001 33.4098C33.2001 32.3284 31.4001 32.3475 30.2901 33.4003C29.2001 34.4339 29.1501 36.3192 30.2601 37.3624C31.4101 38.4438 32.5401 39.554 33.6801 40.6545C34.2901 41.2479 35.0701 41.5446 35.9001 41.5254C36.7201 41.5063 37.4501 41.1426 38.0401 40.5684C39.0601 39.5827 40.0901 38.6065 41.1101 37.6303C41.9301 36.836 42.7601 36.0512 43.5801 35.2473C44.4801 34.3669 44.7501 33.1419 44.2701 32.0891C43.8001 31.0364 42.6101 30.2803 41.3301 30.3952C40.5301 30.4718 39.8701 30.8354 39.3101 31.3809C38.1701 32.4815 37.0101 33.5917 35.7801 34.7592ZM34.1501 72.3322C34.1001 74.0166 35.5901 75.2607 37.0801 75.232C38.5701 75.2033 40.0301 73.873 39.9701 72.5236C39.9001 70.8775 38.6801 69.6143 36.9801 69.6238C35.5701 69.643 34.0401 70.9062 34.1501 72.3322ZM36.9901 63.6807C38.5401 63.6902 40.0401 62.3983 39.9701 61.001C39.8801 59.2305 38.7001 58.1299 37.0801 58.0725C35.6401 58.0246 34.1601 59.2975 34.1301 60.7043C34.1001 62.4365 35.6101 63.7477 36.9901 63.6807ZM34.1501 49.3444C34.1301 50.9043 35.5301 52.2155 37.0801 52.158C38.7301 52.091 40.0101 50.8661 39.9601 49.4209C39.9101 47.8131 38.7101 46.5594 36.9501 46.5881C35.5201 46.6073 33.9801 47.928 34.1501 49.3444Z" fill="url(#paint2_linear_561_95)"/>
<defs>
<linearGradient id="paint0_linear_561_95" x1="6.25" y1="97.8563" x2="131.994" y2="10.9755" gradientUnits="userSpaceOnUse">
<stop stop-color="#E5A440"/>
<stop offset="0.446563" stop-color="#EFC57B"/>
<stop offset="0.975811" stop-color="#E7AC4E"/>
</linearGradient>
<linearGradient id="paint1_linear_561_95" x1="40.21" y1="18.9779" x2="63.651" y2="-1.64285" gradientUnits="userSpaceOnUse">
<stop stop-color="#E5A440"/>
<stop offset="0.446563" stop-color="#EFC57B"/>
<stop offset="0.975811" stop-color="#E7AC4E"/>
</linearGradient>
<linearGradient id="paint2_linear_561_95" x1="23.8401" y1="81.0029" x2="102.817" y2="30.6889" gradientUnits="userSpaceOnUse">
<stop stop-color="#E5A440"/>
<stop offset="0.446563" stop-color="#EFC57B"/>
<stop offset="0.975811" stop-color="#E7AC4E"/>
</linearGradient>
</defs>
</svg>
