<svg width="80" height="80" viewBox="0 0 80 80" fill="none" xmlns="http://www.w3.org/2000/svg">
<g clip-path="url(#clip0_561_110)">
<path d="M80 12.7246C79.952 12.8274 79.872 12.9388 79.856 13.0503C79.664 14.7732 79.056 16.3161 78.168 17.7475C77.04 19.5733 75.528 20.9276 73.664 21.8019C72.896 22.1619 72.048 22.342 71.232 22.5905C70.928 22.6848 70.616 22.7362 70.344 22.8048C71.184 23.002 72.064 23.2163 72.952 23.422C72.952 23.4906 72.952 23.5506 72.952 23.6191C72.648 23.7048 72.344 23.7991 72.048 23.8849C69.128 24.742 67.024 26.6792 65.656 29.525C64.888 31.1365 64.656 32.8937 64.656 34.7023C64.672 49.497 64.664 64.3002 64.664 79.0949C64.664 79.2663 64.664 79.4378 64.664 79.6092C64.664 79.8578 64.552 79.9778 64.32 79.9778C63.2 79.9778 62.08 80.0378 60.96 79.9606C59.672 79.8663 58.768 78.9749 58.672 77.5263C58.656 77.3377 58.664 77.1577 58.664 76.9691C58.664 62.8687 58.664 48.7769 58.664 34.6766C58.664 33.4337 58.736 32.1822 59.088 30.9993C59.744 28.7793 60.872 26.8849 62.584 25.402C63.936 24.2363 65.432 23.422 67.144 23.0791C67.544 23.002 67.944 22.9248 68.368 22.8391C67.776 22.702 67.208 22.5648 66.64 22.4277C65.36 22.1105 64.2 21.5019 63.144 20.6876C61.576 19.4876 60.384 17.9361 59.592 16.0504C58.936 14.4903 58.624 12.8446 58.688 11.1217C58.76 9.24446 59.16 7.45299 60 5.79866C61.208 3.41574 63.008 1.76141 65.376 0.801381C67.256 0.038504 69.2 -0.201502 71.144 0.17565C74.816 0.887098 77.576 2.96144 79.064 6.75011C79.472 7.79585 79.784 8.86731 79.856 10.0073C79.864 10.1188 79.944 10.2302 79.992 10.3331C80 11.1302 80 11.9274 80 12.7246Z" fill="url(#paint0_linear_561_110)"/>
<path d="M0 33.2965C0.0959999 33.0136 0.208 32.7393 0.287999 32.4565C0.759999 30.8193 1.76 29.6535 3.19199 29.0021C5.66399 27.8706 8.54399 28.7364 9.99998 31.4622C10.44 32.285 10.6 33.1765 10.664 34.1279C10.768 35.8423 10.88 37.5738 11.144 39.2624C11.432 41.1224 12.008 42.9139 12.728 44.6454C13.944 47.5512 15.592 50.1312 17.688 52.3856C19.52 54.3485 21.568 55.9942 23.904 57.1857C25.16 57.8286 26.456 58.4286 27.784 58.8657C29.824 59.5343 31.92 59.9115 34.0719 59.9115C35.3039 59.9115 36.4959 60.1172 37.5599 60.8544C38.6319 61.5915 39.3839 62.5944 39.6879 63.923C39.8319 64.5573 39.9999 65.2345 39.9599 65.8774C39.8239 68.0889 38.8559 70.1718 36.3839 71.0375C35.6799 71.2861 34.8959 71.3375 34.1519 71.3289C32.9279 71.3118 31.704 71.2346 30.488 71.0804C29.224 70.9175 27.96 70.6775 26.72 70.3603C25.376 70.0089 24.016 69.6317 22.736 69.0832C21.072 68.3803 19.432 67.566 17.84 66.6745C16 65.6545 14.312 64.3516 12.704 62.9459C10.664 61.1544 8.83999 59.14 7.22399 56.9028C6.00799 55.2142 4.93599 53.4313 4.00799 51.5456C2.96 49.4284 2.08 47.234 1.48 44.9282C1.064 43.3339 0.759999 41.7053 0.471999 40.0681C0.295999 39.0567 0.248 38.0109 0.136 36.9823C0.12 36.8537 0.0479999 36.7337 0 36.6137C0 35.5251 0 34.4108 0 33.2965Z" fill="url(#paint1_linear_561_110)"/>
<path d="M80 78.0492C79.928 78.2034 79.848 78.3492 79.776 78.5035C79.312 79.4635 78.544 79.9692 77.552 79.9778C74.936 80.0035 72.3281 79.9863 69.7121 79.9949C69.4321 79.9949 69.3121 79.9006 69.3441 79.6006C69.3521 79.532 69.3441 79.4549 69.3441 79.3863C69.3441 64.4459 69.3521 49.5055 69.3361 34.5566C69.3361 33.1337 69.6401 31.8565 70.4641 30.7422C71.2001 29.7393 72.1201 29.0536 73.2881 28.7364C76.024 27.9993 78.56 29.4136 79.648 32.1736C79.752 32.4394 79.776 32.748 79.856 33.0308C79.88 33.1251 79.952 33.2108 80 33.3051C80 48.2112 80 63.1345 80 78.0492Z" fill="url(#paint2_linear_561_110)"/>
<path d="M0 10.2388C0.0479999 10.1359 0.128 10.0331 0.144 9.92165C0.599999 6.1587 2.296 3.27862 5.41599 1.42714C6.35199 0.869986 7.36799 0.518548 8.42399 0.278542C9.77599 -0.0300378 11.136 -0.0900394 12.464 0.175682C16.064 0.878558 18.792 2.8929 20.328 6.55299C21.176 8.56733 21.48 10.6931 21.24 12.8789C21.032 14.7046 20.408 16.3761 19.416 17.8933C18.28 19.6333 16.816 20.9619 15.008 21.8105C14.24 22.1705 13.392 22.3506 12.584 22.5991C12.28 22.6934 11.968 22.7449 11.616 22.8306C12.056 22.9163 12.464 22.9934 12.872 23.0791C15.936 23.7649 18.24 25.5906 19.856 28.4364C20.96 30.3822 21.352 32.5165 21.352 34.7709C21.336 39.3139 21.344 43.8568 21.344 48.3998C21.344 48.597 21.328 48.7855 21.312 49.1027C21.064 48.8627 20.888 48.7084 20.736 48.537C19.024 46.6169 17.704 44.414 16.76 41.9625C15.744 39.3053 15.408 36.5109 15.32 33.6566C15.224 30.6822 14.048 28.2221 11.992 26.2249C10.64 24.9135 9.06399 24.082 7.27999 23.7134C7.20799 23.6963 7.14399 23.6534 6.97599 23.5763C7.90399 23.1134 8.79999 22.9591 9.81599 22.8477C9.15999 22.6934 8.60799 22.5648 8.05599 22.4191C6.62399 22.0591 5.35199 21.3648 4.19199 20.4134C2.44 18.9819 1.256 17.1133 0.543999 14.9018C0.351999 14.3103 0.295999 13.6675 0.168 13.0417C0.144 12.9303 0.0719998 12.8274 0.0239999 12.716C-6.19887e-08 11.9017 0 11.0703 0 10.2388Z" fill="url(#paint3_linear_561_110)"/>
<path d="M0 54.3828C0.144 54.5714 0.319999 54.7428 0.431999 54.9571C2.248 58.4715 4.54399 61.5916 7.21599 64.3945C8.90399 66.1688 10.736 67.746 12.696 69.1775C14.376 70.4032 16.136 71.4576 17.952 72.3919C18.872 72.8719 19.832 73.2662 20.792 73.6519C21.2 73.8148 21.368 74.0376 21.352 74.5176C21.312 75.4262 21.344 76.3434 21.336 77.2606C21.328 78.4006 20.896 79.292 19.872 79.7378C19.552 79.8749 19.184 79.9692 18.832 79.9692C13.384 79.9863 7.93599 79.9864 2.48 79.9778C1.392 79.9778 0.368 79.2492 0.136 78.1777C0.128 78.1263 0.0479999 78.0834 0 78.0406C0 70.1632 0 62.2773 0 54.3828Z" fill="url(#paint4_linear_561_110)"/>
<path d="M53.9039 49.5999C53.9279 49.8656 53.9519 50.0113 53.9519 50.157C53.9519 55 53.9519 59.843 53.9599 64.686C53.9599 64.9603 53.9039 65.1317 53.6559 65.3031C51.8799 66.546 50.0319 67.6432 48.0559 68.4661C46.8079 68.9889 45.5439 69.4518 44.2879 69.9404C44.1839 69.9833 44.0639 69.9661 43.8879 69.9833C45.3439 65.8689 44.7919 62.1145 42.2959 58.643C46.9759 56.8858 50.8319 53.9114 53.9039 49.5999Z" fill="url(#paint5_linear_561_110)"/>
</g>
<defs>
<linearGradient id="paint0_linear_561_110" x1="58.662" y1="80" x2="102.186" y2="71.2295" gradientUnits="userSpaceOnUse">
<stop stop-color="#E5A440"/>
<stop offset="0.446563" stop-color="#EFC57B"/>
<stop offset="0.975811" stop-color="#E7AC4E"/>
</linearGradient>
<linearGradient id="paint1_linear_561_110" x1="1.50526e-06" y1="71.3298" x2="56.6504" y2="31.3751" gradientUnits="userSpaceOnUse">
<stop stop-color="#E5A440"/>
<stop offset="0.446563" stop-color="#EFC57B"/>
<stop offset="0.975811" stop-color="#E7AC4E"/>
</linearGradient>
<linearGradient id="paint2_linear_561_110" x1="69.3361" y1="79.9949" x2="91.4292" y2="76.5354" gradientUnits="userSpaceOnUse">
<stop stop-color="#E5A440"/>
<stop offset="0.446563" stop-color="#EFC57B"/>
<stop offset="0.975811" stop-color="#E7AC4E"/>
</linearGradient>
<linearGradient id="paint3_linear_561_110" x1="8.04191e-07" y1="49.1027" x2="40.9046" y2="35.6625" gradientUnits="userSpaceOnUse">
<stop stop-color="#E5A440"/>
<stop offset="0.446563" stop-color="#EFC57B"/>
<stop offset="0.975811" stop-color="#E7AC4E"/>
</linearGradient>
<linearGradient id="paint4_linear_561_110" x1="8.0423e-07" y1="79.9834" x2="32.4409" y2="59.5407" gradientUnits="userSpaceOnUse">
<stop stop-color="#E5A440"/>
<stop offset="0.446563" stop-color="#EFC57B"/>
<stop offset="0.975811" stop-color="#E7AC4E"/>
</linearGradient>
<linearGradient id="paint5_linear_561_110" x1="42.2959" y1="69.9833" x2="63.1548" y2="60.9655" gradientUnits="userSpaceOnUse">
<stop stop-color="#E5A440"/>
<stop offset="0.446563" stop-color="#EFC57B"/>
<stop offset="0.975811" stop-color="#E7AC4E"/>
</linearGradient>
<clipPath id="clip0_561_110">
<rect width="80" height="80" fill="white"/>
</clipPath>
</defs>
</svg>
