<svg width="80" height="80" viewBox="0 0 80 80" fill="none" xmlns="http://www.w3.org/2000/svg">
<g clip-path="url(#clip0_561_143)">
<path d="M0 36.7163C0.359928 36.9083 0.735853 37.0763 1.08778 37.2922C4.0152 39.1081 6.93461 40.9319 9.85403 42.7557C11.9416 44.0596 14.0372 45.3634 16.1328 46.6673C19.1882 48.5631 22.2516 50.4509 25.3149 52.3467C27.3465 53.6026 29.3701 54.8665 31.4017 56.1224C31.8016 56.3703 31.8016 56.4423 31.4017 56.6903C27.6825 59.0021 23.9632 61.3138 20.244 63.6256C18.9482 64.4335 17.6605 65.2574 16.3727 66.0733C15.061 66.9053 14.765 68.4411 15.7409 69.617C16.4927 70.5129 17.6285 70.7929 18.7882 70.0809C21.8036 68.2251 24.795 66.3293 27.7944 64.4495C30.3379 62.8577 32.8894 61.2898 35.4089 59.666C36.0248 59.266 36.4727 59.178 37.0806 59.658C37.6485 60.106 38.3043 60.4419 38.9442 60.7939C39.7521 61.2498 40.5439 61.1378 41.3117 60.6739C42.0556 60.2179 42.7914 59.754 43.5433 59.322C43.6553 59.258 43.8712 59.266 43.9832 59.33C45.7269 60.4019 47.4625 61.4818 49.1982 62.5697C51.5017 64.0016 53.7972 65.4414 56.0928 66.8813C57.7964 67.9452 59.5001 69.0011 61.1958 70.0729C62.0356 70.6009 62.8994 70.6409 63.7233 70.1209C64.4831 69.641 64.883 68.9051 64.827 67.9772C64.7711 67.1532 64.3551 66.5293 63.6673 66.0974C61.3797 64.6575 59.0842 63.2336 56.7886 61.8018C54.4851 60.3619 52.1736 58.9221 49.87 57.4822C49.4141 57.2022 48.9822 56.8903 48.5263 56.6183C48.2464 56.4583 48.2304 56.3783 48.5183 56.2023C49.766 55.4424 51.0058 54.6745 52.2536 53.8986C54.1972 52.6827 56.1408 51.4588 58.0844 50.2509C61.7477 47.9712 65.4189 45.6994 69.0902 43.4196C72.0496 41.5798 75.009 39.724 77.9684 37.8762C78.5443 37.5162 79.1202 37.1483 79.7041 36.7883C79.784 36.7403 79.904 36.7403 80 36.7243C80 50.5629 80 64.4015 80 78.2401C79.952 78.2801 79.872 78.3041 79.864 78.3521C79.6961 79.0001 79.2881 79.432 78.7123 79.728C78.5523 79.808 78.4003 79.912 78.2484 79.9999C52.7575 79.9999 27.2745 79.9999 1.78364 79.9999C1.74365 79.952 1.71966 79.872 1.67167 79.864C1.0078 79.696 0.575885 79.264 0.263947 78.6801C0.183963 78.5361 0.103979 78.3841 0.0159966 78.2401C-2.4433e-07 64.3935 0 50.5549 0 36.7163Z" fill="url(#paint0_linear_561_143)"/>
<path d="M51.7496 0C51.7336 0.19998 51.7096 0.391961 51.7096 0.59194C51.7096 16.4303 51.7096 32.2688 51.7176 48.1072C51.7176 48.5151 51.5976 48.7471 51.2457 48.9631C49.9819 49.723 48.7342 50.5149 47.4784 51.2988C47.3585 51.3788 47.2305 51.4428 47.0225 51.5708C47.0225 51.3308 47.0225 51.1549 47.0225 50.9789C47.0225 39.58 47.0225 28.1812 47.0225 16.7823C47.0225 15.9344 46.7826 15.2145 46.1107 14.6545C45.7188 14.3266 45.2789 14.2226 44.783 14.2226C43.7512 14.2226 42.9833 13.7586 42.5514 12.8227C42.3995 12.4947 42.3435 12.1108 42.3275 11.7508C42.2795 10.6789 41.7276 9.935 40.6878 9.67103C40.3599 9.59104 40.0159 9.52704 39.68 9.52704C36.6966 9.51904 33.7052 9.51904 30.7218 9.51904C30.0659 9.51904 29.49 9.72702 28.9861 10.151C28.4742 10.5829 28.2583 11.1269 28.2583 11.7908C28.2583 12.6227 27.9623 13.3347 27.2265 13.7746C26.8666 13.9906 26.4106 14.2306 26.0347 14.1906C24.603 14.0386 23.5712 15.3505 23.5712 16.7743C23.5952 26.2294 23.5792 35.6764 23.5792 45.1315C23.5792 45.2914 23.5792 45.4434 23.5792 45.6594C23.4352 45.5954 23.3393 45.5634 23.2513 45.5154C21.8836 44.6675 20.5158 43.8036 19.1401 42.9637C18.9082 42.8197 18.8842 42.6357 18.8842 42.3957C18.8842 35.5564 18.8842 28.7171 18.8842 21.8778C18.8842 15.4384 18.8842 8.99909 18.8842 2.55974C18.8842 1.51185 19.2921 0.727927 20.2279 0.231977C20.3639 0.159984 20.4918 0.079992 20.6278 0C31.0017 0 41.3757 0 51.7496 0Z" fill="url(#paint1_linear_561_143)"/>
<path d="M59.3481 0C59.3801 0.0479952 59.4041 0.127987 59.4441 0.135986C60.4359 0.383961 61.0197 1.31187 61.0757 2.23178C61.0917 2.43176 61.0837 2.63174 61.0837 2.83172C61.0837 15.9024 61.0837 28.9811 61.0917 42.0518C61.0917 42.5717 61.0037 42.8917 60.4919 43.1797C59.1881 43.9076 57.9484 44.7555 56.6846 45.5474C56.6206 45.5874 56.5406 45.5954 56.3967 45.6354C56.3967 45.4274 56.3967 45.2595 56.3967 45.0995C56.3967 30.237 56.3967 15.3825 56.3967 0.519948C56.3967 0.343965 56.3967 0.175982 56.3887 0C57.3725 0 58.3563 0 59.3481 0Z" fill="url(#paint2_linear_561_143)"/>
<path d="M42.3196 35.3004C42.3356 39.1401 39.1443 42.3557 35.297 42.3237C31.3858 42.2837 28.2984 39.268 28.2904 35.3244C28.2824 31.3888 31.3378 28.3091 35.297 28.3011C39.2322 28.3011 42.2476 31.3728 42.3196 35.3004Z" fill="url(#paint3_linear_561_143)"/>
<path d="M42.2876 25.9653C40.16 24.4695 37.8805 23.5896 35.305 23.5976C32.7295 23.5976 30.442 24.4615 28.2904 25.9893C28.2824 25.7654 28.2664 25.6134 28.2664 25.4694C28.2664 23.3096 28.2744 21.1498 28.2584 18.99C28.2584 18.6221 28.3704 18.4461 28.6983 18.3101C30.282 17.6462 31.4818 16.5503 32.1856 14.9904C32.4816 14.3425 32.8255 14.1905 33.4814 14.2145C34.8811 14.2705 36.2808 14.2385 37.6805 14.2225C37.9445 14.2225 38.0725 14.2945 38.1844 14.5505C38.9363 16.3423 40.224 17.6142 42.0157 18.3821C42.1996 18.4621 42.3276 18.5261 42.3276 18.7661C42.3196 21.0858 42.3196 23.4056 42.3196 25.7254C42.3196 25.7814 42.3036 25.8374 42.2876 25.9653Z" fill="url(#paint4_linear_561_143)"/>
<path d="M28.2984 44.6595C32.9695 47.8272 37.6166 47.8272 42.2957 44.6675C42.3116 44.8515 42.3276 44.9795 42.3276 45.0995C42.3276 48.1072 42.3276 51.1229 42.3356 54.1306C42.3356 54.4186 42.2477 54.5865 41.9917 54.7305C41.3918 55.0745 40.8239 55.4585 40.2241 55.8024C40.1041 55.8744 39.8721 55.8744 39.7522 55.8024C36.7688 53.9626 33.7933 52.1068 30.8099 50.259C30.0741 49.803 29.3382 49.3311 28.5944 48.8751C28.3624 48.7311 28.2505 48.5632 28.2585 48.2672C28.2825 47.2113 28.2665 46.1634 28.2665 45.1075C28.2745 44.9795 28.2825 44.8515 28.2984 44.6595Z" fill="url(#paint5_linear_561_143)"/>
<path d="M14.1891 25.2375C14.1891 30.1571 14.1891 34.9806 14.1891 39.8601C10.2459 37.4283 6.3507 35.0206 2.34351 32.5488C6.31071 30.1011 10.2139 27.6933 14.1891 25.2375Z" fill="url(#paint6_linear_561_143)"/>
<path d="M65.7788 39.86C65.7788 34.9645 65.7788 30.149 65.7788 25.2295C69.746 27.6772 73.6492 30.085 77.6324 32.5408C73.6412 35.0045 69.738 37.4203 65.7788 39.86Z" fill="url(#paint7_linear_561_143)"/>
</g>
<defs>
<linearGradient id="paint0_linear_561_143" x1="3.01309e-06" y1="79.9999" x2="57.5633" y2="-0.380156" gradientUnits="userSpaceOnUse">
<stop stop-color="#E5A440"/>
<stop offset="0.446563" stop-color="#EFC57B"/>
<stop offset="0.975811" stop-color="#E7AC4E"/>
</linearGradient>
<linearGradient id="paint1_linear_561_143" x1="18.8842" y1="51.5708" x2="75.5149" y2="24.3046" gradientUnits="userSpaceOnUse">
<stop stop-color="#E5A440"/>
<stop offset="0.446563" stop-color="#EFC57B"/>
<stop offset="0.975811" stop-color="#E7AC4E"/>
</linearGradient>
<linearGradient id="paint2_linear_561_143" x1="56.3887" y1="45.6354" x2="66.311" y2="44.8629" gradientUnits="userSpaceOnUse">
<stop stop-color="#E5A440"/>
<stop offset="0.446563" stop-color="#EFC57B"/>
<stop offset="0.975811" stop-color="#E7AC4E"/>
</linearGradient>
<linearGradient id="paint3_linear_561_143" x1="28.2904" y1="42.324" x2="47.2414" y2="27.9999" gradientUnits="userSpaceOnUse">
<stop stop-color="#E5A440"/>
<stop offset="0.446563" stop-color="#EFC57B"/>
<stop offset="0.975811" stop-color="#E7AC4E"/>
</linearGradient>
<linearGradient id="paint4_linear_561_143" x1="28.2584" y1="25.9893" x2="44.7155" y2="11.1362" gradientUnits="userSpaceOnUse">
<stop stop-color="#E5A440"/>
<stop offset="0.446563" stop-color="#EFC57B"/>
<stop offset="0.975811" stop-color="#E7AC4E"/>
</linearGradient>
<linearGradient id="paint5_linear_561_143" x1="28.2581" y1="55.8564" x2="43.9658" y2="40.9359" gradientUnits="userSpaceOnUse">
<stop stop-color="#E5A440"/>
<stop offset="0.446563" stop-color="#EFC57B"/>
<stop offset="0.975811" stop-color="#E7AC4E"/>
</linearGradient>
<linearGradient id="paint6_linear_561_143" x1="2.34351" y1="39.8601" x2="20.6349" y2="28.6652" gradientUnits="userSpaceOnUse">
<stop stop-color="#E5A440"/>
<stop offset="0.446563" stop-color="#EFC57B"/>
<stop offset="0.975811" stop-color="#E7AC4E"/>
</linearGradient>
<linearGradient id="paint7_linear_561_143" x1="65.7788" y1="39.86" x2="84.0813" y2="28.6569" gradientUnits="userSpaceOnUse">
<stop stop-color="#E5A440"/>
<stop offset="0.446563" stop-color="#EFC57B"/>
<stop offset="0.975811" stop-color="#E7AC4E"/>
</linearGradient>
<clipPath id="clip0_561_143">
<rect width="80" height="80" fill="white"/>
</clipPath>
</defs>
</svg>
