<svg width="80" height="80" viewBox="0 0 80 80" fill="none" xmlns="http://www.w3.org/2000/svg">
<path d="M42.8528 80C41.2797 80 39.7066 80 38.1335 80C38.0374 79.952 37.95 79.88 37.8451 79.864C36.7964 79.744 35.7476 79.672 34.6989 79.528C33.7201 79.392 32.7325 79.24 31.7712 79.008C29.6475 78.496 27.5763 77.84 25.5837 76.984C22.8745 75.824 20.3575 74.384 18.0416 72.64C15.6557 70.848 13.5495 68.808 11.7404 66.512C9.17977 63.272 7.33576 59.704 6.19963 55.84C5.51796 53.52 5.16838 51.144 5.04603 48.744C4.92367 46.264 5.03729 43.792 5.483 41.336C5.86753 39.168 6.3919 37.04 7.17845 34.976C7.71155 33.568 8.26214 32.16 8.87389 30.784C10.4732 27.2 12.527 23.848 14.9565 20.688C17.0627 17.944 19.4311 15.4 22.2452 13.224C23.3376 12.376 24.4301 12.328 25.5312 12.976C26.4227 13.504 26.6149 14.336 26.6674 15.224C26.7985 17.416 29.1931 18.016 30.7399 17.248C31.6488 16.8 32.2781 16.072 32.8024 15.288C33.8599 13.712 34.8649 12.104 35.8787 10.504C37.1722 8.448 38.5006 6.416 40.2747 4.656C42.7916 2.152 45.7718 0.496 49.521 0.136C49.5996 0.128 49.6783 0.048 49.7569 0C50.5435 0 51.33 0 52.1166 0C52.169 0.048 52.2215 0.128 52.2914 0.144C53.2614 0.36 53.9781 1.4 53.9956 2.088C54.013 2.712 53.8382 3.256 53.5586 3.8C52.2826 6.28 52.3001 8.736 53.7421 11.184C54.8083 12.992 56.2066 14.568 57.7011 16.08C60.3579 18.76 63.0671 21.384 65.7064 24.072C67.5854 25.984 69.2459 28.064 70.7053 30.264C72.5756 33.088 74.0088 36.096 74.8915 39.312C75.5382 41.656 75.8791 44.04 75.9752 46.448C76.0626 48.552 75.9228 50.656 75.4945 52.728C75.1887 54.176 74.8566 55.616 74.4196 57.032C73.8865 58.736 73.1262 60.376 72.261 61.968C71.0549 64.176 69.5954 66.232 67.8825 68.136C66.0385 70.184 63.9498 72.008 61.6163 73.6C59.6674 74.928 57.5962 76.072 55.3939 77C53.043 77.992 50.6047 78.768 48.0527 79.24C46.4884 79.528 44.9328 79.808 43.3422 79.856C43.1587 79.872 43.0014 79.952 42.8528 80ZM40.5019 25.176C40.5019 25.208 40.4931 25.248 40.4931 25.28C38.5879 25.208 36.709 25.432 34.865 25.808C33.3006 26.12 31.7887 26.592 30.3117 27.168C27.1743 28.408 24.4563 30.176 22.1753 32.496C20.812 33.888 19.6846 35.432 18.7669 37.12C18.0853 38.384 17.4822 39.672 17.1064 41.032C16.7219 42.408 16.451 43.816 16.2238 45.216C15.8567 47.488 15.9878 49.76 16.4859 52.008C17.0715 54.664 18.1552 57.144 19.7457 59.44C22.2452 63.048 25.5837 65.808 29.7699 67.688C31.7625 68.584 33.8424 69.264 36.0535 69.552C37.2945 69.712 38.5442 69.888 39.794 69.968C40.5805 70.016 41.3846 69.896 42.1798 69.872C43.9103 69.832 45.5795 69.504 47.2487 69.08C49.5297 68.504 51.6447 67.608 53.6372 66.448C55.6648 65.272 57.4651 63.848 59.0295 62.184C60.891 60.208 62.3767 58.024 63.3555 55.576C63.8798 54.248 64.2906 52.864 64.5703 51.48C64.8412 50.168 65.016 48.808 64.981 47.48C64.9373 45.984 64.6489 44.496 64.3867 43.016C63.9323 40.504 62.936 38.152 61.5464 35.952C59.8597 33.272 57.6049 31.056 54.8345 29.28C51.9505 27.432 48.7519 26.264 45.3086 25.664C43.7267 25.376 42.1099 25.328 40.5019 25.176Z" fill="url(#paint0_linear_561_117)"/>
<path d="M38.0533 30.0253C38.0533 30.9094 38.0533 31.7178 38.0533 32.5346C38.0617 33.8314 38.8029 34.7576 40.0662 35.0523C41.4138 35.3723 42.913 34.2355 42.9552 32.8462C42.9804 32.0715 42.9636 31.3052 42.9636 30.5305C42.9636 30.3789 42.9636 30.2274 42.9636 30C43.5279 30.0842 44.0585 30.1095 44.5554 30.2442C45.5577 30.5221 46.5431 30.8336 47.5201 31.1957C48.9435 31.7262 50.2406 32.5178 51.4871 33.3682C51.7651 33.5619 51.7735 33.7219 51.5629 34.0335C50.628 35.406 51.3103 37.368 53.0537 37.8059C53.8202 37.9995 54.4603 37.7806 55.0583 37.3848C55.3278 37.1996 55.4373 37.2838 55.5889 37.4859C56.5659 38.8753 57.3913 40.3405 57.9809 41.9404C58.4188 43.1445 58.7642 44.3571 58.9495 45.6202C58.9663 45.7296 58.9495 45.8391 58.9495 46.0159C58.621 46.0159 58.3178 46.0075 58.0146 46.0159C57.2734 46.0412 56.5322 46.0412 55.791 46.117C54.8477 46.218 53.9886 47.2538 53.9465 48.2642C53.8875 49.561 54.5361 50.462 55.69 50.8662C55.8163 50.9083 55.9679 50.9167 56.1027 50.9167C56.886 50.9251 57.6777 50.9251 58.461 50.9251C58.6126 50.9251 58.7642 50.9251 59 50.9251C58.9074 51.523 58.8568 52.0619 58.7305 52.584C58.3936 53.9902 57.964 55.3796 57.265 56.6595C56.7175 57.6532 56.0858 58.6047 55.4962 59.5815C55.3783 59.7751 55.2857 59.7752 55.1004 59.6573C53.677 58.7478 52.0514 59.3878 51.4282 60.7856C51.0997 61.5266 51.2092 62.2424 51.5798 62.9329C51.6472 63.0508 51.7145 63.1686 51.7988 63.3202C49.1878 65.3075 46.282 66.52 42.9888 66.9747C42.972 66.7979 42.9552 66.6548 42.9467 66.5116C42.9467 65.7706 42.9383 65.0212 42.9467 64.2802C42.9636 63.1771 42.0876 62.1245 41.0432 61.9477C39.5272 61.6866 38.5081 62.4866 38.1796 63.5897C38.0954 63.876 38.0533 64.1875 38.0448 64.4907C38.028 65.299 38.0364 66.1074 38.0364 67C37.43 66.8905 36.8825 66.8063 36.3435 66.68C33.842 66.1158 31.5679 65.0548 29.4876 63.556C29.2433 63.3792 29.2097 63.236 29.3613 62.975C30.0519 61.855 29.8076 60.853 29.0412 60.0109C28.2579 59.1436 27.0366 58.992 26.0175 59.5983C25.7396 59.7583 25.6132 59.7667 25.4195 59.4973C24.4341 58.1163 23.575 56.6595 23.0444 55.0428C22.6906 53.9565 22.3959 52.845 22.0926 51.7419C22.0253 51.5061 22.0505 51.2451 22.0253 50.9251C22.2021 50.9251 22.3369 50.9251 22.4717 50.9251C23.1876 50.9251 23.9035 50.9083 24.6194 50.9251C26.0007 50.9588 27.0956 49.8305 27.104 48.5C27.104 47.1527 26.1186 46.0665 24.6615 46.0159C23.9624 45.9907 23.255 46.0075 22.5559 46.0075C22.4043 46.0075 22.2527 46.0075 22 46.0075C22.0926 45.4349 22.1263 44.9044 22.2695 44.4076C22.5559 43.4056 22.8507 42.3951 23.2213 41.4267C23.7771 39.9868 24.552 38.6564 25.4701 37.4101C25.6301 37.1912 25.7901 37.2249 25.967 37.3343C27.382 38.2774 28.9486 37.4943 29.5634 36.1975C29.9171 35.4481 29.8076 34.6903 29.3865 34.0166C29.1844 33.6966 29.2602 33.5535 29.5044 33.3851C31.1974 32.2062 32.9913 31.2294 34.9875 30.6736C35.7876 30.4463 36.5878 30.2526 37.3963 30.0589C37.6069 30.0168 37.809 30.0337 38.0533 30.0253ZM40.4958 50.9251C41.2117 50.9756 41.8097 50.6809 42.2898 50.201C44.4796 48.0284 46.6611 45.8475 48.8341 43.6666C49.5331 42.9677 49.7774 42.0919 49.4657 41.1573C48.8762 39.3553 46.7537 38.8248 45.3977 40.1468C43.8816 41.612 42.4077 43.1193 40.9169 44.6097C40.5295 44.997 40.5295 44.997 40.142 44.6181C39.5609 44.0455 38.9882 43.4645 38.407 42.8919C37.9438 42.4372 37.4216 42.1088 36.7562 42.0667C35.695 42.0077 34.718 42.5972 34.2884 43.5487C33.8926 44.416 34.0694 45.5191 34.7938 46.2517C36.0908 47.5737 37.3963 48.8789 38.7186 50.1757C39.2071 50.6557 39.7799 50.9756 40.4958 50.9251Z" fill="url(#paint1_linear_561_117)"/>
<defs>
<linearGradient id="paint0_linear_561_117" x1="5" y1="80" x2="108.962" y2="10.2926" gradientUnits="userSpaceOnUse">
<stop stop-color="#E5A440"/>
<stop offset="0.446563" stop-color="#EFC57B"/>
<stop offset="0.975811" stop-color="#E7AC4E"/>
</linearGradient>
<linearGradient id="paint1_linear_561_117" x1="22" y1="67" x2="71.9969" y2="29.2271" gradientUnits="userSpaceOnUse">
<stop stop-color="#E5A440"/>
<stop offset="0.446563" stop-color="#EFC57B"/>
<stop offset="0.975811" stop-color="#E7AC4E"/>
</linearGradient>
</defs>
</svg>
