<svg width="80" height="80" viewBox="0 0 80 80" fill="none" xmlns="http://www.w3.org/2000/svg">
<g clip-path="url(#clip0_561_122)">
<path d="M0 50.8029C0.080008 50.6589 0.176018 50.5149 0.248025 50.3629C0.584059 49.675 1.19212 49.347 1.84819 49.051C3.49635 48.3071 5.13651 47.5552 6.78468 46.8113C9.0249 45.7954 11.2491 44.7475 13.5134 43.7956C14.6975 43.2996 15.9616 43.0036 17.2577 42.9396C17.9858 42.9076 18.7219 42.7877 19.4419 42.8357C20.37 42.8996 21.2981 43.0756 22.2182 43.2516C24.2504 43.6276 26.0426 44.6435 27.9068 45.4674C30.467 46.6033 33.0193 47.7392 35.5556 48.915C37.6598 49.891 39.2359 51.4428 40.308 53.4906C41.2441 55.2824 41.5962 57.2102 41.3801 59.202C41.1321 61.5698 38.7079 62.7857 36.7477 61.9218C33.4993 60.4819 30.267 59.01 27.0267 57.5542C26.2426 57.2022 25.4585 56.8343 24.6585 56.5383C23.4103 56.0743 22.1862 56.5303 21.6182 57.7622C21.1141 58.8501 21.6262 60.2659 22.7703 60.7859C24.5065 61.5858 26.2586 62.3537 28.0028 63.1376C29.763 63.9296 31.5232 64.7375 33.2913 65.5214C34.2514 65.9454 35.2035 66.4093 36.2036 66.6813C37.2357 66.9613 38.3158 66.9693 39.3959 66.7693C40.6681 66.5373 41.8122 66.0573 42.8363 65.2974C44.3084 64.2015 45.3165 62.7777 45.7966 60.9859C46.2126 59.426 46.1326 57.8582 45.9726 56.2743C45.8446 54.9464 45.4765 53.6746 45.0045 52.3707C45.7166 52.1547 46.4046 51.9467 47.1007 51.7388C48.4608 51.3308 49.813 50.9228 51.1731 50.5229C52.3412 50.1789 53.5174 49.859 54.6855 49.515C56.5257 48.971 58.3658 48.4111 60.206 47.8672C61.5422 47.4752 62.8863 47.1072 64.2224 46.7153C65.3665 46.3793 66.5026 46.0033 67.6468 45.6754C69.1349 45.2514 70.6471 45.1474 72.1832 45.4274C74.3434 45.8274 76.1356 46.8593 77.5918 48.4751C78.4959 49.475 79.1759 50.6189 79.536 51.9307C79.664 52.4107 79.752 52.9067 79.864 53.3946C79.88 53.4746 79.952 53.5386 80 53.6106C80 54.4105 80 55.2104 80 56.0103C79.952 56.0823 79.88 56.1463 79.864 56.2263C79.696 56.8583 79.576 57.5062 79.3679 58.1221C78.7519 59.922 77.6398 61.3778 76.1036 62.4737C75.1515 63.1536 74.1194 63.7216 73.1113 64.3135C68.7509 66.8893 64.3744 69.457 60.014 72.0328C56.9897 73.8166 53.9574 75.5764 50.9491 77.3762C48.8289 78.6481 46.6287 79.648 44.1324 79.864C44.0604 79.872 43.9964 79.952 43.9244 80C42.9083 80 41.9002 80 40.8841 80C40.7321 79.952 40.5801 79.888 40.42 79.848C39.556 79.664 38.6759 79.544 37.8358 79.288C36.6837 78.9441 35.5556 78.5041 34.4194 78.1121C33.0273 77.6322 31.6272 77.1602 30.243 76.6723C29.2669 76.3283 28.3068 75.9524 27.3307 75.6164C25.9386 75.1284 24.5465 74.6725 23.1543 74.1845C21.8742 73.7366 20.6021 73.2566 19.3139 72.8167C19.0819 72.7367 18.7859 72.6807 18.5699 72.7527C17.2817 73.2166 16.0096 73.7206 14.7295 74.2085C12.4732 75.0565 10.209 75.8964 7.9608 76.7443C6.42464 77.3282 4.88849 77.9362 3.35233 78.5201C2.13621 78.9841 1.08011 78.6721 0.40004 77.6802C0.248025 77.4562 0.128013 77.1922 0 76.9523C0 68.2411 0 59.522 0 50.8029Z" fill="url(#paint0_linear_561_122)"/>
<path d="M55.2055 0.00799924C55.2055 1.20788 55.1415 2.40776 55.2295 3.59964C55.4055 5.94341 56.1976 8.0872 57.5177 10.031C59.2059 12.5268 61.4621 14.3026 64.3104 15.3185C65.8225 15.8624 67.3827 16.1264 68.9989 16.0944C69.6789 16.0784 70.359 16.0944 71.0711 16.0944C71.0791 16.2304 71.0951 16.3424 71.0951 16.4624C71.0951 17.9822 71.0871 19.5021 71.1031 21.0219C71.1111 21.3739 70.9831 21.4299 70.663 21.4379C69.4549 21.4539 68.2308 21.4379 67.0307 21.5579C64.6864 21.7818 62.5822 22.6857 60.694 24.0776C58.6138 25.6055 57.0857 27.5813 56.1176 29.965C55.4375 31.6289 55.1255 33.3727 55.1575 35.1805C55.1735 35.9004 55.1575 36.6124 55.1575 37.3483C45.0285 37.3483 34.9555 37.3483 24.8344 37.3483C24.8344 37.1723 24.8424 37.0123 24.8344 36.8603C24.7944 35.6525 24.8024 34.4366 24.6984 33.2287C24.5624 31.6929 24.0584 30.245 23.3623 28.8691C22.4982 27.1573 21.3061 25.7014 19.8259 24.4856C18.6018 23.4777 17.2417 22.7257 15.7455 22.1898C14.0894 21.6059 12.3932 21.3899 10.641 21.4219C10.017 21.4379 9.4009 21.3899 8.77684 21.3659C8.76083 20.7419 8.73683 20.118 8.73683 19.4941C8.72883 18.5182 8.73683 17.5503 8.73683 16.5744C8.73683 16.4304 8.73683 16.2864 8.73683 16.0864C9.15287 16.0864 9.53691 16.1024 9.92095 16.0864C11.1291 16.0304 12.3532 16.0624 13.5453 15.8864C15.2735 15.6304 16.8976 14.9825 18.3698 14.0306C20.706 12.5268 22.4662 10.519 23.6183 7.97521C24.4584 6.11939 24.8584 4.18358 24.8424 2.15179C24.8344 1.43186 24.8184 0.719929 24.8024 0C34.9395 0.00799921 45.0685 0.00799924 55.2055 0.00799924ZM40.012 10.167C35.2835 10.159 31.4271 14.0226 31.4191 18.7341C31.4111 23.4937 35.2835 27.3413 39.996 27.3493C44.7324 27.3573 48.5888 23.5097 48.5968 18.7581C48.5968 14.0386 44.7484 10.167 40.012 10.167Z" fill="url(#paint1_linear_561_122)"/>
<path d="M20.162 0.00799924C20.162 0.847916 20.178 1.68783 20.162 2.52775C20.0819 6.0554 17.8737 9.47106 14.3774 10.8149C13.3133 11.2229 12.2172 11.4389 11.073 11.4229C10.409 11.4149 9.74492 11.4149 9.07285 11.4229C8.84083 11.4229 8.73682 11.3669 8.73682 11.1109C8.74482 8.14319 8.72081 5.16749 8.76082 2.19978C8.76882 1.29587 9.37688 0.439956 10.345 0.143986C10.401 0.127987 10.433 0.0479952 10.481 0C13.7053 0.00799921 16.9376 0.00799924 20.162 0.00799924Z" fill="url(#paint2_linear_561_122)"/>
<path d="M69.3669 0.00799924C69.3989 0.0559945 69.4229 0.135986 69.4629 0.143986C70.463 0.375963 71.111 1.43986 71.103 2.35977C71.103 5.24748 71.095 8.14319 71.111 11.0309C71.111 11.3589 70.999 11.4309 70.695 11.4229C69.9509 11.4069 69.1988 11.4469 68.4548 11.4069C66.0065 11.2709 63.9423 10.295 62.2702 8.49516C61.3021 7.45526 60.622 6.23938 60.214 4.88751C60.0139 4.21558 59.9099 3.49565 59.8699 2.79972C59.8139 1.87181 59.8539 0.935907 59.8459 0C63.0222 0.00799921 66.1906 0.00799924 69.3669 0.00799924Z" fill="url(#paint3_linear_561_122)"/>
<path d="M20.162 37.3482C19.986 37.3482 19.85 37.3482 19.722 37.3482C16.8977 37.3482 14.0734 37.3322 11.2491 37.3562C9.82497 37.3722 8.72086 36.2523 8.73687 34.8445C8.76087 32.0768 8.74486 29.301 8.74486 26.5333C8.74486 26.4053 8.74486 26.2693 8.74486 26.0854C9.56095 26.0854 10.345 26.0694 11.1211 26.0854C14.6815 26.1653 17.3697 27.7252 19.1059 30.8449C19.594 31.7168 19.938 32.6527 20.01 33.6686C20.058 34.2765 20.122 34.8765 20.146 35.4844C20.178 36.0924 20.162 36.6843 20.162 37.3482Z" fill="url(#paint4_linear_561_122)"/>
<path d="M59.862 37.3484C59.862 36.2365 59.75 35.1726 59.886 34.1407C60.318 30.797 62.0382 28.3173 65.1345 26.8934C65.8466 26.5654 66.6386 26.3495 67.4227 26.2535C68.6148 26.1015 69.831 26.0935 71.0791 26.0215C71.0871 26.2455 71.1031 26.3894 71.1031 26.5254C71.1031 29.3092 71.0871 32.0929 71.1111 34.8766C71.1191 36.2525 70.039 37.3564 68.6468 37.3484C65.8466 37.3324 63.0543 37.3404 60.254 37.3404C60.134 37.3484 60.014 37.3484 59.862 37.3484Z" fill="url(#paint5_linear_561_122)"/>
<path d="M43.9162 18.742C43.9002 20.9098 42.164 22.6616 39.9958 22.6616C37.8756 22.6616 36.0914 20.9418 36.0914 18.766C36.0914 16.5742 37.8596 14.8464 40.0118 14.8544C42.188 14.8544 43.8842 16.5982 43.9162 18.742Z" fill="url(#paint6_linear_561_122)"/>
</g>
<defs>
<linearGradient id="paint0_linear_561_122" x1="3.01309e-06" y1="80" x2="46.6078" y2="4.22453" gradientUnits="userSpaceOnUse">
<stop stop-color="#E5A440"/>
<stop offset="0.446563" stop-color="#EFC57B"/>
<stop offset="0.975811" stop-color="#E7AC4E"/>
</linearGradient>
<linearGradient id="paint1_linear_561_122" x1="8.73328" y1="37.3483" x2="59.8115" y2="-27.0951" gradientUnits="userSpaceOnUse">
<stop stop-color="#E5A440"/>
<stop offset="0.446563" stop-color="#EFC57B"/>
<stop offset="0.975811" stop-color="#E7AC4E"/>
</linearGradient>
<linearGradient id="paint2_linear_561_122" x1="8.73682" y1="11.4237" x2="24.1764" y2="-0.249748" gradientUnits="userSpaceOnUse">
<stop stop-color="#E5A440"/>
<stop offset="0.446563" stop-color="#EFC57B"/>
<stop offset="0.975811" stop-color="#E7AC4E"/>
</linearGradient>
<linearGradient id="paint3_linear_561_122" x1="59.8395" y1="11.4253" x2="75.2198" y2="-0.0382199" gradientUnits="userSpaceOnUse">
<stop stop-color="#E5A440"/>
<stop offset="0.446563" stop-color="#EFC57B"/>
<stop offset="0.975811" stop-color="#E7AC4E"/>
</linearGradient>
<linearGradient id="paint4_linear_561_122" x1="8.73669" y1="37.3564" x2="24.0308" y2="25.6468" gradientUnits="userSpaceOnUse">
<stop stop-color="#E5A440"/>
<stop offset="0.446563" stop-color="#EFC57B"/>
<stop offset="0.975811" stop-color="#E7AC4E"/>
</linearGradient>
<linearGradient id="paint5_linear_561_122" x1="59.8186" y1="37.3484" x2="75.1115" y2="25.8296" gradientUnits="userSpaceOnUse">
<stop stop-color="#E5A440"/>
<stop offset="0.446563" stop-color="#EFC57B"/>
<stop offset="0.975811" stop-color="#E7AC4E"/>
</linearGradient>
<linearGradient id="paint6_linear_561_122" x1="36.0914" y1="22.6616" x2="46.6476" y2="14.6685" gradientUnits="userSpaceOnUse">
<stop stop-color="#E5A440"/>
<stop offset="0.446563" stop-color="#EFC57B"/>
<stop offset="0.975811" stop-color="#E7AC4E"/>
</linearGradient>
<clipPath id="clip0_561_122">
<rect width="80" height="80" fill="white"/>
</clipPath>
</defs>
</svg>
