<svg width="80" height="80" viewBox="0 0 80 80" fill="none" xmlns="http://www.w3.org/2000/svg">
<path d="M40.9744 1C42.9186 2.52411 44.7164 4.2358 46.8558 5.53325C48.4096 6.47116 50.0121 7.33873 51.7123 7.97964C53.2335 8.55802 54.8198 8.98008 56.4061 9.38651C58.7896 9.99616 61.2301 10.1525 63.6868 10.1525C65.2487 10.1525 66.8024 10.1837 68.3643 10.1447C69.8611 10.1056 71 11.2076 71 12.677C70.9756 22.2359 70.9919 31.8026 70.9593 41.3615C70.9512 42.6512 70.8048 43.9486 70.6339 45.2383C70.4875 46.3481 70.2679 47.4502 69.9913 48.5366C69.3812 50.9517 68.5189 53.2731 67.3963 55.5162C66.3794 57.5327 65.1836 59.4398 63.8088 61.2219C62.2876 63.1837 60.5711 64.997 58.7164 66.6852C55.7228 69.4052 52.4363 71.7421 49.0116 73.915C46.7257 75.3687 44.391 76.7443 42.0726 78.1512C41.7146 78.3701 41.3079 78.5108 40.9499 78.7296C40.2097 79.1829 39.5182 79.011 38.843 78.6202C37.1347 77.6197 35.4183 76.6271 33.7262 75.5876C31.9935 74.5246 30.2771 73.4382 28.5931 72.3205C25.9575 70.5619 23.4763 68.647 21.1579 66.5445C19.352 64.911 17.6925 63.1446 16.2201 61.2453C15.1463 59.8541 14.2189 58.3612 13.3241 56.8528C12.2421 55.0238 11.3636 53.0933 10.7616 51.0611C10.4037 49.8575 10.0783 48.646 9.80169 47.4267C9.58205 46.4341 9.46816 45.418 9.30547 44.4176C8.9394 42.1197 9.00448 39.8062 9.00448 37.4927C9.00448 29.2078 9.00448 20.9229 9.00448 12.6379C9.00448 11.6297 9.40308 10.8403 10.3793 10.4104C10.7209 10.2619 11.1195 10.1759 11.5019 10.1681C13.2509 10.1447 14.9998 10.1759 16.7488 10.1525C17.9284 10.1368 19.1161 10.1368 20.2793 9.97271C21.8819 9.74604 23.4682 9.43341 25.0382 9.05043C27.194 8.52676 29.2277 7.667 31.18 6.64311C32.7094 5.83807 34.1736 4.93142 35.5159 3.86845C36.5246 3.06341 37.4926 2.21147 38.4851 1.38298C38.6559 1.24229 38.843 1.12506 39.0139 1C39.6728 1 40.3236 1 40.9744 1ZM61.4416 39.9625C61.3846 28.6059 51.9808 19.3518 40.0226 19.3362C28.1864 19.3128 18.5792 28.4418 18.5629 39.9C18.5466 51.2878 28.04 60.5028 39.9575 60.5184C51.7774 60.5419 61.3277 51.4519 61.4416 39.9625Z" fill="url(#paint0_linear_561_155)"/>
<path d="M40.011 24C48.3106 24.039 55.0073 31.1822 55 40.0195C54.9927 48.8646 48.274 56.0156 39.9744 56C31.6748 55.9844 25 48.8177 25 39.9961C25 31.151 31.7187 24.0234 40.011 24ZM37.7275 49.1534C38.5545 49.1534 39.0815 48.8021 39.5572 48.2947C42.3676 45.2969 45.1781 42.2991 47.9885 39.2935C48.7643 38.466 49.5694 37.6541 50.2866 36.7719C50.8282 36.1005 50.8722 35.273 50.5062 34.4689C50.1476 33.6648 49.5182 33.2276 48.6911 33.1495C47.9812 33.0871 47.4103 33.4306 46.9273 33.9458C43.9998 37.0607 41.0795 40.1756 38.1666 43.3062C37.9251 43.5716 37.786 43.5638 37.5372 43.2983C36.0295 41.6745 34.5072 40.0663 32.9849 38.4581C32.253 37.6853 31.3089 37.5213 30.4452 37.9897C29.1059 38.7158 28.857 40.4801 29.9768 41.698C32.0554 43.9619 34.1705 46.1869 36.271 48.4274C36.7102 48.8802 37.2298 49.1612 37.7275 49.1534Z" fill="url(#paint1_linear_561_155)"/>
<defs>
<linearGradient id="paint0_linear_561_155" x1="9" y1="79" x2="105.718" y2="20.9179" gradientUnits="userSpaceOnUse">
<stop stop-color="#E5A440"/>
<stop offset="0.446563" stop-color="#EFC57B"/>
<stop offset="0.975811" stop-color="#E7AC4E"/>
</linearGradient>
<linearGradient id="paint1_linear_561_155" x1="25" y1="56" x2="67.4039" y2="25.9659" gradientUnits="userSpaceOnUse">
<stop stop-color="#E5A440"/>
<stop offset="0.446563" stop-color="#EFC57B"/>
<stop offset="0.975811" stop-color="#E7AC4E"/>
</linearGradient>
</defs>
</svg>
