<svg width="80" height="80" viewBox="0 0 80 80" fill="none" xmlns="http://www.w3.org/2000/svg">
<g clip-path="url(#clip0_561_134)">
<path d="M80 61.0419C79.896 61.3299 79.792 61.6179 79.696 61.9059C79.1121 63.5617 78.0162 64.7456 76.3524 65.2815C75.5444 65.5455 74.6725 65.5855 73.7526 65.7455C73.7526 65.7935 73.7526 65.9295 73.7526 66.0734C73.7526 67.2893 73.7446 68.4972 73.7526 69.7131C73.7686 72.2888 72.1448 74.4086 69.761 75.1046C69.3051 75.2405 68.8171 75.2965 68.3452 75.2965C62.8657 75.3125 57.3863 75.3045 51.9148 75.3045C51.7948 75.3045 51.6828 75.2885 51.5068 75.2725C51.7948 73.7287 51.8028 72.2088 51.4908 70.625C51.7228 70.625 51.8908 70.625 52.0588 70.625C57.3783 70.625 62.6977 70.617 68.0092 70.633C68.6571 70.633 69.0891 70.313 69.0651 69.5771C69.0251 68.2732 69.0491 66.9694 69.0491 65.6095C68.7851 65.6095 68.5451 65.6095 68.3132 65.6095C66.6493 65.6175 65.2655 64.9776 64.1696 63.7457C63.5296 63.0258 63.0657 62.1938 62.9457 61.2179C62.8817 60.706 62.8097 60.194 62.8097 59.6821C62.8017 54.4026 62.7937 49.1231 62.8097 43.8517C62.8177 42.1318 63.5376 40.716 64.8815 39.6361C65.8174 38.8841 66.8893 38.4602 68.0972 38.4522C70.297 38.4362 72.4968 38.4122 74.6965 38.4522C76.9043 38.4922 78.7521 39.804 79.648 41.9638C79.752 42.2118 79.776 42.4998 79.848 42.7638C79.872 42.8357 79.944 42.8917 79.992 42.9557C80 48.9871 80 55.0185 80 61.0419Z" fill="url(#paint0_linear_561_134)"/>
<path d="M42.1638 0.00799924C42.3078 0.0559945 42.4518 0.135986 42.5958 0.143986C44.1076 0.19998 45.5955 0.463954 47.0753 0.767924C49.2911 1.22388 51.4269 1.91181 53.4907 2.81572C55.7305 3.79162 57.8422 4.99951 59.818 6.43936C62.0338 8.0552 64.0336 9.90302 65.7935 12.0068C67.4333 13.9666 68.8411 16.0704 70.009 18.3422C70.9209 20.102 71.6649 21.9338 72.2488 23.8216C72.5368 24.7496 72.7448 25.7095 72.9687 26.6614C73.3367 28.2212 73.5687 29.7971 73.6247 31.3969C73.6567 32.1648 73.7367 32.9327 73.7927 33.7327C72.1848 33.7327 70.641 33.7327 69.0891 33.7327C68.8171 24.1096 64.9855 16.2464 57.2823 10.423C51.7229 6.22338 45.3555 4.35957 38.4042 4.75953C30.7409 5.19949 24.2056 8.22319 18.9181 13.7906C13.6307 19.3661 11.0549 26.0614 10.9189 33.7407C9.36708 33.7407 7.83124 33.7407 6.2074 33.7407C6.25539 32.9967 6.29539 32.2688 6.34338 31.5489C6.35138 31.4289 6.36738 31.3089 6.38338 31.1889C6.54336 29.973 6.67135 28.7492 6.85533 27.5413C7.24729 25.0295 8.03921 22.6378 9.04711 20.31C10.015 18.0782 11.2229 15.9824 12.6468 14.0066C14.2866 11.7428 16.1664 9.70304 18.3102 7.91922C20.246 6.28738 22.3258 4.90351 24.5656 3.75163C26.3254 2.85572 28.1332 2.0718 30.021 1.51985C31.2369 1.16788 32.4768 0.863915 33.7247 0.631937C34.9565 0.40796 36.2124 0.30397 37.4603 0.135987C37.5643 0.119988 37.6603 0.0479953 37.7642 0C39.2361 0.00799921 40.7 0.00799924 42.1638 0.00799924Z" fill="url(#paint1_linear_561_134)"/>
<path d="M0.00799923 42.9637C0.111989 42.6998 0.215978 42.4278 0.311969 42.1638C0.895911 40.476 2.0318 39.3241 3.71163 38.7642C4.32757 38.5562 5.0155 38.4762 5.66343 38.4602C7.60724 38.4202 9.55105 38.4522 11.5029 38.4442C13.8546 38.4362 15.6064 39.4761 16.6463 41.5719C16.9583 42.1878 17.1663 42.9317 17.1663 43.6117C17.2063 49.2191 17.2303 54.8346 17.1663 60.442C17.1423 62.5138 15.7584 64.5456 13.5506 65.2815C12.8947 65.4975 12.1748 65.5855 11.4789 65.6015C9.47905 65.6415 7.47925 65.6095 5.47945 65.6175C3.20768 65.6255 1.22388 64.2576 0.343966 62.0978C0.239976 61.8419 0.215979 61.5619 0.143986 61.2979C0.119988 61.2019 0.0479952 61.1299 0 61.0419C0.0079992 55.0185 0.00799923 48.9871 0.00799923 42.9637Z" fill="url(#paint2_linear_561_134)"/>
<path d="M39.0441 80C38.7562 79.904 38.4682 79.8 38.1722 79.72C36.2524 79.2321 34.8525 78.0722 33.8766 76.3764C33.4847 75.6964 33.1887 74.9685 33.1167 74.1766C33.0687 73.6486 32.9647 73.1207 32.9967 72.6007C33.1247 70.465 34.0446 68.7051 35.7325 67.3933C37.1243 66.3134 38.7322 65.8174 40.484 65.9534C42.5958 66.1134 44.3236 67.0413 45.6115 68.7451C46.6354 70.097 47.1233 71.6328 47.0193 73.3127C46.8913 75.4405 45.9714 77.1923 44.2916 78.5282C43.5157 79.1441 42.6358 79.5201 41.6999 79.808C41.4599 79.88 41.2119 79.936 40.9639 80C40.324 80 39.6841 80 39.0441 80Z" fill="url(#paint3_linear_561_134)"/>
<path d="M55.1465 40.516C55.1465 41.8198 55.1545 43.1237 55.1465 44.4276C55.1465 45.2035 54.8505 45.8594 54.2506 46.3474C53.5307 46.9313 52.6908 47.0673 51.8508 46.6834C51.0269 46.3074 50.491 45.6435 50.475 44.6916C50.459 43.4357 50.475 42.1878 50.475 40.9319C50.475 40.7879 50.475 40.644 50.475 40.46C50.275 40.46 50.115 40.46 49.963 40.46C47.3073 40.46 44.6596 40.484 42.0038 40.452C40.492 40.436 39.4281 39.2841 39.5641 37.8842C39.6201 37.3163 39.948 36.7563 40.236 36.2444C42.0118 33.0527 43.7956 29.861 45.6195 26.7013C46.5234 25.1255 47.4753 23.5736 48.4912 22.0618C49.1391 21.1019 50.091 20.47 51.2749 20.342C52.9147 20.166 54.2666 21.1819 54.8185 22.5897C55.0265 23.1337 55.1625 23.7496 55.1705 24.3336C55.2025 27.9412 55.1945 31.5569 55.1945 35.1645C55.1945 35.7324 55.1945 35.7404 55.7545 35.7564C56.8823 35.7884 57.7702 36.5964 57.9622 37.7562C58.1302 38.7721 57.5623 39.836 56.4424 40.284C56.0584 40.428 55.6345 40.436 55.1465 40.516ZM45.8754 35.7164C46.0994 35.7324 46.2114 35.7484 46.3234 35.7484C47.5713 35.7484 48.8271 35.7404 50.075 35.7564C50.427 35.7644 50.491 35.6285 50.491 35.3165C50.483 32.9567 50.499 30.605 50.499 28.2452C50.499 28.1092 50.475 27.9812 50.467 27.8452C50.435 27.8372 50.395 27.8372 50.363 27.8292C48.8831 30.429 47.4033 33.0287 45.8754 35.7164Z" fill="url(#paint4_linear_561_134)"/>
<path d="M29.605 42.1798C30.3249 42.1798 30.9329 42.1798 31.5408 42.1798C33.0766 42.1718 34.6045 42.1798 36.1403 42.1478C37.5882 42.1238 38.7561 43.4677 38.4441 44.9555C38.2841 45.7395 37.7082 46.6034 36.7003 46.7154C35.5404 46.8354 34.3645 46.8514 33.2046 46.8594C30.9009 46.8754 28.5891 46.8754 26.2853 46.8594C25.7334 46.8514 25.1574 46.8354 24.6215 46.6994C23.8376 46.5074 23.2696 46.0034 22.9657 45.2355C22.5177 44.0836 22.9977 43.1477 23.6616 42.2518C25.6454 39.5721 27.6452 36.9003 29.605 34.1966C30.4449 33.0447 31.2128 31.8288 31.9728 30.621C32.4607 29.845 32.8447 28.9891 32.8927 28.0772C32.9327 27.3333 32.6367 26.6374 32.1087 26.0694C30.4289 24.2776 27.6052 24.8375 26.7733 27.1493C26.5893 27.6613 26.4933 28.1972 26.1173 28.6292C25.4774 29.3731 24.6375 29.5251 23.7736 29.3331C22.9817 29.1571 22.4537 28.5972 22.1577 27.7972C21.8618 26.9813 22.1257 26.2294 22.3897 25.5095C23.1416 23.4777 24.5095 21.9658 26.4853 21.0459C27.7892 20.438 29.173 20.174 30.5889 20.35C33.2846 20.6939 35.3484 22.0698 36.6763 24.4456C37.5082 25.9414 37.7962 27.5893 37.4842 29.2851C37.1962 30.8289 36.5643 32.2688 35.6924 33.5727C34.3805 35.5405 32.9967 37.4603 31.6368 39.3961C30.9969 40.3 30.3329 41.1879 29.605 42.1798Z" fill="url(#paint5_linear_561_134)"/>
</g>
<defs>
<linearGradient id="paint0_linear_561_134" x1="51.4908" y1="75.3065" x2="96.6104" y2="48.953" gradientUnits="userSpaceOnUse">
<stop stop-color="#E5A440"/>
<stop offset="0.446563" stop-color="#EFC57B"/>
<stop offset="0.975811" stop-color="#E7AC4E"/>
</linearGradient>
<linearGradient id="paint1_linear_561_134" x1="6.2074" y1="33.7407" x2="49.8078" y2="-32.2414" gradientUnits="userSpaceOnUse">
<stop stop-color="#E5A440"/>
<stop offset="0.446563" stop-color="#EFC57B"/>
<stop offset="0.975811" stop-color="#E7AC4E"/>
</linearGradient>
<linearGradient id="paint2_linear_561_134" x1="6.48031e-07" y1="65.6221" x2="29.7229" y2="51.4082" gradientUnits="userSpaceOnUse">
<stop stop-color="#E5A440"/>
<stop offset="0.446563" stop-color="#EFC57B"/>
<stop offset="0.975811" stop-color="#E7AC4E"/>
</linearGradient>
<linearGradient id="paint3_linear_561_134" x1="32.9907" y1="80" x2="51.9915" y2="65.6717" gradientUnits="userSpaceOnUse">
<stop stop-color="#E5A440"/>
<stop offset="0.446563" stop-color="#EFC57B"/>
<stop offset="0.975811" stop-color="#E7AC4E"/>
</linearGradient>
<linearGradient id="paint4_linear_561_134" x1="39.5524" y1="46.8998" x2="70.2549" y2="30.8071" gradientUnits="userSpaceOnUse">
<stop stop-color="#E5A440"/>
<stop offset="0.446563" stop-color="#EFC57B"/>
<stop offset="0.975811" stop-color="#E7AC4E"/>
</linearGradient>
<linearGradient id="paint5_linear_561_134" x1="22.0272" y1="46.8714" x2="50.6971" y2="33.4492" gradientUnits="userSpaceOnUse">
<stop stop-color="#E5A440"/>
<stop offset="0.446563" stop-color="#EFC57B"/>
<stop offset="0.975811" stop-color="#E7AC4E"/>
</linearGradient>
<clipPath id="clip0_561_134">
<rect width="80" height="80" fill="white"/>
</clipPath>
</defs>
</svg>
