<svg width="80" height="80" viewBox="0 0 80 80" fill="none" xmlns="http://www.w3.org/2000/svg">
<path d="M38.3074 1.69939C39.8441 1.69939 41.3734 1.69939 42.9102 1.69939C43.0067 1.74471 43.0958 1.81269 43.1997 1.82024C44.15 1.92598 45.1151 1.97885 46.0579 2.14501C47.4759 2.39426 48.879 2.69637 50.2747 3.02115C52.5167 3.54985 54.64 4.42598 56.7112 5.43051C59.807 6.94864 62.6429 8.87462 65.2042 11.1934C67.2012 12.9985 68.9978 15 70.5791 17.1979C72.6726 20.1133 74.3282 23.2704 75.5457 26.6541C76.3326 28.8444 76.8968 31.1027 77.2606 33.3988C77.4388 34.494 77.4907 35.6118 77.6095 36.7221C77.6244 36.858 77.6912 36.9864 77.7357 37.1224C77.7357 38.6858 77.7357 40.2417 77.7357 41.8051C77.6912 41.9033 77.6244 41.994 77.6095 42.0921C77.4536 43.3686 77.3497 44.6526 77.1418 45.9215C76.9636 47.0544 76.6964 48.1722 76.4291 49.29C75.8723 51.6012 75.0186 53.7991 73.9941 55.9366C73.0809 57.8474 72.0045 59.6526 70.8018 61.3822C68.9013 64.1088 66.6815 66.5257 64.15 68.6405C61.121 71.1707 57.7803 73.1722 54.1203 74.6299C51.6704 75.6042 49.1537 76.2991 46.5702 76.7447C45.4789 76.9335 44.3727 76.9789 43.274 77.0997C43.1552 77.1148 43.0364 77.1828 42.9176 77.2281C41.3809 77.2281 39.8515 77.2281 38.3148 77.2281C38.2109 77.1828 38.1069 77.1148 37.9956 77.0997C36.778 76.9411 35.5531 76.8353 34.343 76.6314C33.1923 76.435 32.0564 76.1707 30.9206 75.8912C29.0201 75.4305 27.2012 74.7281 25.4269 73.9199C23.5264 73.0589 21.7001 72.0317 19.9778 70.8384C16.4662 68.4063 13.415 65.4758 10.8686 62.0166C8.92356 59.3731 7.34969 56.503 6.12474 53.4517C5.2116 51.1707 4.54345 48.7991 4.11287 46.3671C3.86788 44.9924 3.78621 43.5876 3.61546 42.1979C3.60062 42.0619 3.5338 41.926 3.48926 41.7976C3.48926 40.2341 3.48926 38.6782 3.48926 37.1148C3.5338 37.0166 3.60062 36.926 3.60804 36.8202C3.71197 35.8535 3.76394 34.8716 3.92727 33.9124C4.17226 32.4698 4.46179 31.0423 4.79587 29.6148C5.32296 27.3338 6.17671 25.1737 7.17151 23.0665C8.6563 19.9245 10.5494 17.0544 12.8211 14.4411C14.9295 12.0242 17.3051 9.90181 19.9406 8.08912C22.1233 6.5861 24.4469 5.35498 26.8894 4.35045C29.1314 3.429 31.4403 2.74924 33.8159 2.31873C35.1671 2.07704 36.5479 1.97885 37.9139 1.81269C38.0475 1.81269 38.1737 1.74471 38.3074 1.69939ZM31.47 39.5921C31.2992 39.5997 31.173 39.6148 31.0394 39.6148C30.3341 39.6148 29.6288 39.5997 28.9236 39.6224C28.634 39.6299 28.3296 39.6903 28.0772 39.8112C27.1195 40.2643 26.637 41.284 26.8523 42.3263C27.0602 43.3233 27.9362 44.0181 28.9978 44.0332C29.6882 44.0408 30.3861 44.0483 31.0765 44.0332C31.3734 44.0257 31.4848 44.1088 31.4774 44.4335C31.4625 45.8686 31.47 47.3036 31.47 48.7387C31.47 48.8369 31.4551 48.935 31.4477 49.0559C31.2918 49.0634 31.1582 49.0785 31.0245 49.0785C30.3564 49.0785 29.6882 49.0559 29.0201 49.0861C28.3074 49.1163 27.6838 49.3807 27.2458 49.9773C26.7261 50.6873 26.6444 51.4804 27.0082 52.2583C27.3794 53.0589 28.0475 53.5045 28.9384 53.5121C29.6437 53.5196 30.3489 53.5272 31.0542 53.5121C31.3734 53.5045 31.4848 53.6027 31.4774 53.9426C31.4625 55.4683 31.4774 56.9864 31.47 58.5121C31.47 59.9622 33.0067 61.0725 34.4395 60.4683C35.3601 60.0831 35.7907 59.3353 35.7981 58.3384C35.8129 56.8882 35.8129 55.4456 35.7907 53.9955C35.7832 53.6103 35.902 53.5121 36.2806 53.5121C39.1611 53.5272 42.049 53.5196 44.9295 53.5196C45.1671 53.5196 45.4046 53.5196 45.6348 53.4894C46.6221 53.3459 47.3645 52.4773 47.4314 51.4804C47.5204 50.1511 46.4737 49.0861 45.1299 49.0861C42.1752 49.0786 39.2131 49.0861 36.2584 49.0861C36.1173 49.0861 35.9763 49.071 35.8278 49.0634C35.8278 47.3792 35.8278 45.7326 35.8278 44.0483C36.0134 44.0483 36.1767 44.0483 36.3326 44.0483C39.3913 44.0483 42.4425 44.0559 45.5011 44.0408C47.4165 44.0332 49.2057 43.5196 50.8686 42.568C53.3631 41.1329 55.1002 39.0181 56.095 36.2991C56.5479 35.068 56.7335 33.7764 56.7409 32.4471C56.7484 30.8988 56.5034 29.4109 55.9317 27.9909C55.0112 25.6798 53.5264 23.8293 51.4477 22.5C49.7699 21.4275 47.951 20.7326 45.9391 20.7175C41.804 20.6949 37.6763 20.7024 33.5412 20.7024C33.3111 20.7024 33.0587 20.7175 32.8582 20.8082C31.9228 21.216 31.4551 21.9335 31.4625 22.9909C31.4774 28.3686 31.47 33.7387 31.47 39.1163C31.47 39.2674 31.47 39.4184 31.47 39.5921Z" fill="#CA0026"/>
<path d="M35.7981 39.5997C35.7981 39.426 35.7981 39.29 35.7981 39.1541C35.7981 34.6375 35.7981 30.1208 35.7981 25.6042C35.7981 25.0906 35.7981 25.0831 36.3103 25.0831C39.2279 25.0831 42.1455 25.0831 45.0705 25.0831C47.5873 25.0831 49.614 26.0876 51.0988 28.1571C52.2569 29.7734 52.6355 31.6239 52.3014 33.5499C51.856 36.1178 50.4158 37.9834 48.0178 39.0332C47.1641 39.4033 46.2806 39.6073 45.3601 39.6148C42.2792 39.6148 39.1982 39.6148 36.1173 39.6148C36.0357 39.6148 35.9466 39.6073 35.7981 39.5997Z" fill="#CA0026"/>
</svg>
