<svg width="80" height="80" viewBox="0 0 80 80" fill="none" xmlns="http://www.w3.org/2000/svg">
<path d="M42.1599 77.9869C40.7759 77.9869 39.3839 77.9869 37.9999 77.9869C37.8959 77.9413 37.7999 77.873 37.6879 77.8578C36.7599 77.7438 35.8159 77.6754 34.8879 77.5387C34.0159 77.4096 33.1279 77.2956 32.2879 77.0449C30.5359 76.5056 28.7759 75.9814 27.1039 75.2673C24.6639 74.2266 22.4319 72.8364 20.3759 71.1879C16.8559 68.3696 14.1279 64.9891 12.2479 61.0085C11.6639 59.7778 11.2159 58.4788 10.7759 57.1874C10.4959 56.3593 10.3039 55.4933 10.1279 54.6425C9.94388 53.7233 9.81588 52.7889 9.67188 51.8621C9.63188 51.6266 9.63188 51.3835 9.62388 51.1405C9.59988 49.8186 9.51188 48.4892 9.56788 47.1674C9.61588 46.1343 9.82388 45.1011 9.98388 44.068C10.0799 43.4603 10.1679 42.8525 10.3439 42.2676C10.6639 41.1813 11.0239 40.1026 11.4079 39.039C12.1359 37.0107 13.1359 35.104 14.4159 33.3492C15.9919 31.1841 17.6639 29.0723 19.3039 26.9452C21.2879 24.37 23.2799 21.8099 25.2719 19.2422C26.4479 17.7305 27.6159 16.2036 28.8159 14.7071C29.4799 13.879 30.6639 13.6663 31.6319 14.1373C32.5359 14.5703 32.9519 15.2844 32.9519 16.2264C32.9519 18.0648 32.9439 19.8956 32.9599 21.7339C32.9599 22.1062 32.9919 22.4936 33.1199 22.843C33.5199 23.9066 34.7119 24.4991 35.7599 24.2484C36.9439 23.9673 37.6639 23.1165 37.6559 21.8555C37.6399 20.3134 37.6479 18.7637 37.6559 17.2215C37.6639 15.9529 37.8799 14.7071 38.2319 13.484C39.1439 10.3846 40.8879 7.79413 43.4879 5.72026C46.0079 3.70715 48.8799 2.4841 52.1599 2.16504C52.2639 2.15744 52.3679 2.08148 52.4639 2.0359C53.1839 2.0359 53.9039 2.0359 54.6239 2.0359C54.6799 2.08148 54.7279 2.15744 54.7919 2.17264C55.6959 2.39294 56.3599 3.34251 56.3919 4.18574C56.4159 4.78587 56.1439 5.27965 55.8239 5.75064C54.5199 7.67259 53.7999 9.78445 53.5999 12.0482C53.4479 13.7499 53.6559 15.4287 54.1759 17.0848C54.6959 18.7409 55.5359 20.2222 56.5999 21.6048C57.7679 23.1241 58.9519 24.6358 60.1119 26.1552C61.4479 27.8948 62.7439 29.6572 64.0959 31.3816C65.7759 33.5239 67.1999 35.7953 68.2559 38.2718C69.1199 40.3001 69.7119 42.4043 70.0959 44.5542C70.2959 45.6785 70.3839 46.8332 70.4239 47.9727C70.4559 49.0666 70.3839 50.1681 70.3119 51.262C70.2479 52.1508 70.1439 53.0396 69.9839 53.9132C69.8159 54.8704 69.5759 55.82 69.3519 56.7695C68.9679 58.3876 68.3359 59.9221 67.5919 61.4111C66.2479 64.1231 64.4959 66.5768 62.3439 68.7722C60.6079 70.5498 58.6639 72.0995 56.5199 73.4137C54.7119 74.5153 52.8159 75.4648 50.7919 76.1409C49.7039 76.5056 48.5999 76.817 47.4879 77.0981C46.5359 77.3336 45.5599 77.5235 44.5839 77.6754C43.8639 77.7894 43.1279 77.8046 42.4079 77.873C42.3359 77.8654 42.2479 77.9413 42.1599 77.9869ZM21.2559 51.2848C21.2239 61.0768 29.6559 69.0761 39.9839 69.0837C50.3359 69.0913 58.7519 61.0844 58.7439 51.2696C58.7359 41.4396 50.3439 33.4707 39.9919 33.4707C29.6559 33.4783 21.2319 41.4548 21.2559 51.2848Z" fill="#CA0026"/>
<path d="M39.976 64.6244C32.24 64.6244 25.92 58.6307 25.928 51.2468C25.944 43.9085 32.248 37.9071 40.032 37.9223C47.784 37.9375 54.08 43.9389 54.056 51.3228C54.032 58.6383 47.776 64.6472 39.976 64.6244ZM32.92 57.985C32.984 58.1977 33.04 58.418 33.104 58.6307C33.376 59.5195 34.04 60.0133 34.96 60.1576C35.88 60.302 36.672 59.9829 37.208 59.246C38.208 57.8635 39.184 56.4581 40.168 55.0603C42.272 52.0672 44.384 49.0742 46.488 46.0735C46.944 45.4202 47.216 44.7441 46.912 43.9237C46.584 43.0425 45.936 42.5335 45.008 42.4043C44.12 42.2752 43.328 42.5867 42.808 43.3083C41.856 44.6225 40.936 45.9596 40.008 47.289C37.856 50.3504 35.712 53.4118 33.56 56.4657C33.216 56.9215 32.944 57.4001 32.92 57.985ZM35.304 46.8332C36.616 46.818 37.64 45.8076 37.656 44.615C37.672 43.4147 36.56 42.3588 35.296 42.3739C34.032 42.3891 32.976 43.3539 32.96 44.5922C32.952 45.8152 34.056 46.8332 35.304 46.8332ZM47.032 57.9698C47 56.7316 46 55.7592 44.72 55.7364C43.4 55.7136 42.344 56.7771 42.336 57.9546C42.328 59.1701 43.408 60.1956 44.68 60.188C45.976 60.1728 46.992 59.2081 47.032 57.9698Z" fill="#CA0026"/>
</svg>
