<svg width="80" height="80" viewBox="0 0 80 80" fill="none" xmlns="http://www.w3.org/2000/svg">
<path d="M68.6485 79.2082C49.3416 79.2082 30.0424 79.2082 10.7355 79.2082C10.6816 79.1617 10.6354 79.0918 10.5661 79.0685C10.235 78.9521 9.8807 78.8822 9.56495 78.727C8.39437 78.1448 7.62425 77.19 7.3008 75.9169C7.08516 75.0631 6.97735 74.1704 6.83873 73.2932C6.63079 71.9814 6.45367 70.6618 6.25343 69.3499C5.96079 67.4248 5.65274 65.4997 5.3678 63.5746C5.14446 62.0609 4.93653 60.5473 4.7209 59.0413C4.66699 58.6765 4.61308 58.3039 4.55147 57.9391C4.41285 57.093 4.25883 56.2468 4.12791 55.4007C4.00469 54.5857 3.89687 53.7706 3.77365 52.9556C3.59652 51.799 3.39629 50.6423 3.21916 49.478C3.05744 48.3912 2.91112 47.3045 2.74939 46.2177C2.51066 44.6109 2.25652 43.0118 2.01008 41.405C1.94847 41.0091 1.92536 40.6055 1.83295 40.2251C1.60191 39.2936 1.77904 38.4475 2.27192 37.6557C2.89571 36.6466 3.81986 36.1343 4.99044 36.1188C5.28308 36.111 5.3755 36.0101 5.32929 35.7229C5.21377 35.0243 5.14446 34.3179 4.99044 33.6348C4.79791 32.7654 4.88262 31.9503 5.15987 31.1042C5.72205 29.4042 7.43942 28.2554 9.21069 28.2554C14.9712 28.2631 20.7317 28.2554 26.4999 28.2631C26.9928 28.2631 27.501 28.3252 27.9785 28.4572C29.1106 28.7677 30.0424 29.4198 30.7971 30.3124C32.3143 32.1056 33.8391 33.8987 35.3408 35.7074C35.5796 35.9946 35.8183 36.1032 36.188 36.1032C44.8133 36.0955 53.4387 36.0955 62.064 36.0955C62.3566 36.0955 62.657 36.0877 62.9496 36.1188C63.9585 36.2197 64.7517 36.701 65.3524 37.5238C65.9069 38.2845 65.9454 39.1849 66.0994 40.0543C66.1841 40.5589 66.2226 41.079 66.2996 41.5835C66.4768 42.779 66.677 43.9744 66.8541 45.1698C67.1237 47.0095 67.3701 48.8492 67.6396 50.6889C67.863 52.2181 68.1171 53.7396 68.3405 55.2688C68.4714 56.1459 68.5638 57.0231 68.6793 57.908C68.7255 58.2884 68.7871 58.6687 68.8487 59.0491C68.9874 59.9185 69.1414 60.7879 69.2646 61.6651C69.3878 62.5189 69.4879 63.3728 69.6189 64.2267C69.8037 65.4609 69.9962 66.6951 70.181 67.9371C70.3967 69.4042 70.6046 70.8791 70.8048 72.3462C70.9589 73.4562 71.1129 74.5663 71.2361 75.6841C71.3901 77.0658 70.4044 78.4863 69.1799 78.9133C68.9874 78.9986 68.8179 79.1151 68.6485 79.2082Z" fill="#CA0026"/>
<path d="M63.0265 1.58355C63.3499 1.73879 63.6811 1.87076 63.9891 2.04929C64.7592 2.50728 65.3214 3.16709 65.4908 4.06754C65.5909 4.61867 65.6372 5.18533 65.6372 5.75199C65.6449 14.2597 65.6449 22.7751 65.6449 31.2828C65.6449 31.4613 65.6449 31.6398 65.6449 31.8572C63.9429 31.8572 62.2717 31.8572 60.5467 31.8572C60.5467 31.6631 60.5467 31.4923 60.5467 31.3138C60.5467 23.2952 60.5467 15.2765 60.5467 7.25015C60.5467 6.70677 60.5467 6.70677 60.0076 6.70677C48.1092 6.70677 36.2109 6.70677 24.3202 6.70677C23.7196 6.70677 23.7196 6.70677 23.7196 7.30448C23.7196 12.8935 23.7196 18.4824 23.7196 24.0714C23.7196 24.2422 23.7196 24.4052 23.7196 24.5993C21.9021 24.5993 20.1154 24.5993 18.2825 24.5993C18.2748 24.4673 18.2594 24.3276 18.2594 24.1956C18.2594 17.9235 18.2671 11.6515 18.2517 5.37163C18.2517 3.99767 18.7061 2.87988 19.8767 2.13468C20.1693 1.94838 20.5159 1.86299 20.8393 1.71551C20.9009 1.69222 20.9394 1.62236 20.9856 1.57578C34.9941 1.58355 49.0103 1.58355 63.0265 1.58355Z" fill="#CA0026"/>
<path d="M73.4925 65.3755C73.3846 64.6769 73.2768 63.9783 73.1767 63.2797C72.9919 62.0299 72.7994 60.7879 72.6145 59.5381C72.5375 59.0336 72.4913 58.5135 72.4143 58.0089C72.2834 57.124 72.1293 56.2391 71.9907 55.3542C71.9291 54.9738 71.8752 54.5934 71.8213 54.2131C71.6519 52.9789 71.5056 51.7446 71.3284 50.5104C70.9665 47.9953 70.5737 45.4881 70.2272 42.973C70.0654 41.7931 69.9807 40.6132 69.8498 39.4256C69.6727 37.7877 69.4801 36.1421 69.2953 34.5042C69.2491 34.054 69.2106 33.6115 69.1644 33.1613C69.0874 32.4083 69.0104 31.6554 68.9333 30.8713C69.1028 30.8636 69.226 30.8481 69.3492 30.8481C71.1436 30.8481 72.9457 30.8791 74.7401 30.8403C76.2649 30.8092 77.4817 31.764 77.9283 33.0604C78.1286 33.6503 78.221 34.2713 78.0208 34.9156C77.9052 35.3037 77.8898 35.7229 77.8282 36.1343C77.5818 37.8265 77.3354 39.5265 77.0966 41.2187C76.881 42.7169 76.6885 44.215 76.4728 45.7054C76.2957 46.9164 76.0955 48.1195 75.9106 49.3305C75.8336 49.8273 75.7951 50.3319 75.7181 50.8286C75.5872 51.7058 75.4409 52.5752 75.3022 53.4446C75.2406 53.8327 75.1867 54.2286 75.1328 54.6245C74.9172 56.2003 74.7169 57.7838 74.4859 59.3518C74.201 61.3002 73.9083 63.2564 73.6157 65.2047C73.608 65.2668 73.5849 65.3212 73.5695 65.3833C73.5464 65.3833 73.5156 65.3755 73.4925 65.3755Z" fill="#CA0026"/>
<path d="M42.0023 17.9856C38.5368 17.9856 35.0712 17.9779 31.6057 17.9934C30.4274 18.0012 29.6111 17.4656 29.0874 16.4331C28.2403 14.7487 29.4108 12.4898 31.4208 12.4588C31.521 12.4588 31.6288 12.451 31.7289 12.451C38.5599 12.451 45.3831 12.451 52.2141 12.451C53.169 12.451 53.9699 12.7382 54.5552 13.53C55.618 14.966 55.1559 16.961 53.5541 17.7761C53.1767 17.9701 52.6915 17.9779 52.2526 17.9779C48.8332 17.9934 45.4139 17.9856 42.0023 17.9856Z" fill="#CA0026"/>
<path d="M41.9561 22.6819C45.3909 22.6819 48.8333 22.6819 52.268 22.6819C53.4463 22.6819 54.3243 23.1943 54.8479 24.281C55.595 25.8102 54.7709 27.7042 53.1383 28.1467C52.8379 28.2321 52.5068 28.2709 52.1987 28.2709C46.2765 28.2787 40.3466 28.2709 34.4244 28.2864C34.0778 28.2864 33.8314 28.1855 33.608 27.9294C32.6146 26.7805 31.4209 25.8956 30.0116 25.3289C29.7651 25.228 29.5033 25.1582 29.2492 25.0805C28.9488 24.9874 28.8333 24.8088 28.9796 24.4983C29.5187 23.3728 30.335 22.6664 31.6827 22.6742C35.1021 22.6897 38.5291 22.6819 41.9561 22.6819Z" fill="#CA0026"/>
</svg>
