<svg width="80" height="80" viewBox="0 0 80 80" fill="none" xmlns="http://www.w3.org/2000/svg">
<path d="M76.8886 79.3735C52.3757 79.3735 27.8551 79.3735 3.34221 79.3735C3.31911 79.3352 3.30371 79.2665 3.2652 79.2512C2.10232 78.8004 1.64795 78.1433 1.64795 76.9131C1.64795 60.9742 1.64795 45.0277 1.64795 29.0888C1.64795 28.9436 1.64795 28.7985 1.64795 28.6304C1.87128 28.6304 2.03301 28.6304 2.20244 28.6304C27.5086 28.6304 52.8147 28.6304 78.1208 28.6304C78.2748 28.6304 78.4288 28.6304 78.5829 28.638C78.5829 44.9895 78.5829 61.341 78.5829 77.6925C78.5367 77.723 78.4597 77.7536 78.452 77.7994C78.2979 78.4183 77.8975 78.8309 77.343 79.1137C77.189 79.1901 77.0426 79.2894 76.8886 79.3735ZM40.1154 51.0181C41.5863 51.0181 43.065 51.0029 44.5359 51.0181C45.8528 51.0334 46.8848 49.9866 46.8848 48.6953C46.8771 45.7689 46.8771 42.8424 46.8848 39.916C46.8925 38.6094 45.8528 37.5702 44.5128 37.5778C41.6556 37.5931 38.7985 37.5778 35.9414 37.5855C35.5948 37.5855 35.2329 37.639 34.894 37.7307C34.0007 37.9675 33.3692 38.8233 33.3615 39.6944C33.3384 42.7584 33.3461 45.83 33.3615 48.894C33.3615 49.1767 33.4693 49.49 33.6002 49.7498C34.0469 50.6285 34.7939 51.0181 35.7719 51.0181C37.2198 51.0181 38.6676 51.0181 40.1154 51.0181ZM15.333 44.2789C15.333 45.7459 15.333 47.2053 15.333 48.6724C15.333 48.6953 15.333 48.7259 15.333 48.7488C15.2791 49.9331 16.3264 51.0258 17.6202 51.0258C20.5929 51.0181 23.5655 51.0181 26.5382 51.0258C27.8551 51.0258 28.8486 49.9866 28.8486 48.7259C28.8409 45.7841 28.8409 42.8424 28.8486 39.9007C28.8563 38.6399 27.8705 37.5778 26.5151 37.5855C23.5655 37.5931 20.616 37.6008 17.6741 37.5855C16.3187 37.5778 15.2868 38.701 15.3253 39.9312C15.3638 41.3754 15.333 42.8271 15.333 44.2789ZM64.9056 44.2942C64.9056 42.7813 64.9287 41.2607 64.8979 39.7478C64.8747 38.533 63.9198 37.6084 62.7415 37.5931C59.6764 37.5626 56.6114 37.5626 53.554 37.5931C52.4296 37.6008 51.4362 38.51 51.4208 39.6485C51.3823 42.7431 51.3823 45.8376 51.4208 48.9322C51.4362 50.0783 52.445 51.0029 53.5771 51.0105C56.6422 51.0334 59.7072 51.0258 62.7646 51.0105C63.0573 51.0105 63.3653 50.9112 63.6272 50.7813C64.5205 50.361 64.9133 49.6199 64.9133 48.6495C64.9056 47.1977 64.9056 45.7459 64.9056 44.2942ZM33.3538 62.0592C33.3538 63.5263 33.3692 64.9857 33.3461 66.4527C33.3307 67.8052 34.4627 68.7985 35.7026 68.7908C38.6368 68.7679 41.5709 68.7679 44.5051 68.7908C45.7604 68.8061 46.8925 67.8204 46.8848 66.4298C46.8694 63.5263 46.8694 60.6304 46.8848 57.7268C46.8925 56.2827 45.7296 55.3352 44.482 55.3429C41.5863 55.3734 38.6907 55.3811 35.795 55.3352C34.5243 55.32 33.2922 56.2827 33.3384 57.788C33.3846 59.2015 33.3538 60.6304 33.3538 62.0592ZM64.9056 62.0439C64.9056 60.6304 64.9056 59.2168 64.9056 57.8032C64.9056 57.7803 64.9056 57.7498 64.9056 57.7268C64.9672 56.2598 63.7504 55.32 62.5028 55.3352C59.6071 55.3658 56.7115 55.3429 53.8158 55.3429C52.3449 55.3429 51.39 56.2827 51.39 57.7421C51.39 60.6227 51.4208 63.4957 51.3746 66.3763C51.3514 67.744 52.4604 68.8061 53.8081 68.7908C56.6884 68.7526 59.5763 68.7526 62.4566 68.7908C63.7812 68.8061 64.9518 67.8128 64.9133 66.361C64.867 64.9245 64.9056 63.4804 64.9056 62.0439ZM15.333 63.8013C15.333 64.7564 15.5717 65.3219 16.1185 65.7803C17.1196 66.6208 18.1285 67.4613 19.1528 68.2636C20.2001 69.0812 21.5478 68.9054 22.395 67.8739C22.9186 67.2321 23.4423 66.5903 23.9737 65.9484C25.4446 64.1452 26.931 62.3572 28.3865 60.5387C29.1181 59.6294 28.9487 58.2082 28.063 57.4823C27.1543 56.7412 25.745 56.7794 24.9518 57.681C24.4281 58.2693 23.9352 58.8882 23.4423 59.5072C22.472 60.6991 21.5093 61.8911 20.539 63.0831C20.3387 63.3276 20.1616 63.3429 19.9152 63.1137C19.6148 62.8309 19.276 62.5712 18.9448 62.3266C18.2132 61.7765 17.3892 61.723 16.5883 62.0974C15.7796 62.4718 15.3561 63.1671 15.333 63.8013Z" fill="#CA0026"/>
<path d="M39.4993 2.96466C39.8844 2.96466 40.2695 2.96466 40.6545 2.96466C40.7084 3.01051 40.7546 3.08691 40.8162 3.1022C41.7019 3.36963 42.3411 4.1872 42.3565 5.09647C42.3719 5.82235 42.3642 6.54823 42.3642 7.27412C42.3642 7.41929 42.3642 7.56447 42.3642 7.70965C45.4061 7.70965 48.3865 7.70965 51.3515 7.70965C51.3669 7.64852 51.3823 7.6256 51.3823 7.60267C51.39 6.77746 51.3823 5.9446 51.3977 5.11939C51.4131 4.20248 52.06 3.37727 52.9225 3.10984C52.9764 3.09456 53.0072 3.01815 53.0457 2.9723C53.4308 2.9723 53.8159 2.9723 54.2009 2.9723C54.3395 3.04107 54.4705 3.11748 54.6091 3.18625C55.4485 3.63706 55.8952 4.32474 55.9029 5.27985C55.9029 6.08978 55.9029 6.89971 55.9029 7.71729C58.9294 7.71729 61.9021 7.71729 64.9133 7.71729C64.9133 6.87679 64.921 6.06686 64.9133 5.24928C64.8979 4.3171 65.5987 3.29322 66.4997 3.1022C66.5382 3.09456 66.5613 3.01815 66.5998 2.9723C66.9849 2.9723 67.37 2.9723 67.755 2.9723C67.8859 3.04107 68.0169 3.11748 68.1478 3.18625C68.9949 3.6447 69.4416 4.34766 69.4416 5.31041C69.4416 6.10506 69.4416 6.90735 69.4416 7.74021C69.6341 7.74021 69.7881 7.74021 69.9422 7.74021C72.0677 7.74021 74.1932 7.74785 76.3264 7.74021C77.1736 7.74021 78.2132 8.29799 78.4751 9.29895C78.4828 9.33715 78.5598 9.35244 78.606 9.383C78.606 14.2961 78.606 19.2168 78.606 24.1299C78.4751 24.1375 78.3519 24.1528 78.2209 24.1528C52.8455 24.1528 27.4701 24.1528 2.09464 24.1528C1.96372 24.1528 1.82509 24.1528 1.67107 24.1528C1.67107 23.9694 1.67107 23.8395 1.67107 23.7173C1.67107 19.1862 1.68647 14.6476 1.66337 10.1165C1.65567 8.68004 2.80315 7.71729 4.05844 7.73257C6.16087 7.76313 8.26329 7.74021 10.3657 7.74021C10.512 7.74021 10.6584 7.72493 10.8278 7.71729C10.8278 6.86151 10.8124 6.04393 10.8278 5.234C10.8432 4.3553 11.2283 3.67526 12.0215 3.24737C12.1832 3.15568 12.3449 3.05635 12.5066 2.96466C12.8917 2.96466 13.2768 2.96466 13.6618 2.96466C13.708 3.01051 13.7388 3.07163 13.7927 3.1022C14.1085 3.3085 14.4782 3.4766 14.74 3.73639C15.1867 4.16428 15.3484 4.73734 15.3407 5.35626C15.3253 6.14327 15.3407 6.92264 15.3407 7.70965C18.3673 7.70965 21.3476 7.70965 24.3511 7.70965C24.3511 6.85387 24.3357 6.02865 24.3511 5.20344C24.3665 4.34766 24.7592 3.69054 25.5063 3.26266C25.6834 3.16332 25.8605 3.06399 26.0376 2.96466C26.4227 2.96466 26.8078 2.96466 27.1928 2.96466C27.2236 3.01051 27.239 3.08691 27.2775 3.09456C28.0169 3.31614 28.5251 3.78223 28.71 4.5234C28.8178 4.95893 28.8332 5.42502 28.8486 5.87584C28.8717 6.47947 28.8563 7.09074 28.8563 7.70201C31.8906 7.70201 34.8709 7.70201 37.8821 7.70201C37.8821 6.86151 37.9052 6.04393 37.8744 5.234C37.8436 4.30946 38.5367 3.30086 39.43 3.08691C39.4531 3.09456 39.4762 3.01051 39.4993 2.96466ZM10.8124 7.75549C10.8124 7.90831 10.8124 8.02292 10.8124 8.13754C10.8124 10.1853 10.8047 12.2407 10.8201 14.2884C10.8201 14.5712 10.874 14.8615 10.9587 15.1366C11.2205 16.0382 12.0831 16.68 13.0149 16.6953C14.2779 16.7182 15.333 15.7096 15.3407 14.4489C15.3484 12.3324 15.3407 10.2235 15.3407 8.10697C15.3407 8 15.3253 7.88539 15.3176 7.76313C13.8082 7.75549 12.3372 7.75549 10.8124 7.75549ZM64.9056 7.75549C64.9056 7.93887 64.9056 8.07641 64.9056 8.21394C64.9056 10.2006 64.8979 12.1872 64.9133 14.1738C64.9133 14.51 64.9672 14.8539 65.0596 15.1748C65.4061 16.3973 66.9772 17.0544 68.117 16.4737C68.9949 16.0229 69.4339 15.3047 69.4339 14.3266C69.4339 12.2636 69.4339 10.2006 69.4339 8.13754C69.4339 8.01528 69.4339 7.89303 69.4339 7.75549C67.9013 7.75549 66.4304 7.75549 64.9056 7.75549ZM37.9052 7.76313C37.8898 7.8319 37.8744 7.87775 37.8744 7.92359C37.8744 10.1776 37.859 12.4241 37.8821 14.6781C37.8975 15.702 38.914 16.6418 39.9614 16.6877C41.2783 16.7488 42.3488 15.7555 42.3565 14.4413C42.3642 12.3171 42.3565 10.1929 42.3565 8.06877C42.3565 7.96944 42.3411 7.8701 42.3334 7.76313C40.847 7.76313 39.3838 7.76313 37.9052 7.76313ZM51.4362 7.76313C51.4208 7.81662 51.3977 7.85482 51.3977 7.89303C51.3977 10.1624 51.3669 12.4241 51.4131 14.6934C51.4362 15.7479 52.4758 16.6648 53.5386 16.6953C54.8247 16.7335 55.8875 15.7249 55.8952 14.4413C55.9029 12.3247 55.8952 10.2159 55.8952 8.09933C55.8952 7.99236 55.8798 7.87775 55.8721 7.76313C54.378 7.76313 52.9071 7.76313 51.4362 7.76313ZM24.3742 7.75549C24.3588 7.8319 24.3434 7.8701 24.3434 7.90831C24.3434 10.1624 24.2972 12.4164 24.3665 14.6628C24.3973 15.7249 25.2367 16.5807 26.4227 16.6877C27.7242 16.8023 28.8409 15.7708 28.8486 14.4718C28.864 12.3477 28.8563 10.2235 28.8486 8.09169C28.8486 7.98472 28.8255 7.87775 28.8178 7.75549C27.316 7.75549 25.8528 7.75549 24.3742 7.75549Z" fill="#CA0026"/>
<path d="M42.3488 42.1012C42.3488 43.5759 42.3488 45.0201 42.3488 46.5024C40.8701 46.5024 39.3992 46.5024 37.8975 46.5024C37.8975 45.043 37.8975 43.5836 37.8975 42.1012C39.3684 42.1012 40.8393 42.1012 42.3488 42.1012Z" fill="#CA0026"/>
<path d="M24.328 42.1089C24.328 43.5759 24.328 45.0201 24.328 46.5024C22.8494 46.5024 21.3708 46.5024 19.8613 46.5024C19.8613 45.0583 19.8613 43.5989 19.8613 42.1089C21.3323 42.1089 22.8109 42.1089 24.328 42.1089Z" fill="#CA0026"/>
<path d="M55.9106 46.5024C55.9106 45.0201 55.9106 43.5759 55.9106 42.1012C57.4047 42.1012 58.8756 42.1012 60.385 42.1012C60.385 43.5606 60.385 45.0201 60.385 46.5024C58.891 46.5024 57.4201 46.5024 55.9106 46.5024Z" fill="#CA0026"/>
<path d="M42.3258 64.2904C40.8548 64.2904 39.3993 64.2904 37.9053 64.2904C37.9053 62.8233 37.9053 61.3486 37.9053 59.851C39.3531 59.851 40.824 59.851 42.3258 59.851C42.3258 61.318 42.3258 62.7927 42.3258 64.2904Z" fill="#CA0026"/>
<path d="M60.3774 64.2904C58.8834 64.2904 57.4125 64.2904 55.9185 64.2904C55.9185 62.808 55.9185 61.341 55.9185 59.8434C57.4048 59.8434 58.8834 59.8434 60.3774 59.8434C60.3774 61.3333 60.3774 62.8004 60.3774 64.2904Z" fill="#CA0026"/>
</svg>
