<svg width="80" height="80" viewBox="0 0 80 80" fill="none" xmlns="http://www.w3.org/2000/svg">
<path d="M63.4284 78.2427C43.8364 78.2427 24.2362 78.2427 4.64423 78.2427C4.40065 78.1199 4.13271 78.0125 3.90537 77.859C3.15027 77.3602 2.84985 76.6542 2.84985 75.787C2.85797 51.8446 2.85797 27.9022 2.85797 3.95971C2.85797 3.85995 2.85797 3.75252 2.85797 3.65276C2.90669 2.82398 3.29642 2.19472 4.07588 1.79568C4.26262 1.69592 4.44937 1.60383 4.64423 1.50407C24.2362 1.50407 43.8364 1.50407 63.4284 1.50407C63.469 1.55012 63.5014 1.61918 63.5501 1.63453C64.5975 1.94916 65.2146 2.7012 65.2146 3.72949C65.2227 8.66379 65.2146 13.6058 65.2227 18.54C65.2227 18.8163 65.1009 18.9314 64.8655 19.0082C64.3296 19.1693 63.7856 19.3228 63.2497 19.4839C61.5528 19.9981 59.8558 20.5046 58.1589 21.0187C56.7461 21.4484 55.3334 21.8935 53.9206 22.3309C52.7758 22.6839 51.5741 22.9141 50.5754 23.5741C50.0639 23.9117 49.5524 23.9808 48.9678 23.9808C46.264 23.9655 43.5522 23.9731 40.8484 23.9808C39.6386 23.9808 38.6156 24.9631 38.575 26.1295C38.5263 27.3957 39.6143 28.447 40.9702 28.4547C42.8945 28.47 44.8107 28.4547 46.735 28.4623C46.9055 28.4623 47.076 28.4854 47.214 28.493C47.1085 30.0048 47.011 31.4705 46.9055 32.9746C46.735 32.9746 46.5645 32.9746 46.394 32.9746C35.9849 32.9746 25.584 32.9746 15.175 32.9823C14.834 32.9823 14.4849 33.036 14.152 33.1204C12.6256 33.5041 11.9841 35.4072 12.9747 36.5736C13.5349 37.2336 14.2575 37.4868 15.1426 37.4868C25.714 37.4791 36.2772 37.4791 46.8486 37.4791C47.0354 37.4791 47.2221 37.4791 47.352 37.4791C47.7174 38.9986 48.0747 40.4566 48.44 41.9607C48.2208 41.9683 48.0259 41.9837 47.8311 41.9837C36.9755 41.9837 26.128 41.9837 15.2725 41.9914C14.9477 41.9914 14.6229 42.0221 14.3063 42.0835C12.658 42.3981 11.9354 44.4163 13.0153 45.6365C13.5836 46.2734 14.2981 46.4806 15.1588 46.4806C26.7289 46.4729 38.299 46.4729 49.869 46.4652C50.2506 46.4652 50.4455 46.588 50.5998 46.895C51.7365 49.105 53.1736 51.1463 54.83 53.0341C56.5431 54.9986 58.4918 56.7329 60.6353 58.2753C61.8938 59.1808 63.266 59.7871 64.8736 59.8177C65.1903 59.8254 65.2227 59.9712 65.2146 60.2014C65.2146 65.4811 65.2146 70.7683 65.2065 76.048C65.2065 76.8921 64.7762 77.529 63.9805 77.9434C63.7937 78.0432 63.6151 78.1429 63.4284 78.2427ZM23.2538 64.5679C25.8926 64.5679 28.5314 64.5755 31.1702 64.5602C31.5274 64.5602 31.8928 64.4988 32.25 64.4451C33.135 64.307 33.9713 63.3938 33.9713 62.4959C33.9795 59.3496 33.9713 56.2034 33.9713 53.0571C33.9713 52.9189 33.9795 52.7655 33.9307 52.635C33.4761 51.4763 32.6073 50.9851 31.4137 50.9851C25.9738 50.9851 20.5338 50.9928 15.0938 50.9775C13.6324 50.9698 12.4713 51.9674 12.4956 53.4024C12.5362 56.3185 12.5362 59.2345 12.4956 62.1506C12.4794 63.5472 13.5755 64.5832 15.0938 64.5755C17.8138 64.5602 20.5338 64.5679 23.2538 64.5679ZM23.2294 28.4547C26.0063 28.4547 28.775 28.447 31.5518 28.4547C32.8022 28.4547 33.9876 27.5492 33.9795 26.1755C33.9551 23.1674 33.9713 20.1669 33.9713 17.1588C33.9713 16.4221 33.6547 15.8542 33.0539 15.3938C32.5261 14.9794 31.9009 14.9333 31.2676 14.9333C25.9088 14.9333 20.55 14.9333 15.1913 14.9333C15.0857 14.9333 14.972 14.941 14.8665 14.941C13.4294 14.9487 12.4713 16.0921 12.4875 17.3122C12.5281 20.2283 12.4956 23.1444 12.5038 26.0604C12.5038 26.329 12.5119 26.6053 12.6012 26.8508C12.9666 27.8868 13.811 28.447 14.9802 28.447C17.7326 28.4623 20.4851 28.4547 23.2294 28.4547ZM47.0679 60.071C46.9217 60.071 46.7674 60.071 46.6213 60.071C44.6483 60.0787 42.6753 60.0556 40.7023 60.1017C39.5493 60.1324 38.6237 61.0916 38.575 62.235C38.5182 63.5242 39.6468 64.5679 41.0595 64.5679C44.9568 64.5755 48.846 64.5755 52.7433 64.5602C53.1411 64.5602 53.5471 64.5065 53.9368 64.4221C55.0979 64.1535 55.8774 62.7108 55.4633 61.6518C55.0492 60.6082 54.286 60.0787 53.0762 60.071C51.0707 60.0556 49.0733 60.071 47.0679 60.071ZM47.0597 19.4456C48.9759 19.4456 50.9002 19.4532 52.8164 19.4379C53.1249 19.4379 53.4334 19.3995 53.7338 19.3381C54.6513 19.1616 55.2278 18.5861 55.4714 17.765C55.6987 16.9823 55.512 16.2532 54.9112 15.6393C54.3672 15.0791 53.6689 14.9333 52.9057 14.9333C49.0246 14.941 45.1436 14.9333 41.2625 14.9333C41.0758 14.9333 40.889 14.9564 40.6942 14.964C39.2083 15.0177 38.0229 16.6983 38.8186 18.1564C39.2976 19.0312 40.0852 19.4225 41.092 19.4302C43.0894 19.4532 45.0786 19.4379 47.0597 19.4456Z" fill="#CA0026"/>
<path d="M78.7415 32.4835C78.6603 33.6269 78.6359 34.7779 78.4898 35.9137C78.368 36.8729 78.1082 37.8245 77.9052 38.776C77.4343 40.9324 76.598 42.9659 75.5668 44.9381C74.5113 46.9564 73.196 48.8134 71.6533 50.517C70.1756 52.1516 68.5111 53.5942 66.6843 54.8835C65.9535 55.3976 64.5732 55.436 63.8262 54.9141C61.7314 53.4484 59.8559 51.7755 58.232 49.8571C56.6893 48.0307 55.4065 46.0508 54.3834 43.9175C53.5147 42.1141 52.8326 40.2571 52.4185 38.3233C52.1587 37.1108 52.0126 35.883 51.8827 34.6552C51.7852 33.742 51.7284 32.8211 51.7609 31.9002C51.7934 30.8719 51.8989 29.836 52.0451 28.8153C52.1669 27.9789 52.7596 27.4187 53.5877 27.1578C55.6825 26.4978 57.7854 25.8839 59.8884 25.2624C61.3255 24.8326 62.787 24.4489 64.2079 23.9655C65.0929 23.6662 65.8886 23.835 66.7167 24.0959C68.0889 24.5333 69.4773 24.917 70.8576 25.3314C72.0999 25.7074 73.334 26.0835 74.5763 26.4671C75.307 26.6897 76.0378 26.9199 76.7685 27.1348C77.8808 27.4571 78.4086 28.2628 78.506 29.1223C78.6359 30.2273 78.6684 31.3554 78.7415 32.4835ZM63.2254 39.9041C62.8438 39.5357 62.5028 39.1827 62.1455 38.8528C61.1956 37.9856 59.6854 37.9626 58.7922 38.8451C57.8504 39.7736 57.8017 41.0628 58.8085 42.0451C59.6935 42.9122 60.611 43.764 61.5285 44.6005C62.5353 45.529 63.9724 45.552 64.9711 44.6235C67.212 42.5285 69.4448 40.4259 71.6614 38.3079C72.5302 37.4791 72.6114 36.1899 71.9131 35.3535C71.1174 34.3942 69.867 34.1333 68.7628 34.8086C68.1539 35.177 67.6586 35.7218 67.1389 36.2053C65.8236 37.4177 64.5407 38.6532 63.2254 39.9041Z" fill="#CA0026"/>
<path d="M23.2782 55.4667C25.1213 55.4667 26.9563 55.4743 28.7994 55.459C29.116 55.459 29.2297 55.5511 29.2297 55.8427C29.2216 57.1242 29.2216 58.3981 29.2297 59.6796C29.2297 59.9866 29.0998 60.071 28.7913 60.071C25.0969 60.0633 21.4026 60.0633 17.7165 60.071C17.3836 60.071 17.2699 59.9789 17.2699 59.6566C17.2861 58.3904 17.2861 57.1242 17.2699 55.858C17.2618 55.5281 17.3917 55.4513 17.7165 55.459C19.5677 55.4743 21.427 55.4667 23.2782 55.4667Z" fill="#CA0026"/>
<path d="M29.1647 23.9655C25.2187 23.9655 21.289 23.9655 17.3186 23.9655C17.3024 23.8427 17.278 23.7199 17.278 23.5971C17.278 22.3463 17.2861 21.0954 17.2699 19.8369C17.2618 19.507 17.3917 19.4379 17.7165 19.4379C21.4108 19.4456 25.0969 19.4456 28.7913 19.4456C29.0186 19.4456 29.2297 19.4225 29.2297 19.7448C29.2216 21.0647 29.2297 22.377 29.2216 23.6969C29.2216 23.7736 29.1891 23.858 29.1647 23.9655Z" fill="#CA0026"/>
</svg>
