<svg width="80" height="80" viewBox="0 0 80 80" fill="none" xmlns="http://www.w3.org/2000/svg">
<g clip-path="url(#clip0_561_221)">
<path d="M79.5123 11.52C79.5123 32.664 79.5123 53.816 79.5123 74.96C79.41 75.232 79.2999 75.504 79.2134 75.784C78.8436 76.992 78.0884 77.896 77.0342 78.56C76.0744 79.168 75.0124 79.296 73.9188 79.296C57.9409 79.296 41.955 79.296 25.9771 79.296C19.4317 79.296 12.8942 79.296 6.34878 79.296C5.271 79.296 4.21681 79.144 3.28064 78.544C2.25005 77.88 1.50268 76.992 1.13293 75.792C1.04639 75.512 0.936256 75.24 0.833984 74.968C0.833984 53.824 0.833984 32.672 0.833984 11.528C0.881187 11.44 0.959857 11.36 0.975591 11.264C1.1172 10.424 1.47908 9.696 2.01404 9.056C3.06823 7.8 4.41349 7.2 6.0341 7.2C8.65383 7.208 11.2736 7.2 13.9011 7.2C14.4597 7.2 14.4597 7.2 14.4597 7.768C14.4597 10.232 14.4597 12.704 14.4597 15.168C14.4597 16.152 14.4676 17.144 14.8688 18.056C15.4903 19.464 16.4815 20.512 17.8897 21.128C19.0462 21.64 20.2656 21.608 21.485 21.552C23.1135 21.472 24.4509 20.76 25.4893 19.496C26.3783 18.408 26.7874 17.128 26.7874 15.72C26.7952 13.04 26.7874 10.36 26.7874 7.68C26.7874 7.528 26.7874 7.368 26.7874 7.216C35.9367 7.216 45.0232 7.216 54.149 7.216C54.149 7.4 54.149 7.552 54.149 7.712C54.149 10.256 54.1647 12.808 54.1411 15.352C54.1332 16.984 54.558 18.44 55.6516 19.656C56.5012 20.592 57.5475 21.224 58.7827 21.392C59.7188 21.512 60.6865 21.48 61.6384 21.432C63.1017 21.352 64.384 20.808 65.391 19.688C65.9495 19.064 66.2957 18.32 66.4058 17.488C66.4845 16.88 66.4609 16.264 66.4609 15.648C66.4688 12.992 66.4688 10.344 66.453 7.688C66.453 7.28 66.571 7.176 66.9722 7.176C69.411 7.192 71.8498 7.192 74.2886 7.184C75.0674 7.184 75.8227 7.32 76.5228 7.656C77.8366 8.288 78.7728 9.28 79.1976 10.72C79.3078 11 79.4179 11.256 79.5123 11.52ZM5.8925 27.512C5.8925 27.696 5.8925 27.848 5.8925 28.008C5.8925 43.216 5.8925 58.432 5.8925 73.64C5.8925 74.208 5.8925 74.208 6.45892 74.208C28.9429 74.208 51.427 74.208 73.911 74.208C74.4695 74.208 74.4695 74.208 74.4695 73.632C74.4695 58.424 74.4695 43.208 74.4695 28C74.4695 27.848 74.4695 27.688 74.4695 27.512C51.5843 27.512 28.7699 27.512 5.8925 27.512Z" fill="#CA0026"/>
<path d="M16.9771 9.92C16.9771 7.936 16.9613 5.952 16.9849 3.96C17.0007 2.592 17.6379 1.56 18.8809 1.056C20.2183 0.512 22.6649 0.592 23.6326 2C24.1046 2.688 24.3091 3.432 24.317 4.208C24.3485 8.008 24.3564 11.808 24.317 15.6C24.3013 17.056 23.7427 18.312 22.2795 18.776C20.8083 19.24 19.3057 19.304 18.0076 18.192C17.3468 17.624 16.9928 16.872 16.9849 15.992C16.9692 13.976 16.9771 11.944 16.9771 9.92Z" fill="#CA0026"/>
<path d="M64.0141 9.84C64.0141 11.728 63.9826 13.624 64.022 15.512C64.0613 17.208 63.07 18.544 61.7169 18.792C60.348 19.048 58.9162 19.2 57.7362 18.12C57.1698 17.6 56.7843 16.976 56.7607 16.176C56.7135 14.904 56.6663 13.624 56.6584 12.352C56.6427 9.632 56.6348 6.92 56.6741 4.2C56.682 3.624 56.8079 3.008 57.036 2.48C57.571 1.256 58.6094 0.736002 59.8839 0.696002C60.7335 0.672002 61.591 0.640002 62.3699 1.08C63.3769 1.656 63.9748 2.528 63.9905 3.712C64.0298 5.768 64.0062 7.808 64.0141 9.84C64.0062 9.84 64.0062 9.84 64.0141 9.84Z" fill="#CA0026"/>
<path d="M32.5459 69.2C31.1299 69.2 29.7138 69.2 28.2977 69.2C27.6054 69.2 27.4009 69.008 27.4009 68.32C27.4009 65.8 27.4009 63.288 27.4009 60.768C27.4009 60.104 27.629 59.872 28.2899 59.872C31.122 59.872 33.9463 59.864 36.7784 59.872C37.4156 59.872 37.7382 60.24 37.7303 60.848C37.7067 63.312 37.7224 65.776 37.7224 68.24C37.7224 68.952 37.4786 69.2 36.7941 69.2C35.3781 69.2 33.962 69.2 32.5459 69.2Z" fill="#CA0026"/>
<path d="M17.7639 69.2C16.3478 69.2 14.9318 69.2 13.5157 69.2C12.8706 69.2 12.6346 68.968 12.6346 68.32C12.6346 65.8 12.6346 63.28 12.6267 60.76C12.6267 60.192 12.7841 59.888 13.5157 59.88C16.3557 59.848 19.2036 59.856 22.0514 59.88C22.6808 59.888 22.9719 60.168 22.964 60.792C22.9483 63.296 22.9561 65.8 22.9561 68.312C22.9561 68.96 22.7123 69.208 22.0829 69.208C20.6432 69.2 19.2036 69.2 17.7639 69.2Z" fill="#CA0026"/>
<path d="M62.008 69.2C60.5919 69.2 59.1759 69.2 57.7598 69.2C57.1304 69.2 56.9102 68.984 56.9102 68.352C56.9102 65.808 56.9102 63.264 56.9102 60.72C56.9102 60.128 57.1462 59.872 57.7283 59.872C60.6077 59.864 63.4949 59.856 66.3742 59.88C66.917 59.888 67.2396 60.208 67.2396 60.768C67.2239 63.288 67.2317 65.8 67.2317 68.32C67.2317 68.928 66.9721 69.2 66.3742 69.2C64.9188 69.2 63.4634 69.2 62.008 69.2Z" fill="#CA0026"/>
<path d="M47.2572 69.2C45.8412 69.2 44.4251 69.2 43.009 69.2C42.3718 69.2 42.1358 68.96 42.1358 68.312C42.1358 65.808 42.1437 63.304 42.1279 60.792C42.1279 60.216 42.2853 59.88 43.0641 59.872C45.8648 59.848 48.6733 59.856 51.4818 59.872C52.1978 59.872 52.4731 60.184 52.4652 60.84C52.4416 63.32 52.4574 65.8 52.4574 68.28C52.4574 68.976 52.2292 69.208 51.5369 69.208C50.113 69.2 48.689 69.2 47.2572 69.2Z" fill="#CA0026"/>
<path d="M47.2574 43.12C45.8178 43.12 44.3702 43.12 42.9305 43.12C42.3877 43.12 42.1438 42.888 42.1438 42.328C42.136 39.768 42.136 37.208 42.1438 34.648C42.1438 34.064 42.3169 33.88 42.8991 33.88C45.8335 33.872 48.7679 33.872 51.7102 33.88C52.2687 33.88 52.4575 34.088 52.4654 34.656C52.4654 37.2 52.4654 39.744 52.4654 42.296C52.4654 42.88 52.2294 43.112 51.663 43.12C50.1918 43.12 48.7286 43.12 47.2574 43.12Z" fill="#CA0026"/>
<path d="M47.2968 56.12C45.8571 56.12 44.4096 56.12 42.9699 56.12C42.2855 56.12 42.1439 55.968 42.136 55.264C42.136 52.768 42.136 50.28 42.136 47.784C42.136 47.088 42.3405 46.88 43.0092 46.88C45.865 46.88 48.7286 46.88 51.5843 46.88C52.2294 46.88 52.4576 47.104 52.4576 47.752C52.4576 50.256 52.4576 52.768 52.4576 55.272C52.4576 55.952 52.2923 56.12 51.6158 56.12C50.184 56.12 48.7443 56.12 47.2968 56.12Z" fill="#CA0026"/>
<path d="M17.756 56.12C16.3242 56.12 14.9002 56.12 13.4684 56.12C12.784 56.12 12.6345 55.968 12.6345 55.264C12.6345 52.76 12.6345 50.248 12.6345 47.744C12.6345 47.088 12.8548 46.872 13.5078 46.872C16.3635 46.872 19.2271 46.872 22.0828 46.872C22.7279 46.872 22.9561 47.096 22.9561 47.744C22.9561 50.264 22.9561 52.784 22.9561 55.304C22.9561 55.92 22.7751 56.112 22.1536 56.112C20.6904 56.12 19.2271 56.12 17.756 56.12Z" fill="#CA0026"/>
<path d="M62.0551 33.88C63.4791 33.88 64.9109 33.88 66.3348 33.88C67.035 33.88 67.2238 34.064 67.2238 34.768C67.2238 37.256 67.2238 39.752 67.2238 42.24C67.2238 42.888 66.9878 43.12 66.3506 43.12C63.4791 43.12 60.6155 43.112 57.744 43.128C57.2405 43.128 56.8944 42.872 56.9022 42.272C56.9258 39.744 56.918 37.208 56.9101 34.68C56.9101 34.08 57.1068 33.872 57.6968 33.872C59.1522 33.888 60.6076 33.88 62.0551 33.88Z" fill="#CA0026"/>
<path d="M32.5067 56.12C31.0907 56.12 29.6746 56.112 28.2664 56.12C27.6056 56.128 27.401 55.968 27.4089 55.272C27.4168 52.768 27.4246 50.264 27.401 47.76C27.3931 47.12 27.7236 46.864 28.29 46.864C31.13 46.888 33.9779 46.872 36.8179 46.872C37.5023 46.872 37.7305 47.104 37.7305 47.8C37.7305 50.28 37.7305 52.752 37.7305 55.232C37.7305 55.904 37.5338 56.112 36.8729 56.112C35.4175 56.12 33.9621 56.12 32.5067 56.12Z" fill="#CA0026"/>
<path d="M62.0394 56.12C60.6076 56.12 59.1837 56.112 57.7597 56.12C57.1225 56.128 56.9101 55.968 56.9101 55.256C56.9258 52.752 56.9337 50.248 56.9022 47.744C56.8944 47.12 57.2484 46.864 57.7676 46.864C60.6233 46.888 63.4791 46.872 66.3348 46.872C66.9957 46.872 67.2238 47.104 67.2238 47.776C67.2238 50.24 67.2159 52.704 67.2317 55.168C67.2395 55.808 67.0271 56.144 66.2797 56.128C64.8637 56.096 63.4555 56.12 62.0394 56.12Z" fill="#CA0026"/>
</g>
<defs>
<clipPath id="clip0_561_221">
<rect width="80" height="80" fill="white"/>
</clipPath>
</defs>
</svg>
