<svg width="60" height="60" viewBox="0 0 60 60" fill="none" xmlns="http://www.w3.org/2000/svg">
<path d="M49.0022 60C35.2838 60 21.5655 60 7.84708 60C7.84708 59.8604 7.72237 59.9003 7.63774 59.8884C7.31706 59.8405 6.99191 59.8126 6.68458 59.7329C6.40844 59.6611 6.15456 59.5295 5.89622 59.4099C5.62898 59.2863 5.34838 59.1786 5.12123 59.0112C4.56447 58.5965 4.06562 58.138 3.69594 57.5638C3.45097 57.181 3.28172 56.7743 3.157 56.3636C3.03675 55.9729 3.01002 55.5502 3.00557 55.1396C2.99666 51.0207 3.00111 46.9059 3.00111 42.7871C3.00111 30.1555 3.00111 17.5279 3.00557 4.89633C3.00557 4.47368 3.09465 4.05104 3.13919 3.62839C3.13919 3.61643 3.14364 3.60048 3.1481 3.58852C3.27281 3.29745 3.38416 3.00239 3.52669 2.72329C3.65585 2.47608 3.79393 2.22089 3.98545 2.00957C4.23042 1.73445 4.52884 1.49522 4.80944 1.24402C5.13013 0.960925 5.49982 0.745614 5.90959 0.57815C6.12783 0.490431 6.32826 0.366826 6.57769 0.326954C6.78257 0.295056 6.96964 0.15949 7.17007 0.131579C7.66447 0.0677831 8.16332 0.00797444 8.65771 0.00797444C13.5705 -4.57492e-08 18.4877 0.00398724 23.4005 0C23.9617 0 24.5051 0.0199362 25.0351 0.223285C25.3692 0.350877 25.6765 0.494418 25.9616 0.69378C26.3892 0.99681 26.7321 1.36364 26.9192 1.80622C27.0439 2.0933 27.2131 2.11722 27.4848 2.11722C35.9564 2.11324 44.4235 2.11324 52.895 2.11324C53.0821 2.11324 53.2647 2.11723 53.4518 2.12121C53.5052 2.12121 53.5542 2.1252 53.6076 2.13317C53.9595 2.20494 54.3114 2.26874 54.6543 2.35247C54.8548 2.40032 55.0463 2.47209 55.2334 2.54785C55.4204 2.62759 55.612 2.71132 55.7812 2.81898C56.0885 3.01834 56.4404 3.19777 56.6631 3.45694C56.9259 3.76396 57.2109 4.05502 57.4069 4.41786C57.594 4.76475 57.7588 5.11962 57.8523 5.48644C57.9592 5.90909 57.9949 6.35167 57.9949 6.78628C58.0038 22.1013 57.9993 37.4123 57.9949 52.7273C57.9949 53.13 57.937 53.5287 57.9058 53.9314C57.8746 54.382 57.7143 54.7966 57.5005 55.2073C57.2065 55.7616 56.819 56.252 56.2934 56.6467C55.9148 56.9298 55.5095 57.173 55.0374 57.3246C54.886 57.3724 54.7345 57.4163 54.5831 57.4522C54.2713 57.5239 53.964 57.6316 53.6477 57.6396C52.6679 57.6675 51.688 57.6555 50.7081 57.6555C50.6146 57.6555 50.521 57.6555 50.374 57.6555C50.4364 57.8549 50.5032 58.0064 50.5255 58.1659C50.5611 58.4649 50.4408 58.736 50.3072 59.0072C50.0756 59.4976 49.6748 59.7847 49.1046 59.9003C49.069 59.9043 49.0378 59.9641 49.0022 60ZM41.9025 37.3724C41.9203 37.4641 41.9159 37.5279 41.9381 37.5797C42.0896 37.9266 42.2588 38.2695 42.4013 38.6204C42.5528 38.9872 42.6864 39.362 42.8289 39.7329C42.8735 39.8485 42.9269 39.9601 42.9804 40.0718C43.0561 40.2313 43.1363 40.3907 43.2075 40.5542C43.2699 40.7057 43.3144 40.8612 43.3768 41.0088C43.4926 41.2879 43.6262 41.563 43.7376 41.8461C43.7955 41.9896 43.8712 42.0813 44.0582 42.0734C44.2587 42.0654 44.4591 42.0614 44.6595 42.0734C45.1807 42.1093 45.7107 41.9936 46.2318 42.177C46.5169 42.2767 46.8019 42.3604 47.0335 42.5399C47.2919 42.7352 47.5858 42.9227 47.7595 43.1699C47.911 43.3852 48.0134 43.6443 48.1025 43.9035C48.2851 44.4258 48.2049 44.9282 48.0268 45.4067C47.911 45.7177 47.6927 46.0128 47.4032 46.248C47.0424 46.5431 46.646 46.7783 46.1605 46.87C45.9824 46.9019 45.9111 47.0175 45.9868 47.173C46.1472 47.5199 46.3075 47.8628 46.459 48.2097C46.6817 48.7201 46.8999 49.2344 47.1181 49.7448C47.2518 50.0598 47.3943 50.3748 47.519 50.6898C47.6259 50.953 47.7105 51.2241 47.813 51.4912C47.862 51.6188 47.9154 51.7424 47.9689 51.866C48.0401 52.0295 48.1292 52.193 48.1916 52.3604C48.2495 52.5239 48.3341 52.6276 48.5523 52.6236C49.7906 52.6156 51.0332 52.6196 52.2714 52.6196C52.6411 52.6196 52.6411 52.6196 52.6411 52.2847C52.6411 37.3644 52.6411 22.4402 52.6456 7.51994C52.6456 7.24083 52.5877 7.12919 52.2091 7.13317C44.6595 7.13716 37.11 7.13716 29.5604 7.13716C29.4936 7.13716 29.4268 7.13317 29.36 7.13716C29.213 7.14514 29.1551 7.23285 29.213 7.34848C29.3377 7.59968 29.458 7.85088 29.5782 8.10207C29.6317 8.21372 29.6718 8.32536 29.7163 8.437C29.7742 8.5925 29.8232 8.75199 29.89 8.9075C30.0058 9.17464 30.1305 9.44179 30.2463 9.70893C30.3577 9.9681 30.4601 10.2273 30.567 10.4864C30.6739 10.7416 30.7853 10.9928 30.8966 11.248C31.0169 11.5191 31.1371 11.7903 31.2574 12.0614C31.3598 12.3006 31.4712 12.5359 31.5469 12.7831C31.6226 13.0343 31.6983 13.11 31.9879 13.11C36.522 13.11 41.0607 13.114 45.5949 13.1061C46.1026 13.1061 46.5926 13.1419 47.0513 13.3493C47.3898 13.5008 47.715 13.6762 47.9555 13.9434C48.1871 14.2026 48.4232 14.4657 48.4989 14.8046C48.5657 15.1116 48.6681 15.4187 48.6726 15.7297C48.6726 15.9848 48.5568 16.24 48.4766 16.4912C48.3475 16.9099 48.0535 17.2249 47.7016 17.5159C47.4299 17.7432 47.1092 17.9107 46.7752 18.0104C46.4278 18.11 46.0403 18.1419 45.6706 18.1419C41.8268 18.1499 37.9785 18.1459 34.1347 18.1499C34.0189 18.1499 33.9075 18.1619 33.7784 18.1659C33.8318 18.3014 33.8719 18.4131 33.912 18.5207C33.9654 18.6603 34.0189 18.7998 34.0812 18.9354C34.1525 19.0949 34.2371 19.2464 34.3039 19.4059C34.4108 19.6531 34.4999 19.9083 34.6068 20.1555C34.7271 20.4466 34.8518 20.7337 34.9765 21.0207C35.0878 21.2759 35.1992 21.5271 35.3061 21.7823C35.4085 22.0175 35.5243 22.2488 35.6001 22.492C35.698 22.807 35.7381 22.8469 36.0855 22.8469C39.3949 22.8469 42.7087 22.8469 46.018 22.8509C46.6549 22.8509 47.2028 23.0542 47.7061 23.4131C48.3742 23.8836 48.6147 24.5175 48.686 25.2273C48.7038 25.3987 48.6325 25.5782 48.6013 25.7536C48.5434 26.1085 48.3608 26.4234 48.1203 26.6986C47.8931 26.9537 47.6304 27.177 47.2919 27.3285C46.9311 27.492 46.5703 27.6316 46.1694 27.6356C43.5104 27.6475 40.8558 27.6435 38.1968 27.6435C38.0899 27.6435 37.9785 27.6435 37.8404 27.6435C37.8582 27.7313 37.8627 27.7911 37.885 27.8429C38.0008 28.118 38.121 28.3892 38.2368 28.6643C38.3348 28.8995 38.4195 29.1388 38.5264 29.37C38.6377 29.6172 38.7802 29.8565 38.8871 30.1077C38.9985 30.3708 39.0787 30.638 39.1766 30.9051C39.2212 31.0287 39.2791 31.1483 39.3325 31.2679C39.4483 31.5311 39.582 31.7903 39.6755 32.0614C39.7601 32.3086 39.7868 32.3445 40.0808 32.3445C41.9426 32.3445 43.8088 32.3485 45.6706 32.3405C46.1294 32.3405 46.5614 32.3884 46.9845 32.5598C47.4923 32.7632 47.9021 33.0502 48.196 33.4689C48.3296 33.6563 48.4499 33.8636 48.5123 34.0789C48.6013 34.3939 48.6815 34.7249 48.6637 35.0439C48.6414 35.4027 48.539 35.7656 48.3207 36.0805C48.1782 36.2839 48.0179 36.4833 47.8263 36.6507C47.6304 36.8182 47.3943 36.9498 47.1627 37.0734C46.8643 37.2368 46.5302 37.3525 46.1828 37.3565C44.8778 37.3684 43.5683 37.3644 42.2633 37.3684C42.1475 37.3724 42.045 37.3724 41.9025 37.3724Z" fill="#CA0026"/>
</svg>
