<svg width="60" height="60" viewBox="0 0 60 60" fill="none" xmlns="http://www.w3.org/2000/svg">
<g clip-path="url(#clip0_557_11)">
<path d="M52.0933 60C37.3586 60 22.6238 60 7.88907 60C7.8373 59.9641 7.78951 59.8924 7.73774 59.8924C7.31163 59.8805 6.90144 59.8008 6.50321 59.6534C6.16072 59.5259 5.80231 59.4422 5.46381 59.2988C5.06955 59.1315 4.69123 58.9243 4.3129 58.7251C3.65581 58.3865 3.11421 57.8924 2.58854 57.3825C2.15048 56.9562 1.76817 56.4861 1.44162 55.9721C1.26241 55.6892 1.11108 55.3865 0.955768 55.0876C0.860191 54.9004 0.784526 54.7052 0.700897 54.51C0.629214 54.3466 0.545584 54.1833 0.489831 54.0159C0.430096 53.8327 0.394254 53.6454 0.346466 53.4582C0.274783 53.1474 0.199118 52.8406 0.131418 52.5299C0.0796473 52.2869 0.043806 52.0398 0 51.7928C0.00398237 37.2629 0.00398237 22.7371 0.00398237 8.20717C0.043806 8.02789 0.0915944 7.84861 0.123453 7.66932C0.175224 7.34661 0.215048 7.01992 0.258854 6.69721C0.262836 6.67729 0.270801 6.65737 0.274783 6.64143C0.382307 6.34263 0.485849 6.04383 0.593373 5.749C0.680985 5.50598 0.760632 5.25896 0.872138 5.02789C0.995592 4.76892 1.14294 4.51793 1.29825 4.2749C1.54118 3.90438 1.75622 3.50996 2.0549 3.18725C2.51287 2.69323 3.01465 2.23904 3.5244 1.79681C3.79121 1.56574 4.09387 1.35857 4.40848 1.19522C4.85052 0.964143 5.31646 0.768924 5.7824 0.577689C6.07709 0.454183 6.37577 0.334661 6.68241 0.258964C7.00897 0.179283 7.35543 0.163347 7.68995 0.10757C7.76163 0.0956175 7.82535 0.0358566 7.88907 0C22.6358 0 37.3865 0 52.1332 0C52.165 0.0358566 52.1889 0.0956175 52.2248 0.0996016C52.5115 0.151394 52.8022 0.187251 53.0929 0.23506C53.3159 0.2749 53.5429 0.302789 53.754 0.378486C54.1164 0.505976 54.4748 0.645418 54.8213 0.816733C55.2872 1.04781 55.7611 1.27888 56.1912 1.57371C56.5974 1.85259 56.9678 2.19522 57.3262 2.53785C57.7682 2.96016 58.1864 3.40637 58.485 3.95219C58.6125 4.18725 58.8036 4.39044 58.9231 4.63347C59.1103 5.01594 59.2855 5.40637 59.4249 5.80877C59.5882 6.27888 59.7514 6.76096 59.8391 7.251C59.9306 7.75697 59.9346 8.2749 59.9745 8.78885C59.9824 8.9004 59.9745 9.01594 59.9745 9.12749C59.9745 22.008 59.9784 34.8884 59.9665 47.7689C59.9665 49.3307 60.0899 50.8964 59.8629 52.4542C59.8191 52.753 59.7714 53.0518 59.7196 53.3466C59.6917 53.4861 59.6519 53.6255 59.6041 53.761C59.5005 54.0518 59.393 54.3466 59.2736 54.6335C59.1621 54.9004 59.0426 55.1673 58.9032 55.4183C58.7758 55.6494 58.6204 55.8606 58.4691 56.0797C58.2939 56.3347 58.1386 56.6016 57.9355 56.8327C57.4934 57.3307 57.0434 57.8247 56.4859 58.2032C56.1036 58.4622 55.7173 58.7251 55.3111 58.9482C54.9567 59.1434 54.5783 59.2869 54.2 59.4382C53.9013 59.5578 53.6027 59.6813 53.292 59.753C52.9496 59.8327 52.5951 59.8486 52.2447 59.9004C52.1929 59.9004 52.1451 59.9641 52.0933 60ZM39.529 50.51C39.529 50.5259 39.533 50.5379 39.533 50.5538C40.0268 50.498 40.5246 50.4462 41.0184 50.3785C41.1856 50.3586 41.3449 50.3068 41.5082 50.259C41.6317 50.2271 41.7511 50.1833 41.8706 50.1394C41.9901 50.0996 42.1135 50.0637 42.229 50.008C42.4321 49.9084 42.6352 49.7968 42.8343 49.6853C43.1967 49.4781 43.5751 49.2948 43.9096 49.0518C44.6423 48.5139 45.2795 47.8725 45.7893 47.1116C46.0879 46.6693 46.3707 46.2112 46.6136 45.7331C46.7849 45.3984 46.8844 45.0279 47.0039 44.6733C47.1194 44.3307 47.2548 43.988 47.3265 43.6335C47.4101 43.2231 47.434 42.7968 47.4818 42.3785C47.4897 42.3187 47.4977 42.259 47.5017 42.1992C47.5136 41.749 47.5534 41.2988 47.5296 40.8526C47.5057 40.4223 47.418 39.996 47.3503 39.5657C47.3105 39.3187 47.2667 39.0757 47.203 38.8367C47.1552 38.6574 47.0716 38.4861 47.0079 38.3108C46.9641 38.1912 46.9282 38.0677 46.8844 37.9482C46.7968 37.7131 46.7211 37.4701 46.6136 37.243C46.522 37.0438 46.3986 36.8566 46.2871 36.6653C46.1477 36.4303 46.0242 36.1873 45.8649 35.9641C45.6339 35.6454 45.3791 35.3386 45.1242 35.0359C44.6941 34.5259 44.1724 34.1116 43.6348 33.7291C43.3959 33.5618 43.145 33.4104 42.8861 33.2789C42.6113 33.1394 42.3246 33.008 42.0339 32.9044C41.7272 32.7968 41.4087 32.7092 41.0901 32.6414C40.7078 32.5618 40.3175 32.4781 39.9272 32.4502C39.4692 32.4183 39.0033 32.4143 38.5493 32.5379C38.2586 32.6175 37.94 32.6016 37.6573 32.6932C37.1913 32.8446 36.7413 33.0518 36.2873 33.239C35.7059 33.4821 35.1962 33.8526 34.7223 34.259C34.2882 34.6335 33.886 35.0598 33.5275 35.5139C33.205 35.9203 32.966 36.3944 32.6833 36.8367C32.4762 37.1633 32.3089 37.506 32.2054 37.8805C32.1696 38.008 32.1138 38.1315 32.07 38.255C32.0063 38.4303 31.9266 38.6016 31.8789 38.7769C31.8151 39.0159 31.7753 39.2629 31.7355 39.506C31.6638 39.9522 31.5603 40.3984 31.5403 40.8486C31.5125 41.4542 31.4687 42.0637 31.616 42.6693C31.7196 43.0996 31.7634 43.5458 31.8669 43.9761C31.9545 44.3426 32.078 44.7052 32.2174 45.0598C32.3528 45.4064 32.52 45.7371 32.6873 46.0677C32.8386 46.3626 32.9939 46.6614 33.1811 46.9402C33.5037 47.4263 33.878 47.8645 34.3001 48.2749C34.6785 48.6454 35.0886 48.9721 35.5187 49.2709C35.7378 49.4223 35.9847 49.5379 36.2236 49.6574C36.4068 49.749 36.598 49.8287 36.7851 49.9124C36.9444 49.9841 37.0997 50.0637 37.267 50.1195C37.4542 50.1793 37.6533 50.2231 37.8484 50.2629C38.2108 50.3386 38.5732 50.4183 38.9396 50.4741C39.1268 50.5339 39.3299 50.51 39.529 50.51ZM28.4779 18.51C28.4899 18.51 28.5018 18.506 28.5177 18.506C28.462 17.9163 28.4142 17.3267 28.3505 16.7371C28.3306 16.5378 28.2708 16.3426 28.227 16.1434C28.223 16.1235 28.2151 16.1076 28.2071 16.0876C28.1434 15.8924 28.0797 15.6932 28.012 15.498C27.9164 15.2151 27.8248 14.9283 27.7133 14.6534C27.5978 14.3785 27.4624 14.1116 27.323 13.8446C27.1996 13.6016 27.0721 13.3586 26.9248 13.1315C26.7973 12.9363 26.6301 12.7729 26.4987 12.5817C26.1761 12.1116 25.7739 11.7171 25.3438 11.3506C25.0571 11.1036 24.7544 10.8765 24.4438 10.6653C24.2367 10.5219 24.0017 10.4143 23.7747 10.3028C23.5995 10.2151 23.4163 10.1355 23.2371 10.0558C23.0738 9.98406 22.9106 9.9004 22.7393 9.84462C22.5521 9.78486 22.357 9.74502 22.1619 9.7012C21.8234 9.62948 21.4889 9.54582 21.1504 9.49402C20.9632 9.46614 20.7641 9.49402 20.5729 9.47809C20.0353 9.43426 19.5096 9.54183 18.98 9.61355C18.8008 9.63745 18.6216 9.67729 18.4503 9.74104C18.1795 9.84064 17.9127 9.95618 17.6499 10.0717C17.3671 10.1952 17.0605 10.2908 16.8096 10.4622C16.2879 10.8207 15.7702 11.1952 15.2963 11.6135C14.9339 11.9323 14.6193 12.3187 14.3166 12.7012C14.0936 12.9841 13.9064 13.3028 13.7272 13.6215C13.552 13.9243 13.3847 14.2351 13.2533 14.5578C13.106 14.9283 12.9905 15.3147 12.879 15.6972C12.7595 16.0996 12.6241 16.498 12.5604 16.9084C12.4847 17.3944 12.4409 17.8924 12.4409 18.3825C12.4409 18.9363 12.5046 19.4861 12.5524 20.0359C12.5723 20.255 12.6321 20.4661 12.6719 20.6853C12.6759 20.6972 12.6759 20.7131 12.6799 20.7251C12.7476 20.9323 12.8232 21.1394 12.8869 21.3466C12.9785 21.6375 13.0383 21.9402 13.1577 22.2191C13.3131 22.5817 13.5082 22.9203 13.6874 23.2709C13.9463 23.7729 14.2688 24.2231 14.6312 24.6534C15.0772 25.1793 15.5472 25.6733 16.1326 26.0478C16.4034 26.2191 16.6383 26.4542 16.9251 26.5936C17.4667 26.8526 18.0242 27.0916 18.5937 27.2789C18.9999 27.4104 19.4419 27.4622 19.868 27.5179C20.5291 27.6016 21.1862 27.4781 21.8433 27.4064C21.8672 27.4024 21.8951 27.3904 21.9189 27.3825C22.138 27.3187 22.361 27.2629 22.576 27.1912C22.8548 27.0996 23.1376 27.0159 23.4004 26.8884C23.711 26.741 24.0177 26.5697 24.3044 26.3825C24.6827 26.1355 25.065 25.8805 25.4075 25.5857C26.0327 25.0438 26.5664 24.4183 26.9766 23.6932C27.1518 23.3865 27.3668 23.1036 27.5062 22.7809C27.7013 22.3386 27.8567 21.8765 28.008 21.4143C28.1314 21.0398 28.2509 20.6614 28.3266 20.2789C28.4022 19.8884 28.4261 19.4821 28.458 19.0837C28.4899 18.8964 28.4779 18.7052 28.4779 18.51ZM21.4331 46.3865C21.3933 46.9482 21.5844 47.3944 21.9628 47.745C22.1141 47.8845 22.2694 48.0398 22.4964 48.0837C22.7393 48.1315 22.9902 48.2749 23.2132 48.239C23.5079 48.1873 23.8185 48.1514 24.1013 47.9602C24.3761 47.7729 24.5871 47.5578 24.7305 47.2749C24.834 47.0757 24.9017 46.8645 24.9933 46.6614C25.0969 46.4303 25.2124 46.2032 25.3119 45.9721C25.4115 45.741 25.4832 45.498 25.5827 45.2629C25.7978 44.7649 26.0248 44.2749 26.2358 43.7769C26.3752 43.4502 26.4907 43.1116 26.6181 42.7809C26.658 42.6733 26.7018 42.5657 26.7496 42.4582C26.8571 42.2112 26.9726 41.9641 27.0801 41.7171C27.1717 41.498 27.2553 41.2749 27.3469 41.0558C27.4505 40.8128 27.562 40.5737 27.6655 40.3267C27.7929 40.0239 27.9084 39.7131 28.0319 39.4104C28.1792 39.0478 28.3345 38.6813 28.4859 38.3187C28.5337 38.2072 28.5775 38.0956 28.6253 37.988C28.7328 37.749 28.8483 37.5139 28.9518 37.2709C29.0474 37.0478 29.1231 36.8167 29.2186 36.5896C29.358 36.2669 29.5093 35.9482 29.6447 35.6215C29.7762 35.3028 29.8956 34.9801 30.0231 34.6614C30.2102 34.2112 30.4014 33.7649 30.5886 33.3147C30.6364 33.1992 30.6762 33.0757 30.7279 32.9602C30.8315 32.7251 30.951 32.494 31.0505 32.255C31.1461 32.0239 31.2257 31.7888 31.3213 31.5578C31.4249 31.3068 31.5443 31.0637 31.6479 30.8128C31.7713 30.5139 31.8828 30.2112 32.0063 29.9124C32.1536 29.5538 32.3129 29.2032 32.4643 28.8446C32.512 28.7331 32.5479 28.6135 32.5997 28.502C32.7072 28.2669 32.8267 28.0398 32.9262 27.8048C33.0218 27.5737 33.0975 27.3347 33.193 27.1076C33.3284 26.7888 33.4837 26.4781 33.6191 26.1554C33.7545 25.8327 33.87 25.502 34.0015 25.1793C34.1886 24.7131 34.3838 24.255 34.5789 23.7888C34.6267 23.6773 34.6705 23.5618 34.7183 23.4542C34.8218 23.2231 34.9373 23 35.0329 22.7689C35.1285 22.5378 35.2041 22.2988 35.3037 22.0677C35.4431 21.7291 35.5984 21.3944 35.7417 21.0598C35.8333 20.8446 35.909 20.6255 36.0046 20.4104C36.144 20.0876 36.3033 19.7769 36.4347 19.4502C36.5701 19.1195 36.6816 18.7809 36.817 18.4502C36.9524 18.1275 37.1157 17.8207 37.2511 17.502C37.4263 17.0837 37.5776 16.6534 37.7568 16.2351C37.9719 15.7291 38.2028 15.2271 38.4219 14.7251C38.4657 14.6215 38.5095 14.5139 38.5453 14.4064C38.5971 14.2629 38.6329 14.1116 38.6927 13.9721C38.7922 13.7331 38.9555 13.51 38.9993 13.2669C39.1029 12.6892 39.0352 12.1195 38.625 11.6614C38.2506 11.239 37.7688 11.004 37.1993 11.0398C36.9524 11.0558 36.7055 11.1554 36.4745 11.247C36.1519 11.3745 35.905 11.6295 35.7537 11.9203C35.4829 12.4382 35.2758 12.992 35.0448 13.5299C34.9293 13.7968 34.8139 14.0637 34.7023 14.3347C34.6546 14.4502 34.6108 14.5697 34.5669 14.6892C34.5152 14.8247 34.4793 14.9681 34.4196 15.1036C34.3161 15.3386 34.1966 15.5697 34.097 15.8088C34.0015 16.0398 33.9218 16.2789 33.8262 16.51C33.6829 16.8566 33.5315 17.1992 33.3882 17.5458C33.3045 17.749 33.2289 17.9522 33.1373 18.1554C33.0337 18.3944 32.9143 18.6255 32.8107 18.8685C32.7151 19.0956 32.6435 19.3347 32.5519 19.5657C32.4443 19.8327 32.3209 20.0916 32.2094 20.3586C32.1576 20.4781 32.1138 20.5976 32.062 20.7171C31.9585 20.9522 31.847 21.1833 31.7474 21.4183C31.6439 21.6614 31.5443 21.9084 31.4408 22.1514C31.3134 22.4542 31.1859 22.757 31.0545 23.0598C30.943 23.3147 30.8315 23.5697 30.72 23.8287C30.6722 23.9442 30.6244 24.0598 30.5806 24.1793C30.5288 24.3227 30.489 24.4701 30.4332 24.6096C30.3257 24.8645 30.2102 25.1195 30.1027 25.3745C30.0111 25.5857 29.9315 25.8048 29.8399 26.0159C29.7005 26.3466 29.5531 26.6773 29.4098 27.008C29.3182 27.2231 29.2385 27.4422 29.1469 27.6534C29.0434 27.8924 28.9279 28.1235 28.8284 28.3665C28.7328 28.5936 28.6571 28.8327 28.5655 29.0598C28.458 29.3187 28.3385 29.5737 28.227 29.8327C28.1752 29.9562 28.1354 30.0876 28.0797 30.2112C27.9761 30.4462 27.8646 30.6733 27.7611 30.9084C27.6536 31.1514 27.554 31.3944 27.4544 31.6414C27.323 31.9641 27.1916 32.2869 27.0642 32.6056C26.9766 32.8247 26.8929 33.0478 26.7973 33.2669C26.6978 33.502 26.5823 33.7331 26.4827 33.9681C26.423 34.1076 26.3872 34.255 26.3234 34.3944C26.2239 34.6215 26.1044 34.8406 26.0128 35.0717C25.8774 35.3984 25.7659 35.7371 25.6265 36.0637C25.4553 36.4661 25.2681 36.8606 25.0889 37.2629C24.9296 37.6295 24.7743 37.996 24.619 38.3665C24.5712 38.4821 24.5274 38.6016 24.4836 38.7171C24.4318 38.8526 24.392 38.996 24.3323 39.1275C24.2287 39.3665 24.1172 39.6016 24.0137 39.8367C23.9101 40.0797 23.8106 40.3227 23.711 40.5657C23.5796 40.8884 23.4442 41.2112 23.3128 41.5339C23.2252 41.749 23.1455 41.9681 23.0539 42.1793C22.9544 42.4143 22.8349 42.6375 22.7353 42.8725C22.6398 43.0996 22.5641 43.3347 22.4765 43.5657C22.4327 43.6773 22.3849 43.7888 22.3331 43.9004C22.2336 44.1155 22.1221 44.3307 22.0225 44.5498C21.915 44.7968 21.8114 45.0478 21.7158 45.3028C21.5964 45.6653 21.3773 46.008 21.4331 46.3865Z" fill="#CA0026"/>
<path d="M43.9589 41.506C43.943 41.8447 43.9629 42.1873 43.9072 42.518C43.8395 42.9004 43.724 43.275 43.6006 43.6455C43.5011 43.9363 43.3657 44.2152 43.2343 44.4941C43.0233 44.9522 42.7167 45.3427 42.3664 45.7012C42.02 46.0558 41.6378 46.3666 41.1839 46.5698C40.8972 46.6973 40.5907 46.8009 40.2841 46.8646C39.9576 46.9323 39.6152 46.9881 39.2887 46.9642C38.6398 46.9164 38.0187 46.7331 37.4772 46.3546C37.1746 46.1475 36.864 45.9323 36.6252 45.6614C36.2748 45.267 35.9324 44.8487 35.7293 44.3467C35.586 43.9961 35.4228 43.6495 35.3033 43.2909C35.2277 43.0638 35.1879 42.8168 35.164 42.5777C35.1162 42.0877 35.0565 41.5937 35.0644 41.1036C35.0724 40.7451 35.1799 40.3825 35.2476 40.0279C35.2914 39.8048 35.3272 39.5738 35.4108 39.3626C35.5462 39.016 35.6935 38.6734 35.8727 38.3506C36.1155 37.9164 36.4221 37.5299 36.7844 37.1873C37.1069 36.8845 37.4493 36.6136 37.8594 36.4343C38.1062 36.3267 38.3531 36.2112 38.6039 36.1156C38.6875 36.0837 38.7871 36.1076 38.8786 36.0917C39.0658 36.0638 39.2489 36.024 39.436 35.9961C39.4997 35.9881 39.5674 35.9841 39.6351 35.9961C39.7824 36.02 39.9258 36.0758 40.0731 36.0837C40.3757 36.0957 40.6424 36.2032 40.9211 36.3068C41.5342 36.5379 42.0279 36.9244 42.4739 37.3785C42.7844 37.6973 43.0273 38.0718 43.2343 38.4702C43.3896 38.773 43.5289 39.0837 43.6643 39.3985C43.724 39.5419 43.7758 39.6973 43.7957 39.8487C43.8753 40.3945 43.939 40.9443 44.0067 41.4901C43.9868 41.502 43.9709 41.506 43.9589 41.506Z" fill="#CA0026"/>
<path d="M16.0611 18.4862C16.0611 18.1674 16.0332 17.8447 16.0691 17.53C16.0969 17.2631 16.1925 17.0001 16.2642 16.7372C16.304 16.5818 16.3518 16.4304 16.4075 16.279C16.4911 16.0479 16.5628 15.8129 16.6742 15.5977C16.7937 15.3666 16.941 15.1395 17.1082 14.9364C17.3511 14.6336 17.59 14.3268 17.8766 14.0678C18.1553 13.8168 18.4699 13.5937 18.8043 13.4224C19.0949 13.271 19.4254 13.1834 19.7479 13.1196C20.0744 13.0559 20.4168 13.0081 20.7433 13.036C21.237 13.0758 21.7107 13.2033 22.1606 13.4383C22.5986 13.6694 22.9928 13.9483 23.3312 14.3029C23.6497 14.6336 23.9403 14.9881 24.1394 15.4105C24.2668 15.6774 24.3703 15.9523 24.5017 16.2152C24.6331 16.4822 24.6849 16.765 24.7486 17.0519C24.86 17.5579 24.9835 18.0638 24.9476 18.5858C24.9198 19.0479 24.8839 19.5101 24.7406 19.9603C24.6729 20.1714 24.661 20.3945 24.5973 20.6057C24.5336 20.8168 24.45 21.028 24.3464 21.2232C24.1832 21.522 24.012 21.8248 23.805 22.0957C23.5701 22.4025 23.3192 22.7093 23.0286 22.9603C22.718 23.2272 22.3717 23.4662 22.0014 23.6415C21.6908 23.785 21.3564 23.9324 20.9861 23.9164C20.8508 23.9125 20.7114 23.9762 20.5721 24.0001C20.4964 24.0121 20.4128 24.0121 20.3372 24.0001C20.1699 23.9762 20.0067 23.9244 19.8395 23.9125C19.5727 23.8925 19.3259 23.8129 19.091 23.6893C18.8481 23.5619 18.5853 23.4623 18.3544 23.3148C17.8687 22.9961 17.4466 22.6017 17.1281 22.1156C16.949 21.8407 16.7977 21.5459 16.6384 21.2551C16.3876 20.8089 16.2761 20.3228 16.1487 19.8288C16.0293 19.3746 16.089 18.9284 16.0611 18.4862Z" fill="#CA0026"/>
</g>
<defs>
<clipPath id="clip0_557_11">
<rect width="60" height="60" fill="white"/>
</clipPath>
</defs>
</svg>
