<svg width="60" height="60" viewBox="0 0 60 60" fill="none" xmlns="http://www.w3.org/2000/svg">
<g clip-path="url(#clip0_557_23)">
<path d="M44.6274 0C44.8785 0 45.1335 0 45.3845 0C45.4323 0.0398354 45.4762 0.0876378 45.5319 0.111539C45.7391 0.211127 45.9782 0.262913 46.1496 0.402337C46.6237 0.796707 46.8708 1.31855 46.8708 1.94397C46.8708 2.46979 46.8708 2.99164 46.8708 3.51746C46.8708 3.58917 46.8747 3.66087 46.8787 3.73656C46.9425 3.74054 46.9863 3.74851 47.0341 3.74851C48.4805 3.80428 49.9349 3.629 51.3813 3.85606C51.5885 3.88793 51.7877 3.86801 52.0029 3.95565C52.3376 4.09507 52.7122 4.13889 53.0349 4.33409C53.3059 4.49741 53.6007 4.62887 53.8597 4.81211C54.1347 5.0073 54.3897 5.23038 54.6288 5.46541C54.9834 5.81596 55.2822 6.21432 55.5173 6.65649C55.6209 6.85168 55.7126 7.05484 55.7963 7.258C55.852 7.39344 55.8759 7.54083 55.9277 7.68026C55.9875 7.85155 56.0951 8.01089 56.123 8.18617C56.1867 8.60045 56.2505 9.02271 56.2505 9.44098C56.2585 17.1571 56.2545 24.8692 56.2545 32.5853C56.2545 32.653 56.2465 32.7208 56.2425 32.8164C53.3099 30.9122 50.1381 29.9363 46.6636 29.992C43.201 30.0478 40.0491 31.0875 37.1523 33.0713C37.1723 32.9837 37.1762 32.9598 37.1842 32.9359C37.2878 32.7088 37.4472 32.4937 37.487 32.2547C37.5787 31.7249 37.499 31.211 37.1603 30.7688C36.7818 30.2789 36.2996 29.9881 35.6581 29.9881C34.4109 29.992 33.1598 29.996 31.9126 29.9841C31.4823 29.9801 31.1037 30.1036 30.765 30.3506C30.3745 30.6334 30.1155 31.0278 30.0239 31.4898C29.9163 32.0316 30.0199 32.5694 30.3746 33.0076C30.7371 33.4577 31.2073 33.7445 31.813 33.7445C33.1359 33.7445 34.4548 33.7445 35.7777 33.7405C35.9052 33.7405 36.0327 33.6768 36.1642 33.6489C36.2199 33.637 36.2797 33.6489 36.3355 33.6489C36.1163 33.884 35.8693 34.0513 35.6581 34.2584C35.0525 34.8679 34.4508 35.4853 33.873 36.1187C33.6061 36.4095 33.3869 36.7481 33.1558 37.0708C32.9884 37.3058 32.833 37.5488 32.6776 37.7918C32.5342 38.0069 32.3868 38.222 32.2553 38.4411C32.1238 38.6602 32.0042 38.8833 31.8847 39.1104C31.7771 39.3175 31.6815 39.5286 31.5859 39.7358C31.4823 39.9628 31.3787 40.1939 31.283 40.4289C31.1834 40.6719 31.0878 40.9229 30.9961 41.1698C30.9005 41.4248 30.8009 41.6797 30.7212 41.9426C30.6614 42.1498 30.6335 42.3649 30.5857 42.576C30.5459 42.7473 30.4981 42.9146 30.4542 43.0859C30.3865 43.3369 30.3108 43.5839 30.259 43.8388C30.2072 44.0858 30.1674 44.3407 30.1395 44.5917C30.0916 45.0259 30.0199 45.4601 30.0239 45.8943C30.0319 46.7826 29.9442 47.671 30.0996 48.5673C30.1873 49.0851 30.2311 49.611 30.3387 50.1288C30.4144 50.4873 30.4702 50.8459 30.5857 51.1924C30.6893 51.5151 30.7611 51.8457 30.8487 52.1724C30.8846 52.3038 30.9364 52.4313 30.9842 52.5588C31.0838 52.8097 31.1794 53.0647 31.287 53.3117C31.3906 53.5507 31.5022 53.7857 31.6138 54.0247C31.7014 54.2159 31.7891 54.4111 31.8807 54.5983C31.9724 54.7856 32.06 54.9728 32.1636 55.1521C32.3748 55.5026 32.598 55.8452 32.845 56.2356C32.7055 56.2356 32.6099 56.2356 32.5143 56.2356C22.3854 56.2356 12.2606 56.2356 2.13176 56.2396C1.67353 56.2396 1.25116 56.1519 0.860672 55.901C0.474166 55.654 0.223137 55.3233 0.111569 54.8812C0.0956303 54.8254 0.0398459 54.7816 0 54.7338C0 39.4649 0 24.192 0 8.92312C0.0358613 8.8793 0.0956302 8.84345 0.0996148 8.79565C0.131492 8.50883 0.0916457 8.21405 0.231106 7.9352C0.310798 7.77586 0.322752 7.57668 0.374552 7.40141C0.406428 7.28987 0.450259 7.17833 0.506043 7.07874C0.605658 6.89152 0.729181 6.72022 0.828795 6.533C1.05592 6.10278 1.36273 5.72832 1.70142 5.38972C2.05605 5.03519 2.45849 4.72846 2.90875 4.49741C3.104 4.39384 3.30721 4.30222 3.51043 4.21458C3.65387 4.15483 3.80529 4.12694 3.94873 4.07516C4.12405 4.01142 4.29141 3.8959 4.46673 3.87996C5.1202 3.82021 5.78164 3.77241 6.4391 3.76046C7.33962 3.74054 8.24412 3.75647 9.14464 3.75647C9.21636 3.75647 9.2841 3.75647 9.37575 3.75647C9.37575 3.2426 9.38371 2.75262 9.37176 2.26265C9.36379 1.83641 9.40364 1.43009 9.60287 1.04369C9.84991 0.565662 10.2085 0.250963 10.7305 0.115523C10.7863 0.0995884 10.8301 0.0438189 10.8779 0.00398355C11.129 0.00398355 11.384 0.00398355 11.635 0.00398355C11.6828 0.0438189 11.7267 0.0916213 11.7785 0.115523C11.9817 0.215111 12.2207 0.274864 12.3921 0.414288C12.8742 0.808658 13.1173 1.3305 13.1133 1.9599C13.1093 2.48573 13.1133 3.00757 13.1133 3.5334C13.1133 3.6051 13.1213 3.67282 13.1213 3.74054C15.6355 3.74054 18.1259 3.74054 20.6362 3.74054C20.6362 3.2187 20.6442 2.71677 20.6322 2.21485C20.6203 1.79657 20.6681 1.39424 20.8713 1.0158C21.1183 0.557695 21.473 0.250963 21.979 0.115523C22.0428 0.0995884 22.0946 0.0438189 22.1543 0.00398355C22.3934 0.00398355 22.6325 0.00398355 22.8716 0.00398355C22.9074 0.0398354 22.9393 0.0916213 22.9791 0.107555C23.1027 0.159341 23.2342 0.19121 23.3577 0.242996C23.6246 0.354535 23.8518 0.541761 23.9992 0.772806C24.2502 1.16319 24.3897 1.5974 24.3738 2.07941C24.3538 2.56141 24.3698 3.0474 24.3698 3.5334C24.3698 3.6051 24.3698 3.67282 24.3698 3.74851C26.888 3.74851 29.3744 3.74851 31.8807 3.74851C31.8807 3.23463 31.8887 2.73271 31.8767 2.23078C31.8688 1.82446 31.9086 1.43806 32.0999 1.0636C32.3469 0.573629 32.7095 0.254946 33.2395 0.115523C33.2953 0.0995884 33.3391 0.0438189 33.3869 0.00398355C33.626 0.00398355 33.8651 0.00398355 34.1041 0.00398355C34.1559 0.0398354 34.1998 0.0916213 34.2555 0.115523C34.4627 0.211127 34.7058 0.25893 34.8771 0.398354C35.3394 0.776789 35.6023 1.27871 35.6143 1.8882C35.6183 2.19493 35.6143 2.49768 35.6143 2.80441C35.6143 3.11512 35.6143 3.42584 35.6143 3.74452C38.1246 3.74452 40.615 3.74452 43.1292 3.74452C43.1292 3.66087 43.1292 3.58917 43.1292 3.51746C43.1292 3.07131 43.1372 2.62913 43.1252 2.18298C43.1173 1.78064 43.1691 1.4022 43.3563 1.0397C43.5994 0.565662 43.962 0.254946 44.476 0.115523C44.5358 0.0956049 44.5796 0.0398354 44.6274 0ZM52.501 14.994C52.509 14.9502 52.5169 14.9223 52.5169 14.8984C52.5169 12.9664 52.5169 11.0344 52.505 9.10238C52.505 8.9271 52.4412 8.73988 52.3536 8.58452C52.238 8.37738 52.0866 8.19015 51.9232 8.01487C51.6284 7.70017 51.2498 7.50498 50.8235 7.49701C49.5564 7.4771 48.2853 7.48905 47.0182 7.48905C46.9744 7.48905 46.9305 7.501 46.8668 7.50896C46.8668 7.59262 46.8668 7.66432 46.8668 7.73603C46.8668 8.22202 46.8628 8.70403 46.8668 9.19002C46.8708 9.53658 46.811 9.86323 46.6596 10.1819C46.3488 10.8392 45.8029 11.1459 45.1175 11.2256C44.9103 11.2495 44.6872 11.1898 44.484 11.126C44.2609 11.0543 44.0297 10.9587 43.8465 10.8193C43.3603 10.4408 43.1452 9.91502 43.1332 9.30554C43.1213 8.77971 43.1292 8.25787 43.1292 7.73204C43.1292 7.66034 43.1292 7.58864 43.1292 7.50896C40.615 7.50896 38.1246 7.50896 35.6143 7.50896C35.6143 7.69619 35.6223 7.86748 35.6143 8.03877C35.5744 8.67614 35.7298 9.32546 35.4987 9.94689C35.423 10.154 35.3194 10.3612 35.1879 10.5365C34.9409 10.8591 34.6022 11.0384 34.2077 11.1619C33.7694 11.3013 33.3789 11.2216 32.9884 11.0543C32.6458 10.9069 32.3748 10.6799 32.1796 10.3452C32.0282 10.0823 31.9046 9.80747 31.8887 9.51667C31.8568 8.91914 31.8767 8.32161 31.8767 7.72408C31.8767 7.65237 31.8767 7.58465 31.8767 7.50498C29.3625 7.50498 26.8761 7.50498 24.3658 7.50498C24.3658 7.58864 24.3658 7.66034 24.3658 7.73204C24.3658 8.19812 24.3618 8.66021 24.3658 9.12628C24.3738 9.57642 24.2781 9.98672 24.039 10.3811C23.7243 10.9069 23.2381 11.122 22.6803 11.2296C22.3257 11.2973 21.991 11.1818 21.6722 11.0304C21.0147 10.7157 20.692 10.166 20.6362 9.47285C20.5884 8.89922 20.6243 8.31762 20.6243 7.74001C20.6243 7.66432 20.6163 7.58465 20.6123 7.50896C20.5645 7.501 20.5366 7.49303 20.5127 7.49303C18.094 7.49303 15.6794 7.49303 13.2607 7.48905C13.1213 7.48905 13.0974 7.5488 13.0974 7.66831C13.1013 8.18617 13.0934 8.70403 13.1013 9.22188C13.1053 9.56447 13.0376 9.88315 12.8902 10.1899C12.5714 10.8551 12.0135 11.1619 11.3162 11.2256C11.109 11.2455 10.8899 11.1698 10.6827 11.122C10.2842 11.0304 9.96148 10.7954 9.73834 10.4687C9.46341 10.0664 9.3359 9.6043 9.35981 9.10238C9.37973 8.64029 9.36379 8.17422 9.36379 7.70814C9.36379 7.64042 9.35582 7.56872 9.35184 7.50896C9.31199 7.501 9.30004 7.49303 9.28809 7.49303C7.9652 7.49303 6.6463 7.48905 5.32342 7.501C5.16005 7.501 4.98473 7.55278 4.84128 7.63644C4.62611 7.75993 4.41094 7.9113 4.23961 8.09056C3.94076 8.40526 3.73356 8.7837 3.73356 9.23384C3.72958 11.0981 3.72958 12.9664 3.72958 14.8307C3.72958 14.8825 3.73755 14.9343 3.74153 14.998C20.0066 14.994 36.2439 14.994 52.501 14.994ZM11.2405 48.7505V48.7545C11.8382 48.7545 12.4359 48.7465 13.0336 48.7585C13.5476 48.7704 13.9899 48.6151 14.3764 48.2844C14.7071 47.9976 14.9183 47.6311 14.99 47.2168C15.0897 46.6313 14.9502 46.0815 14.5398 45.6274C14.1931 45.241 13.7668 44.994 13.2368 44.994C11.898 44.9861 10.5552 44.9901 9.21636 44.994C8.88564 44.994 8.59477 45.1335 8.31983 45.3167C7.90145 45.5995 7.63448 45.9939 7.51893 46.4679C7.4233 46.8623 7.47908 47.2726 7.64245 47.6431C7.74206 47.8662 7.92137 48.0574 8.09271 48.2366C8.38757 48.5473 8.7661 48.7306 9.19245 48.7465C9.86983 48.7664 10.5552 48.7505 11.2405 48.7505ZM22.5129 48.7545C22.5129 48.7505 22.5129 48.7505 22.5129 48.7545C23.1983 48.7505 23.8797 48.7625 24.565 48.7465C24.7603 48.7425 24.9595 48.6669 25.1507 48.6031C25.2504 48.5713 25.346 48.5075 25.4257 48.4398C25.6727 48.2326 25.9477 48.0454 26.0513 47.7068C26.115 47.4917 26.2306 47.2846 26.2545 47.0655C26.2784 46.8145 26.3182 46.5476 26.1628 46.3006C26.0792 46.1652 26.0831 45.97 25.9875 45.8505C25.5492 45.2888 24.9993 44.9622 24.2502 44.9821C23.0907 45.01 21.9272 44.994 20.7677 44.9861C20.4091 44.9861 20.0784 45.0418 19.7556 45.2131C19.2137 45.4999 18.883 45.9501 18.7794 46.5317C18.6758 47.1053 18.7993 47.6511 19.2137 48.1052C19.5763 48.4996 20.0066 48.7465 20.5485 48.7545C21.198 48.7625 21.8555 48.7545 22.5129 48.7545ZM11.2445 37.4891C10.5472 37.4891 9.84991 37.4811 9.15261 37.497C8.96533 37.501 8.75813 37.5488 8.59477 37.6404C8.38358 37.7559 8.19631 37.9233 8.01302 38.0786C7.72613 38.3256 7.56674 38.6682 7.51096 39.0227C7.41931 39.6043 7.53885 40.154 7.96122 40.6082C8.31584 40.9946 8.73821 41.2415 9.26816 41.2455C10.5711 41.2535 11.8701 41.2455 13.1731 41.2495C13.5715 41.2495 13.9262 41.126 14.2409 40.891C14.6992 40.5484 14.9661 40.0903 15.01 39.5127C15.0538 38.9152 14.8466 38.4132 14.4242 37.9989C14.1094 37.6922 13.7269 37.497 13.2806 37.4891C12.5993 37.4771 11.9219 37.4891 11.2445 37.4891ZM11.2366 22.495C10.611 22.495 9.98937 22.503 9.36379 22.491C8.94939 22.4831 8.57883 22.6066 8.26006 22.8535C7.78589 23.22 7.49103 23.6901 7.49103 24.3075C7.49103 24.5187 7.45916 24.7378 7.59065 24.9369C7.69026 25.0843 7.72214 25.2755 7.82574 25.4189C8.00903 25.6819 8.22021 25.9129 8.535 26.0404C8.75813 26.132 8.96932 26.2475 9.22035 26.2475C10.3081 26.2475 11.3959 26.2595 12.4837 26.2435C12.8981 26.2395 13.3245 26.3431 13.7229 26.136C13.8544 26.0683 14.0258 26.0643 14.1413 25.9766C14.5557 25.6659 14.8785 25.2715 14.9861 24.7537C15.0897 24.2637 15.006 23.7737 14.7271 23.3595C14.3445 22.7898 13.8066 22.4671 13.0854 22.4831C12.4718 22.507 11.8542 22.495 11.2366 22.495ZM44.994 26.2515C45.5917 26.2555 46.1894 26.2435 46.7871 26.2595C47.2971 26.2714 47.7354 26.12 48.1259 25.7854C48.4646 25.4946 48.6798 25.1281 48.7475 24.7059C48.8431 24.1283 48.7116 23.5865 48.3012 23.1364C47.9426 22.746 47.5202 22.495 46.9783 22.495C45.7511 22.491 44.5238 22.495 43.2966 22.491C42.926 22.4871 42.5754 22.5269 42.2407 22.7141C41.8502 22.9332 41.5713 23.2479 41.38 23.6383C41.2246 23.961 41.2166 24.3155 41.2644 24.6621C41.3003 24.9329 41.3919 25.1998 41.5713 25.4189C41.7785 25.6699 41.9697 25.9408 42.3044 26.0444C42.5116 26.1081 42.7188 26.2356 42.926 26.2435C43.6114 26.2674 44.3007 26.2515 44.994 26.2515ZM22.509 41.2495C23.1345 41.2495 23.7561 41.2415 24.3817 41.2535C24.6925 41.2575 24.9714 41.1818 25.2424 41.0344C25.8959 40.6839 26.2266 40.1421 26.2704 39.4051C26.2864 39.1263 26.2226 38.8674 26.119 38.6283C26.0234 38.4053 25.8401 38.2141 25.6767 38.0268C25.3779 37.6882 24.9874 37.501 24.5451 37.493C23.2302 37.4771 21.9153 37.493 20.6043 37.4811C20.2497 37.4771 19.919 37.5767 19.6401 37.756C19.1898 38.0428 18.8631 38.465 18.7714 39.0028C18.6838 39.5326 18.7634 40.0505 19.1101 40.4887C19.4847 40.9627 19.9628 41.2455 20.5804 41.2495C21.2219 41.2495 21.8674 41.2495 22.509 41.2495ZM11.2405 33.7485C11.8063 33.7485 12.3682 33.7445 12.934 33.7525C13.3125 33.7565 13.6672 33.7166 14.0178 33.5294C14.5557 33.2386 14.8745 32.7885 14.99 32.2228C15.1096 31.6333 14.9542 31.0795 14.5398 30.6254C14.1772 30.2271 13.7269 29.992 13.1691 29.992C11.8342 29.996 10.4994 29.9881 9.16456 30C8.97729 30 8.77009 30.0478 8.60672 30.1354C8.39155 30.251 8.20029 30.4143 8.017 30.5776C7.71815 30.8365 7.56276 31.1911 7.51096 31.5655C7.47111 31.8484 7.46713 32.1352 7.58268 32.4339C7.68229 32.6889 7.78988 32.9199 7.96918 33.1151C8.31983 33.5055 8.75415 33.7405 9.28809 33.7445C9.93757 33.7525 10.591 33.7485 11.2405 33.7485ZM22.493 26.2515C23.1784 26.2515 23.8597 26.2634 24.5451 26.2435C24.7443 26.2395 24.9475 26.1678 25.1428 26.1081C25.2424 26.0802 25.334 26.0165 25.4137 25.9487C25.6687 25.7336 25.9397 25.5305 26.0553 25.1959C26.119 25.0047 26.2346 24.8214 26.2465 24.6302C26.2664 24.3593 26.2824 24.0884 26.1708 23.8056C26.0712 23.5546 25.9636 23.3236 25.7883 23.1244C25.4815 22.7739 25.095 22.5149 24.6288 22.507C23.2142 22.4831 21.7997 22.495 20.3852 22.503C20.0903 22.503 19.8194 22.6344 19.5803 22.8057C19.2177 23.0647 18.9507 23.3913 18.8232 23.8415C18.6638 24.4111 18.7316 24.9329 19.0543 25.407C19.2336 25.6739 19.4528 25.9129 19.7795 26.0404C20.0106 26.132 20.2258 26.2515 20.4808 26.2515C21.1542 26.2515 21.8236 26.2515 22.493 26.2515ZM22.497 33.7485C23.0867 33.7485 23.6765 33.7565 24.2702 33.7445C24.5013 33.7405 24.7244 33.7485 24.9595 33.6529C25.1986 33.5573 25.4257 33.4537 25.6169 33.2864C26.0274 32.9239 26.2625 32.4778 26.2625 31.9241C26.2625 31.7129 26.2545 31.5098 26.1708 31.2986C26.0712 31.0556 25.9716 30.8286 25.7963 30.6374C25.4297 30.2311 24.9874 29.992 24.4295 29.996C23.1624 30 21.8953 30 20.6282 29.992C20.2138 29.9881 19.8512 30.1155 19.5245 30.3545C19.13 30.6414 18.8591 31.0317 18.7794 31.5058C18.6798 32.0914 18.7913 32.6451 19.2137 33.1072C19.5803 33.5095 20.0186 33.7485 20.5725 33.7525C21.21 33.7525 21.8515 33.7485 22.497 33.7485ZM33.7694 22.495C33.1319 22.495 32.4944 22.503 31.8568 22.491C31.4464 22.4831 31.0838 22.6105 30.769 22.8535C30.2909 23.22 29.996 23.6941 30 24.3195C30.004 24.5306 29.9602 24.7457 30.0996 24.9489C30.1952 25.0883 30.2231 25.2755 30.3227 25.4189C30.51 25.6898 30.7252 25.9368 31.0519 26.0483C31.2591 26.12 31.4703 26.2395 31.6775 26.2435C33.0203 26.2634 34.3591 26.2475 35.7019 26.2595C36.0446 26.2635 36.3554 26.1479 36.6224 25.9846C37.0687 25.7097 37.3755 25.2835 37.4831 24.7696C37.5827 24.2836 37.5149 23.7897 37.232 23.3754C36.8615 22.8336 36.3514 22.491 35.6581 22.499C35.0325 22.499 34.403 22.495 33.7694 22.495Z" fill="#CA0026"/>
<path d="M46.0619 59.9922C46.0061 59.9563 45.9543 59.9005 45.8985 59.8926C45.7591 59.8727 45.6196 59.8886 45.4801 59.8766C45.0817 59.8368 44.6792 59.8129 44.2927 59.7372C43.9222 59.6655 43.5675 59.5301 43.2049 59.4225C42.9061 59.3349 42.6033 59.2632 42.3124 59.1516C41.9219 59.0003 41.5394 58.825 41.1529 58.6497C40.9616 58.5621 40.7783 58.4625 40.591 58.3629C40.4237 58.2753 40.2563 58.1876 40.097 58.0841C39.9455 57.9884 39.8061 57.8809 39.6587 57.7773C39.4076 57.5981 39.1446 57.4347 38.9016 57.2395C38.4872 56.9089 38.0768 56.5743 37.6863 56.2198C37.4472 55.9967 37.24 55.7378 37.0288 55.4828C36.714 55.1004 36.3833 54.7259 36.1044 54.3156C35.7936 53.8615 35.5266 53.3755 35.2597 52.8935C35.0604 52.535 34.8811 52.1605 34.7178 51.7861C34.6062 51.5351 34.5305 51.2682 34.4508 51.0013C34.3591 50.6986 34.2994 50.3879 34.1998 50.0931C34.0802 49.7465 34.0005 49.396 33.9687 49.0255C33.9288 48.5395 33.8133 48.0575 33.7774 47.5715C33.7375 47.0536 33.6977 46.5318 33.8212 46.01C33.877 45.763 33.8411 45.4961 33.8651 45.2372C33.8969 44.9145 33.9328 44.5878 33.9965 44.2692C34.0563 43.9584 34.14 43.6477 34.2316 43.345C34.3233 43.0542 34.4468 42.7713 34.5504 42.4845C34.6421 42.2375 34.7098 41.9786 34.8094 41.7356C34.925 41.4568 35.0564 41.1819 35.1959 40.911C35.3274 40.6481 35.4669 40.3892 35.6223 40.1422C35.7936 39.8713 35.9809 39.6124 36.1681 39.3495C36.3315 39.1184 36.4829 38.8794 36.6662 38.6683C37.0966 38.1783 37.491 37.6525 38.009 37.2462C38.2481 37.059 38.4553 36.8359 38.6904 36.6447C38.9613 36.4176 39.2363 36.1945 39.5311 35.9953C39.7981 35.8121 40.089 35.6567 40.3759 35.5054C40.7624 35.3022 41.1489 35.0991 41.5474 34.9198C41.8462 34.7844 42.157 34.6808 42.4638 34.5653C42.7507 34.4577 43.0336 34.3342 43.3245 34.2466C43.5516 34.1789 43.7907 34.155 44.0258 34.1032C44.3445 34.0355 44.6593 33.9478 44.9821 33.8881C45.1614 33.8562 45.3526 33.8681 45.5399 33.8602C46.1336 33.8283 46.7273 33.7686 47.317 33.7686C47.7832 33.7686 48.2574 33.7964 48.7116 33.896C48.9587 33.9478 49.2018 33.9558 49.4448 34.0036C49.66 34.0434 49.8632 34.139 50.0744 34.2028C50.2417 34.2545 50.4131 34.2824 50.5804 34.3342C51.0187 34.4776 51.461 34.6131 51.8914 34.7883C52.3416 34.9716 52.7879 35.1787 53.2182 35.4058C53.5051 35.5572 53.7681 35.7563 54.039 35.9396C54.3897 36.1826 54.7603 36.4096 55.083 36.6845C55.5771 37.1028 56.0911 37.5011 56.4975 38.015C56.8044 38.4054 57.143 38.7679 57.4419 39.1623C57.6531 39.4371 57.8284 39.7439 58.0117 40.0386C58.199 40.3334 58.4022 40.6242 58.5576 40.9349C58.7488 41.3174 58.9003 41.7157 59.0636 42.1101C59.1712 42.373 59.2828 42.6319 59.3784 42.9028C59.4422 43.0781 59.47 43.2653 59.5179 43.4485C59.5856 43.7075 59.6613 43.9664 59.733 44.2253C59.741 44.2492 59.745 44.2771 59.749 44.305C59.7968 44.8229 59.8406 45.3367 59.8964 45.8546C59.9044 45.9263 59.9641 45.99 60 46.0578C60 46.6035 60 47.1453 60 47.691C59.9641 47.7308 59.9044 47.7707 59.9004 47.8145C59.8725 48.2607 59.8884 48.7068 59.7649 49.145C59.6932 49.4119 59.6733 49.6947 59.6215 49.9656C59.5896 50.1289 59.5418 50.2883 59.49 50.4476C59.4262 50.6428 59.3585 50.838 59.2907 51.0332C59.2031 51.2881 59.1274 51.555 59.0198 51.802C58.8564 52.1805 58.6691 52.5469 58.4859 52.9134C58.3225 53.2321 58.1671 53.5588 57.9758 53.8615C57.7726 54.1802 57.5415 54.4869 57.2984 54.7817C56.9199 55.2438 56.5533 55.7139 56.131 56.1321C55.7126 56.5504 55.2344 56.9129 54.7802 57.2993C54.6009 57.4507 54.4256 57.606 54.2343 57.7375C54.0271 57.8769 53.8 57.9924 53.5808 58.1199C53.4453 58.1996 53.3138 58.2912 53.1744 58.3629C52.9114 58.4983 52.6484 58.6298 52.3815 58.7493C52.0627 58.8927 51.7439 59.0401 51.4172 59.1596C51.1343 59.2632 50.8354 59.3389 50.5446 59.4265C50.182 59.5341 49.8273 59.6735 49.4568 59.7412C49.0384 59.8209 48.612 59.8408 48.1897 59.8846C48.0781 59.8966 47.9625 59.8806 47.851 59.9005C47.7912 59.9125 47.7394 59.9683 47.6876 60.0001C47.1537 59.9922 46.6078 59.9922 46.0619 59.9922ZM48.7674 44.9822C48.7674 44.8627 48.7674 44.779 48.7674 44.6954C48.7674 42.8709 48.7754 41.0425 48.7515 39.218C48.7475 38.9272 48.6399 38.6046 48.4845 38.3616C48.2096 37.9313 47.7952 37.6166 47.2852 37.5091C46.7911 37.4055 46.281 37.4772 45.8666 37.768C45.3088 38.1624 44.9861 38.7081 44.99 39.4371C45.006 41.895 44.998 44.3488 44.994 46.8067C44.994 47.3086 45.1375 47.7468 45.4682 48.1172C45.8148 48.4997 46.2412 48.7506 46.7632 48.7546C49.3452 48.7626 51.9312 48.7626 54.5132 48.7506C54.7244 48.7506 54.9356 48.671 55.1388 48.6112C55.2384 48.5793 55.338 48.5196 55.4177 48.4519C55.6687 48.2368 55.9477 48.0455 56.0553 47.703C56.115 47.5117 56.2346 47.3325 56.2505 47.1373C56.2744 46.8585 56.3222 46.5637 56.1589 46.2928C56.0792 46.1613 56.0831 45.9741 55.9915 45.8586C55.5691 45.3208 55.0432 44.9782 54.314 44.9862C52.5608 45.0021 50.8075 44.9902 49.0543 44.9902C48.9706 44.9822 48.883 44.9822 48.7674 44.9822Z" fill="#CA0026"/>
</g>
<defs>
<clipPath id="clip0_557_23">
<rect width="60" height="60" fill="white"/>
</clipPath>
</defs>
</svg>
